<svg width="170" height="110" viewBox="0 0 170 110" fill="none" xmlns="http://www.w3.org/2000/svg">
<path d="M42.9813 47.277C42.4467 47.277 42.126 46.9573 42.126 46.4243C42.126 45.8913 42.4467 45.5715 42.9813 45.5715C43.5159 45.5715 43.8367 45.8913 43.8367 46.4243C43.8367 46.9573 43.409 47.277 42.9813 47.277Z" fill="#6A83FF"/>
<path d="M42.9813 65.3981C42.4467 65.3981 42.126 65.0783 42.126 64.5454C42.126 64.0124 42.4467 63.6926 42.9813 63.6926C43.5159 63.6926 43.8367 64.0124 43.8367 64.5454C43.8367 65.0783 43.409 65.3981 42.9813 65.3981Z" fill="#6A83FF"/>
<path d="M12.6165 19.3495H12.4027C11.975 19.3495 11.5474 19.6693 11.5474 20.2022C11.5474 20.7352 11.8681 21.055 12.4027 21.055H12.6165C13.0442 21.055 13.4719 20.7352 13.4719 20.2022C13.4719 19.6693 13.0442 19.3495 12.6165 19.3495Z" fill="url(#paint0_linear_421_180)"/>
<path d="M9.19516 19.3495H8.98132C8.55365 19.3495 8.12598 19.6693 8.12598 20.2022C8.12598 20.7352 8.44673 21.055 8.98132 21.055H9.19516C9.62283 21.055 10.0505 20.7352 10.0505 20.2022C10.0505 19.6693 9.62283 19.3495 9.19516 19.3495Z" fill="url(#paint1_linear_421_180)"/>
<path d="M16.0377 19.3495H15.8239C15.3962 19.3495 14.9685 19.6693 14.9685 20.0956C14.9685 20.522 15.2893 20.9484 15.7169 20.9484H15.9308C15.9308 20.9484 15.9308 20.9484 16.0377 20.9484C16.4654 20.9484 16.7861 20.6286 16.7861 20.2022C16.7861 19.7759 16.4654 19.4561 16.0377 19.3495Z" fill="url(#paint2_linear_421_180)"/>
<path d="M23.5222 29.7957C23.5222 29.3694 23.2015 28.943 22.6669 28.943C22.1323 28.943 21.8115 29.2628 21.8115 29.7957V30.0089C21.8115 30.4353 22.1323 30.8617 22.6669 30.8617C23.2015 30.8617 23.5222 30.5419 23.5222 30.0089V29.7957Z" fill="url(#paint3_linear_421_180)"/>
<path d="M22.132 23.0803L22.0251 22.8671C21.8113 22.5473 21.2767 22.4407 20.9559 22.6539C20.6352 22.8671 20.5283 23.4 20.7421 23.7198L20.849 23.933C20.9559 24.1462 21.2767 24.2528 21.4905 24.2528C21.5975 24.2528 21.8113 24.2528 21.9182 24.1462C22.3459 23.933 22.4528 23.5066 22.132 23.0803Z" fill="url(#paint4_linear_421_180)"/>
<path d="M22.6669 32.354C22.2392 32.354 21.8115 32.6738 21.8115 33.2068V33.4199C21.8115 33.8463 22.1323 34.2727 22.6669 34.2727C23.2015 34.2727 23.5222 33.8463 23.5222 33.4199V33.2068C23.5222 32.6738 23.0945 32.354 22.6669 32.354Z" fill="url(#paint5_linear_421_180)"/>
<path d="M5.88071 19.3495H5.66687C5.2392 19.3495 4.81152 19.6693 4.81152 20.2022C4.81152 20.7352 5.13228 21.055 5.66687 21.055H5.88071C6.30838 21.055 6.73605 20.7352 6.73605 20.2022C6.73605 19.6693 6.30838 19.3495 5.88071 19.3495Z" fill="url(#paint6_linear_421_180)"/>
<path d="M19.5662 20.522L19.3524 20.4154C18.9247 20.2022 18.497 20.3088 18.2832 20.7352C18.0694 21.1616 18.1763 21.588 18.6039 21.8012L18.7109 21.9077C18.8178 22.0143 19.0316 22.0143 19.1385 22.0143C19.4593 22.0143 19.6731 21.9077 19.78 21.588C19.9939 21.2682 19.887 20.7352 19.5662 20.522Z" fill="url(#paint7_linear_421_180)"/>
<path d="M24.4844 42.587C24.2705 42.2673 23.7359 42.1607 23.4152 42.3739C23.0944 42.587 22.9875 43.12 23.2013 43.4398L23.3083 43.653C23.4152 43.8662 23.7359 43.9728 23.9498 43.9728C24.0567 43.9728 24.2705 43.9728 24.3774 43.8662C24.6982 43.653 24.8051 43.12 24.5913 42.8002L24.4844 42.587Z" fill="url(#paint8_linear_421_180)"/>
<path d="M26.8367 44.7189L26.7297 44.6123C26.3021 44.3991 25.8744 44.5057 25.6606 44.8254C25.4467 45.2518 25.5536 45.6782 25.8744 45.8914L26.0882 45.998C26.1952 46.1046 26.3021 46.1046 26.5159 46.1046C26.8367 46.1046 27.0505 45.998 27.2643 45.6782C27.3713 45.465 27.1574 44.932 26.8367 44.7189Z" fill="url(#paint9_linear_421_180)"/>
<path d="M29.6165 45.5715H29.4027C28.975 45.5715 28.5474 45.8913 28.5474 46.3177C28.5474 46.7441 28.8681 47.1704 29.2958 47.1704H29.5096C29.5096 47.1704 29.5096 47.1704 29.6165 47.1704C30.0442 47.1704 30.365 46.8507 30.365 46.4243C30.4719 45.9979 30.1511 45.6781 29.6165 45.5715Z" fill="url(#paint10_linear_421_180)"/>
<path d="M22.6666 27.4506C23.2012 27.3441 23.5219 27.0243 23.415 26.5979V26.3847C23.3081 25.9583 22.9874 25.6386 22.4528 25.7451C22.0251 25.8517 21.7043 26.1715 21.8112 26.7045V26.9177C21.9182 27.1309 22.2389 27.4506 22.6666 27.4506Z" fill="url(#paint11_linear_421_180)"/>
<path d="M23.522 39.9221V39.7089C23.522 39.2826 23.0943 38.9628 22.6666 38.9628C22.239 38.9628 21.9182 39.3891 21.9182 39.8155C21.9182 39.9221 21.9182 40.0287 21.9182 40.0287C22.0251 40.4551 22.3459 40.6683 22.6666 40.6683H22.7736C23.3081 40.7749 23.6289 40.3485 23.522 39.9221Z" fill="url(#paint12_linear_421_180)"/>
<path d="M22.6669 37.5771C23.0945 37.5771 23.5222 37.2574 23.5222 36.7244V36.5112C23.5222 36.0848 23.2015 35.6584 22.6669 35.6584C22.1323 35.6584 21.8115 35.9782 21.8115 36.5112V36.7244C21.9184 37.1508 22.2392 37.5771 22.6669 37.5771Z" fill="url(#paint13_linear_421_180)"/>
<path d="M2.35217 19.3496C1.9245 19.3496 1.49683 19.6694 1.49683 20.2024C1.49683 20.7353 1.81758 21.0551 2.35217 21.0551H2.45909C2.88676 21.0551 3.20752 20.7353 3.20752 20.2024C3.20752 19.6694 2.77985 19.3496 2.35217 19.3496Z" fill="url(#paint14_linear_421_180)"/>
<path d="M42.9813 45.6782H39.6668H39.453H36.2455H36.0316H32.931H32.7172C32.2895 45.6782 31.8618 45.998 31.8618 46.531C31.8618 47.0639 32.1826 47.3837 32.7172 47.3837H32.931H36.0316H36.3524H39.5599H39.7738H43.0882C43.5159 47.3837 43.9436 47.0639 43.9436 46.531C43.9436 45.998 43.409 45.6782 42.9813 45.6782Z" fill="url(#paint15_linear_421_180)"/>
<path d="M42.9813 56.0178C42.4467 56.0178 42.126 55.698 42.126 55.165C42.126 54.632 42.4467 54.3123 42.9813 54.3123C43.5159 54.3123 43.8367 54.632 43.8367 55.165C43.8367 55.698 43.409 56.0178 42.9813 56.0178Z" fill="#EE4192"/>
<path d="M14.9686 54.4189H14.7548C14.3271 54.4189 13.8994 54.7387 13.8994 55.2717C13.8994 55.8047 14.2202 56.1244 14.7548 56.1244H14.9686C15.3963 56.1244 15.8239 55.8047 15.8239 55.2717C15.8239 54.7387 15.3963 54.4189 14.9686 54.4189Z" fill="url(#paint16_linear_421_180)"/>
<path d="M18.4969 54.4189H18.2831C17.8554 54.4189 17.4277 54.7387 17.4277 55.2717C17.4277 55.8047 17.7485 56.1244 18.2831 56.1244H18.4969C18.9246 56.1244 19.3523 55.8047 19.3523 55.2717C19.3523 54.7387 18.9246 54.4189 18.4969 54.4189Z" fill="url(#paint17_linear_421_180)"/>
<path d="M11.4403 54.4189H11.2264C10.7988 54.4189 10.3711 54.7387 10.3711 55.2717C10.3711 55.8047 10.6918 56.1244 11.2264 56.1244H11.4403C11.8679 56.1244 12.2956 55.8047 12.2956 55.2717C12.2956 54.7387 11.8679 54.4189 11.4403 54.4189Z" fill="url(#paint18_linear_421_180)"/>
<path d="M7.91196 54.4189H7.69812C7.27045 54.4189 6.84277 54.7387 6.84277 55.2717C6.84277 55.8047 7.16353 56.1244 7.69812 56.1244H7.91196C8.33963 56.1244 8.7673 55.8047 8.7673 55.2717C8.7673 54.7387 8.33963 54.4189 7.91196 54.4189Z" fill="url(#paint19_linear_421_180)"/>
<path d="M4.38364 54.4189H4.1698C3.74213 54.4189 3.31445 54.7387 3.31445 55.2717C3.31445 55.8047 3.63521 56.1244 4.1698 56.1244H4.38364C4.81131 56.1244 5.23898 55.8047 5.23898 55.2717C5.23898 54.7387 4.91823 54.4189 4.38364 54.4189Z" fill="url(#paint20_linear_421_180)"/>
<path d="M29.0819 54.4189H28.868C28.4404 54.4189 28.0127 54.7387 28.0127 55.2717C28.0127 55.8047 28.3334 56.1244 28.868 56.1244H29.0819C29.5096 56.1244 29.9372 55.8047 29.9372 55.2717C29.9372 54.7387 29.5096 54.4189 29.0819 54.4189Z" fill="url(#paint21_linear_421_180)"/>
<path d="M22.0252 54.4189H21.8114C21.3837 54.4189 20.9561 54.7387 20.9561 55.2717C20.9561 55.8047 21.2768 56.1244 21.8114 56.1244H22.0252C22.4529 56.1244 22.8806 55.8047 22.8806 55.2717C22.8806 54.7387 22.4529 54.4189 22.0252 54.4189Z" fill="url(#paint22_linear_421_180)"/>
<path d="M25.5536 54.4189H25.3397C24.912 54.4189 24.4844 54.7387 24.4844 55.2717C24.4844 55.8047 24.8051 56.1244 25.3397 56.1244H25.5536C25.9812 56.1244 26.4089 55.8047 26.4089 55.2717C26.4089 54.7387 25.9812 54.4189 25.5536 54.4189Z" fill="url(#paint23_linear_421_180)"/>
<path d="M0.962264 54.4189H0.855346C0.427673 54.4189 0 54.7387 0 55.2717C0 55.8047 0.320755 56.1244 0.855346 56.1244H0.962264C1.38994 56.1244 1.81761 55.8047 1.81761 55.2717C1.81761 54.7387 1.38994 54.4189 0.962264 54.4189Z" fill="url(#paint24_linear_421_180)"/>
<path d="M42.9813 54.4189H39.5599H39.346H36.0316H35.8177H32.824H32.7171H32.6102H32.3964C31.9687 54.4189 31.541 54.7387 31.541 55.2717C31.541 55.8047 31.8618 56.1244 32.3964 56.1244H32.6102H32.7171H32.824H35.8177H36.0316H39.346H39.5599H42.9813C43.4089 56.1244 43.8366 55.8047 43.8366 55.2717C43.8366 54.7387 43.4089 54.4189 42.9813 54.4189Z" fill="url(#paint25_linear_421_180)"/>
<path d="M18.7109 89.1685L18.6039 89.2751C18.1763 89.4883 18.0694 90.0212 18.2832 90.341C18.3901 90.5542 18.7109 90.7674 19.0316 90.7674C19.1385 90.7674 19.2455 90.7674 19.4593 90.6608L19.6731 90.5542C20.1008 90.341 20.2077 89.8081 19.887 89.4883C19.5662 89.0619 19.0316 88.8487 18.7109 89.1685Z" fill="url(#paint26_linear_421_180)"/>
<path d="M15.8241 90.0212H15.6102C15.1826 90.0212 14.8618 90.4476 14.8618 90.874C14.8618 91.3004 15.2895 91.6201 15.6102 91.6201H15.8241C16.2518 91.6201 16.5725 91.1938 16.5725 90.7674C16.6794 90.341 16.2518 90.0212 15.8241 90.0212Z" fill="url(#paint27_linear_421_180)"/>
<path d="M22.7735 83.5191C22.3459 83.4125 21.9182 83.7323 21.9182 84.2652V84.4784C21.8113 84.9048 22.132 85.3312 22.5597 85.4378H22.6666C23.0943 85.4378 23.415 85.118 23.415 84.7982V84.585C23.522 84.052 23.2012 83.6257 22.7735 83.5191Z" fill="url(#paint28_linear_421_180)"/>
<path d="M12.6165 90.1278H12.4027C11.975 90.1278 11.5474 90.4476 11.5474 90.9806C11.5474 91.5135 11.8681 91.8333 12.4027 91.8333H12.6165C13.0442 91.8333 13.4719 91.5135 13.4719 90.9806C13.4719 90.4476 13.0442 90.1278 12.6165 90.1278Z" fill="url(#paint29_linear_421_180)"/>
<path d="M22.6669 80.2146C22.2392 80.2146 21.8115 80.5344 21.8115 81.0674V81.2805C21.8115 81.7069 22.1323 82.1333 22.6669 82.1333C23.2015 82.1333 23.5222 81.8135 23.5222 81.2805V81.0674C23.5222 80.5344 23.0945 80.2146 22.6669 80.2146Z" fill="url(#paint30_linear_421_180)"/>
<path d="M5.88071 90.1278H5.66687C5.2392 90.1278 4.81152 90.4476 4.81152 90.9806C4.81152 91.5135 5.13228 91.8333 5.66687 91.8333H5.88071C6.30838 91.8333 6.73605 91.5135 6.73605 90.9806C6.73605 90.4476 6.30838 90.1278 5.88071 90.1278Z" fill="url(#paint31_linear_421_180)"/>
<path d="M9.19516 90.1278H8.98132C8.55365 90.1278 8.12598 90.4476 8.12598 90.9806C8.12598 91.5135 8.44673 91.8333 8.98132 91.8333H9.19516C9.62283 91.8333 10.0505 91.5135 10.0505 90.9806C10.0505 90.4476 9.62283 90.1278 9.19516 90.1278Z" fill="url(#paint32_linear_421_180)"/>
<path d="M21.9185 86.8233C21.5977 86.6101 21.0631 86.7167 20.8493 87.0365L20.7424 87.2497C20.5285 87.5695 20.6354 88.1024 20.9562 88.3156C21.0631 88.4222 21.2769 88.4222 21.3839 88.4222C21.5977 88.4222 21.9185 88.3156 22.0254 88.1024L22.1323 87.8893C22.453 87.5695 22.3461 87.0365 21.9185 86.8233Z" fill="url(#paint33_linear_421_180)"/>
<path d="M25.9814 64.8651L25.7675 64.9717C25.3399 65.1849 25.2329 65.7179 25.5537 66.0376C25.6606 66.2508 25.9814 66.464 26.1952 66.464C26.3021 66.464 26.516 66.464 26.6229 66.3574L26.7298 66.2508C27.1575 66.0376 27.2644 65.5047 27.0505 65.1849C26.8367 64.8651 26.409 64.6519 25.9814 64.8651Z" fill="url(#paint34_linear_421_180)"/>
<path d="M29.5096 63.7992H29.2958C28.8681 63.7992 28.5474 64.2256 28.5474 64.6519C28.5474 65.0783 28.975 65.3981 29.2958 65.3981H29.4027H29.6165C30.0442 65.3981 30.365 64.9717 30.365 64.5454C30.365 64.119 29.9373 63.7992 29.5096 63.7992Z" fill="url(#paint35_linear_421_180)"/>
<path d="M23.3085 67.4234L23.2016 67.6366C22.9877 67.9564 23.0947 68.4894 23.4154 68.7026C23.5223 68.8092 23.7362 68.8092 23.8431 68.8092C24.0569 68.8092 24.3777 68.7026 24.4846 68.4894L24.5915 68.3828C24.8054 68.063 24.6984 67.53 24.3777 67.3168C24.0569 66.8905 23.5223 66.9971 23.3085 67.4234Z" fill="url(#paint36_linear_421_180)"/>
<path d="M22.6669 76.8036C22.2392 76.8036 21.8115 77.1234 21.8115 77.6563V77.8695C21.8115 78.2959 22.1323 78.7223 22.6669 78.7223C23.2015 78.7223 23.5222 78.4025 23.5222 77.8695V77.6563C23.5222 77.23 23.0945 76.8036 22.6669 76.8036Z" fill="url(#paint37_linear_421_180)"/>
<path d="M22.6669 73.4993C22.2392 73.4993 21.8115 73.8191 21.8115 74.352V74.5652C21.8115 74.9916 22.1323 75.418 22.6669 75.418C23.2015 75.418 23.5222 75.0982 23.5222 74.5652V74.352C23.5222 73.8191 23.0945 73.4993 22.6669 73.4993Z" fill="url(#paint38_linear_421_180)"/>
<path d="M22.8807 70.1947C22.453 70.0881 22.0254 70.4079 21.9185 70.8343C21.9185 70.9409 21.9185 71.0475 21.9185 71.0475C21.9185 71.4739 22.2392 71.9002 22.6669 71.9002H22.7738C23.2015 71.9002 23.5222 71.5805 23.5222 71.1541V70.9409C23.6291 70.6211 23.3084 70.1947 22.8807 70.1947Z" fill="url(#paint39_linear_421_180)"/>
<path d="M2.35242 90.1278C1.92474 90.1278 1.49707 90.4476 1.49707 90.9806C1.49707 91.5135 1.81783 91.8333 2.35242 91.8333H2.45933C2.88701 91.8333 3.20776 91.5135 3.20776 90.9806C3.20776 90.4476 2.78009 90.1278 2.35242 90.1278Z" fill="url(#paint40_linear_421_180)"/>
<path d="M42.9813 63.7992H39.6668H39.453H36.2454H36.0316H32.8241H32.7171H32.6102C32.1826 63.7992 31.7549 64.119 31.7549 64.6519C31.7549 65.1849 32.0756 65.5047 32.6102 65.5047H32.7171H32.8241H36.0316H36.3524H39.5599H39.7738H43.0882C43.5159 65.5047 43.9436 65.1849 43.9436 64.6519C43.9436 64.119 43.409 63.7992 42.9813 63.7992Z" fill="url(#paint41_linear_421_180)"/>
<path d="M127.019 47.277C126.591 47.277 126.164 46.9573 126.164 46.4243C126.164 45.8913 126.484 45.5715 126.912 45.5715H127.019C127.447 45.5715 127.874 45.8913 127.874 46.4243C127.874 46.9573 127.447 47.277 127.019 47.277Z" fill="#EE4192"/>
<path d="M127.019 65.3981C126.591 65.3981 126.164 65.0783 126.164 64.5454C126.164 64.0124 126.484 63.6926 126.912 63.6926H127.019C127.447 63.6926 127.874 64.0124 127.874 64.5454C127.874 65.0783 127.447 65.3981 127.019 65.3981Z" fill="#6A83FF"/>
<path d="M147.226 29.0496C146.799 29.0496 146.371 29.3693 146.371 29.9023V30.1155C146.371 30.5419 146.692 30.9682 147.226 30.9682C147.761 30.9682 148.082 30.6485 148.082 30.1155V29.9023C148.082 29.3693 147.654 29.0496 147.226 29.0496Z" fill="url(#paint42_linear_421_180)"/>
<path d="M147.226 32.354C146.799 32.354 146.371 32.6738 146.371 33.2068V33.4199C146.371 33.8463 146.692 34.2727 147.226 34.2727C147.761 34.2727 148.082 33.9529 148.082 33.4199V33.2068C148.082 32.6738 147.654 32.354 147.226 32.354Z" fill="url(#paint43_linear_421_180)"/>
<path d="M147.226 39.0693C146.798 39.0693 146.371 39.3891 146.371 39.8155V40.0287C146.264 40.4551 146.585 40.8814 147.012 40.988H147.119C147.547 40.988 147.868 40.6682 147.868 40.3485C147.868 40.2419 147.868 40.1353 147.868 40.1353C148.082 39.4957 147.761 39.0693 147.226 39.0693Z" fill="url(#paint44_linear_421_180)"/>
<path d="M146.478 42.3739C146.157 42.1607 145.623 42.2673 145.409 42.587L145.302 42.6936C145.088 43.0134 145.195 43.5464 145.516 43.7596C145.623 43.8662 145.837 43.8662 145.943 43.8662C146.157 43.8662 146.478 43.7596 146.585 43.5464L146.692 43.3332C147.013 43.0134 146.906 42.587 146.478 42.3739Z" fill="url(#paint45_linear_421_180)"/>
<path d="M140.383 45.5715H140.17C139.742 45.5715 139.421 45.9979 139.421 46.4243C139.421 46.8507 139.849 47.1704 140.17 47.1704C140.17 47.1704 140.17 47.1704 140.276 47.1704H140.49C140.918 47.1704 141.239 46.7441 141.239 46.3177C141.239 45.8913 140.918 45.5715 140.383 45.5715Z" fill="url(#paint46_linear_421_180)"/>
<path d="M143.27 44.6123L143.164 44.7189C142.736 44.9321 142.629 45.4651 142.843 45.7849C142.95 45.9981 143.27 46.2112 143.591 46.2112C143.698 46.2112 143.912 46.2112 144.019 46.1046L144.233 45.9981C144.66 45.7849 144.767 45.2519 144.447 44.9321C144.126 44.5057 143.591 44.3991 143.27 44.6123Z" fill="url(#paint47_linear_421_180)"/>
<path d="M137.176 45.6782H136.962H133.862H133.648H130.44H130.226H126.912C126.484 45.6782 126.057 45.998 126.057 46.531C126.057 47.0639 126.377 47.3837 126.912 47.3837H130.226H130.44H133.648H133.862H136.962H137.176C137.604 47.3837 138.031 47.0639 138.031 46.531C138.031 45.998 137.604 45.6782 137.176 45.6782Z" fill="url(#paint48_linear_421_180)"/>
<path d="M147.226 35.765C146.799 35.765 146.371 36.0848 146.371 36.6178V36.831C146.371 37.2573 146.692 37.6837 147.226 37.6837C147.761 37.6837 148.082 37.3639 148.082 36.831V36.6178C148.082 36.0848 147.654 35.765 147.226 35.765Z" fill="url(#paint49_linear_421_180)"/>
<path d="M160.912 19.3495H160.698C160.27 19.3495 159.843 19.6693 159.843 20.2022C159.843 20.7352 160.164 21.055 160.698 21.055H160.912C161.34 21.055 161.767 20.7352 161.767 20.2022C161.767 19.6693 161.34 19.3495 160.912 19.3495Z" fill="url(#paint50_linear_421_180)"/>
<path d="M164.333 19.3495H164.12C163.692 19.3495 163.264 19.6693 163.264 20.2022C163.264 20.7352 163.585 21.055 164.12 21.055H164.333C164.761 21.055 165.189 20.7352 165.189 20.2022C165.189 19.6693 164.761 19.3495 164.333 19.3495Z" fill="url(#paint51_linear_421_180)"/>
<path d="M157.597 19.3495H157.383C156.956 19.3495 156.528 19.6693 156.528 20.2022C156.528 20.7352 156.849 21.055 157.383 21.055H157.597C158.025 21.055 158.453 20.7352 158.453 20.2022C158.453 19.6693 158.025 19.3495 157.597 19.3495Z" fill="url(#paint52_linear_421_180)"/>
<path d="M147.44 25.6386C147.013 25.532 146.585 25.8518 146.478 26.2781V26.4913C146.478 26.9177 146.692 27.3441 147.226 27.3441H147.333C147.761 27.3441 148.082 27.0243 148.082 26.5979V26.3847C148.189 26.1715 147.868 25.7452 147.44 25.6386Z" fill="url(#paint53_linear_421_180)"/>
<path d="M147.868 22.8671L147.761 23.0803C147.547 23.4 147.654 23.933 147.975 24.1462C148.082 24.2528 148.296 24.2528 148.403 24.2528C148.617 24.2528 148.937 24.1462 149.044 23.933L149.151 23.7198C149.365 23.4 149.258 22.8671 148.937 22.6539C148.617 22.4407 148.189 22.5473 147.868 22.8671Z" fill="url(#paint54_linear_421_180)"/>
<path d="M150.648 20.4154L150.434 20.522C150.006 20.7352 149.899 21.2682 150.22 21.588C150.327 21.8012 150.648 22.0143 150.862 22.0143C150.969 22.0143 151.182 22.0143 151.289 21.9077L151.396 21.8012C151.824 21.588 151.931 21.055 151.717 20.7352C151.503 20.3088 150.969 20.2022 150.648 20.4154Z" fill="url(#paint55_linear_421_180)"/>
<path d="M154.176 19.3495H153.962C153.535 19.3495 153.214 19.7759 153.214 20.2022C153.214 20.6286 153.642 20.9484 153.962 20.9484C153.962 20.9484 153.962 20.9484 154.069 20.9484H154.283C154.711 20.9484 155.031 20.522 155.031 20.0956C154.925 19.6693 154.604 19.3495 154.176 19.3495Z" fill="url(#paint56_linear_421_180)"/>
<path d="M167.648 19.3495C167.113 19.3495 166.792 19.6693 166.792 20.2022C166.792 20.7352 167.22 21.055 167.648 21.055C168.076 21.055 168.503 20.7352 168.503 20.2022C168.503 19.6693 168.076 19.3495 167.648 19.3495Z" fill="url(#paint57_linear_421_180)"/>
<path d="M127.019 56.0178C126.591 56.0178 126.164 55.698 126.164 55.165C126.164 54.632 126.484 54.3123 126.912 54.3123H127.019C127.447 54.3123 127.874 54.632 127.874 55.165C127.874 55.698 127.447 56.0178 127.019 56.0178Z" fill="#6A83FF"/>
<path d="M144.66 54.4189H144.447C144.019 54.4189 143.591 54.7387 143.591 55.2717C143.591 55.8047 143.912 56.1244 144.447 56.1244H144.66C145.088 56.1244 145.516 55.8047 145.516 55.2717C145.516 54.7387 145.088 54.4189 144.66 54.4189Z" fill="url(#paint58_linear_421_180)"/>
<path d="M148.189 54.4189H147.975C147.547 54.4189 147.12 54.7387 147.12 55.2717C147.12 55.8047 147.44 56.1244 147.975 56.1244H148.189C148.616 56.1244 149.044 55.8047 149.044 55.2717C149.044 54.7387 148.616 54.4189 148.189 54.4189Z" fill="url(#paint59_linear_421_180)"/>
<path d="M141.132 54.4189H140.918C140.491 54.4189 140.063 54.7387 140.063 55.2717C140.063 55.8047 140.384 56.1244 140.918 56.1244H141.132C141.56 56.1244 141.988 55.8047 141.988 55.2717C141.988 54.7387 141.56 54.4189 141.132 54.4189Z" fill="url(#paint60_linear_421_180)"/>
<path d="M137.604 54.4189H137.39H137.283H137.176H134.182H133.969H130.654H130.44H127.019C126.591 54.4189 126.164 54.7387 126.164 55.2717C126.164 55.8047 126.484 56.1244 127.019 56.1244H130.44H130.654H133.969H134.182H137.176H137.283H137.39H137.604C138.031 56.1244 138.459 55.8047 138.459 55.2717C138.459 54.7387 138.031 54.4189 137.604 54.4189Z" fill="url(#paint61_linear_421_180)"/>
<path d="M151.61 54.4189H151.396C150.969 54.4189 150.541 54.7387 150.541 55.2717C150.541 55.8047 150.862 56.1244 151.396 56.1244H151.61C152.038 56.1244 152.466 55.8047 152.466 55.2717C152.466 54.7387 152.145 54.4189 151.61 54.4189Z" fill="url(#paint62_linear_421_180)"/>
<path d="M162.195 54.4189H161.981C161.553 54.4189 161.126 54.7387 161.126 55.2717C161.126 55.8047 161.446 56.1244 161.981 56.1244H162.195C162.623 56.1244 163.05 55.8047 163.05 55.2717C163.05 54.7387 162.623 54.4189 162.195 54.4189Z" fill="url(#paint63_linear_421_180)"/>
<path d="M165.723 54.4189H165.509C165.082 54.4189 164.654 54.7387 164.654 55.2717C164.654 55.8047 164.975 56.1244 165.509 56.1244H165.723C166.151 56.1244 166.579 55.8047 166.579 55.2717C166.579 54.7387 166.151 54.4189 165.723 54.4189Z" fill="url(#paint64_linear_421_180)"/>
<path d="M158.667 54.4189H158.453C158.025 54.4189 157.598 54.7387 157.598 55.2717C157.598 55.8047 157.918 56.1244 158.453 56.1244H158.667C159.095 56.1244 159.522 55.8047 159.522 55.2717C159.522 54.7387 159.095 54.4189 158.667 54.4189Z" fill="url(#paint65_linear_421_180)"/>
<path d="M155.138 54.4189H154.924C154.497 54.4189 154.069 54.7387 154.069 55.2717C154.069 55.8047 154.39 56.1244 154.924 56.1244H155.138C155.566 56.1244 155.993 55.8047 155.993 55.2717C155.993 54.7387 155.566 54.4189 155.138 54.4189Z" fill="url(#paint66_linear_421_180)"/>
<path d="M169.145 54.4189C168.61 54.4189 168.289 54.7387 168.289 55.2717C168.289 55.8047 168.717 56.1244 169.145 56.1244C169.572 56.1244 170 55.8047 170 55.2717C170 54.7387 169.572 54.4189 169.145 54.4189Z" fill="url(#paint67_linear_421_180)"/>
<path d="M144.126 64.9717L143.912 64.8651C143.485 64.652 143.057 64.7585 142.843 65.1849C142.629 65.6113 142.736 66.0377 143.164 66.2509L143.271 66.3575C143.378 66.464 143.591 66.464 143.698 66.464C144.019 66.464 144.233 66.3575 144.34 66.0377C144.554 65.7179 144.447 65.2915 144.126 64.9717Z" fill="url(#paint68_linear_421_180)"/>
<path d="M146.692 67.6365L146.585 67.4233C146.371 67.1036 145.837 66.997 145.516 67.2102C145.195 67.4233 145.088 67.9563 145.302 68.2761L145.409 68.3827C145.516 68.5959 145.837 68.7025 146.051 68.7025C146.158 68.7025 146.371 68.7025 146.478 68.5959C146.906 68.4893 147.013 67.9563 146.692 67.6365Z" fill="url(#paint69_linear_421_180)"/>
<path d="M147.226 71.9002C147.761 71.9002 148.082 71.4739 147.975 71.0475C147.975 70.9409 147.975 70.8343 147.975 70.8343C147.868 70.4079 147.44 70.0881 147.013 70.1947C146.585 70.3013 146.264 70.6211 146.371 71.1541V71.3673C146.478 71.687 146.799 71.9002 147.226 71.9002Z" fill="url(#paint70_linear_421_180)"/>
<path d="M137.176 63.7992H137.069H136.962H133.755H133.541H130.333H130.12H126.805C126.377 63.7992 125.95 64.119 125.95 64.6519C125.95 65.1849 126.27 65.5047 126.805 65.5047H130.12H130.333H133.541H133.755H136.962H137.069H137.176C137.604 65.5047 138.031 65.1849 138.031 64.6519C138.031 64.119 137.604 63.7992 137.176 63.7992Z" fill="url(#paint71_linear_421_180)"/>
<path d="M147.226 76.8036C146.799 76.8036 146.371 77.1234 146.371 77.6563V77.8695C146.371 78.2959 146.692 78.7223 147.226 78.7223C147.761 78.7223 148.082 78.4025 148.082 77.8695V77.6563C148.082 77.23 147.654 76.8036 147.226 76.8036Z" fill="url(#paint72_linear_421_180)"/>
<path d="M148.082 74.2453C148.082 73.819 147.761 73.3926 147.226 73.3926C146.692 73.3926 146.371 73.7124 146.371 74.2453V74.4585C146.371 74.8849 146.692 75.3113 147.226 75.3113C147.761 75.3113 148.082 74.9915 148.082 74.4585V74.2453Z" fill="url(#paint73_linear_421_180)"/>
<path d="M147.226 82.0267C147.654 82.0267 148.082 81.7069 148.082 81.174V80.9608C148.082 80.5344 147.761 80.108 147.226 80.108C146.692 80.108 146.371 80.4278 146.371 80.9608V81.174C146.478 81.7069 146.799 82.0267 147.226 82.0267Z" fill="url(#paint74_linear_421_180)"/>
<path d="M140.597 63.7992H140.383C139.956 63.7992 139.528 64.119 139.528 64.5454C139.528 64.9717 139.849 65.3981 140.277 65.3981H140.49H140.597C141.025 65.3981 141.346 65.0783 141.346 64.6519C141.346 64.2256 141.025 63.9058 140.597 63.7992Z" fill="url(#paint75_linear_421_180)"/>
<path d="M149.151 87.0365C148.937 86.7167 148.403 86.6101 148.082 86.8233C147.761 87.0365 147.654 87.5695 147.868 87.8893L147.975 88.1024C148.082 88.3156 148.403 88.4222 148.617 88.4222C148.723 88.4222 148.937 88.4222 149.044 88.3156C149.365 88.1024 149.472 87.5695 149.258 87.2497L149.151 87.0365Z" fill="url(#paint76_linear_421_180)"/>
<path d="M148.082 84.4784V84.2652C148.082 83.8388 147.654 83.519 147.226 83.519C146.799 83.519 146.478 83.9454 146.478 84.3718V84.585C146.585 85.0114 146.906 85.2245 147.226 85.2245H147.333C147.868 85.3311 148.189 84.9048 148.082 84.4784Z" fill="url(#paint77_linear_421_180)"/>
<path d="M164.333 90.1278H164.12C163.692 90.1278 163.264 90.4476 163.264 90.9806C163.264 91.5135 163.585 91.8333 164.12 91.8333H164.333C164.761 91.8333 165.189 91.5135 165.189 90.9806C165.189 90.4476 164.761 90.1278 164.333 90.1278Z" fill="url(#paint78_linear_421_180)"/>
<path d="M157.598 90.1278H157.384C156.956 90.1278 156.529 90.4476 156.529 90.9806C156.529 91.5135 156.849 91.8333 157.384 91.8333H157.598C158.025 91.8333 158.453 91.5135 158.453 90.9806C158.453 90.4476 158.025 90.1278 157.598 90.1278Z" fill="url(#paint79_linear_421_180)"/>
<path d="M160.912 90.1278H160.698C160.27 90.1278 159.843 90.4476 159.843 90.9806C159.843 91.5135 160.164 91.8333 160.698 91.8333H160.912C161.34 91.8333 161.767 91.5135 161.767 90.9806C161.767 90.4476 161.34 90.1278 160.912 90.1278Z" fill="url(#paint80_linear_421_180)"/>
<path d="M154.283 90.0212H154.069C153.642 90.0212 153.214 90.341 153.214 90.7674C153.214 91.1938 153.535 91.6201 153.962 91.6201H154.176C154.604 91.6201 154.925 91.3004 154.925 90.874C155.031 90.4476 154.711 90.1278 154.283 90.0212Z" fill="url(#paint81_linear_421_180)"/>
<path d="M151.396 89.1684L151.289 89.0618C150.862 88.8487 150.434 88.9552 150.22 89.275C150.006 89.7014 150.113 90.1278 150.434 90.341L150.648 90.4476C150.755 90.5542 150.862 90.5541 151.075 90.5541C151.396 90.5541 151.61 90.4476 151.824 90.1278C151.931 89.9146 151.824 89.3816 151.396 89.1684Z" fill="url(#paint82_linear_421_180)"/>
<path d="M167.648 90.1278C167.113 90.1278 166.792 90.4476 166.792 90.9806C166.792 91.5135 167.22 91.8333 167.648 91.8333C168.076 91.8333 168.503 91.5135 168.503 90.9806C168.503 90.4476 168.076 90.1278 167.648 90.1278Z" fill="url(#paint83_linear_421_180)"/>
<path d="M120.818 6.2385L120.069 12.9539L115.258 13.7001L111.943 8.69016L119.855 4.85278L120.818 6.2385Z" fill="url(#paint84_linear_421_180)"/>
<path d="M120.069 12.9539L116.968 8.15716L119.214 4.10659L119.427 4L122.528 8.79672L120.069 12.9539Z" fill="url(#paint85_linear_421_180)"/>
<path d="M119.428 4L117.182 7.94397L116.969 8.15716V8.26375L114.189 8.47694H114.082L111.943 8.69013L113.44 6.13188L113.547 5.91869L114.402 4.53297L115.685 4.42638L115.792 4.31978H116.006H116.648L118.038 4.10659H118.358L119.428 4Z" fill="#89A7FF"/>
<g opacity="0.3">
<path opacity="0.3" d="M114.937 5.70617C115.044 5.70617 115.044 5.70617 115.044 5.59958V4.85342C115.044 4.74683 115.044 4.74683 114.937 4.74683C114.83 4.74683 114.83 4.74683 114.83 4.85342V5.59958C114.83 5.70617 114.83 5.70617 114.937 5.70617Z" fill="white"/>
<path opacity="0.3" d="M116.969 4.63955L116.327 5.06593C116.327 5.06593 116.22 5.17252 116.327 5.17252H116.434C116.434 5.17252 116.434 5.17252 116.541 5.17252L117.182 4.63955C117.182 4.63955 117.289 4.53296 117.182 4.53296C117.075 4.63955 117.075 4.53296 116.969 4.63955Z" fill="white"/>
<path opacity="0.3" d="M115.365 6.45166L114.51 6.87804C114.403 6.87804 114.403 6.98463 114.403 6.98463L114.51 7.09122L115.365 6.66485C115.472 6.66485 115.472 6.55825 115.472 6.55825C115.472 6.45166 115.365 6.45166 115.365 6.45166Z" fill="white"/>
<path opacity="0.3" d="M116.648 6.55822C116.648 6.45162 116.541 6.45162 116.541 6.55822C116.434 6.55822 116.434 6.66481 116.541 6.66481L116.755 7.09119L116.862 7.19778C116.862 7.19778 116.862 7.19778 116.969 7.19778C117.076 7.19778 117.076 7.09119 116.969 7.09119L116.648 6.55822Z" fill="white"/>
<path opacity="0.3" d="M113.44 7.41097C113.333 7.41097 113.333 7.51757 113.333 7.51757V8.05054C113.333 8.15713 113.44 8.15713 113.44 8.15713C113.547 8.15713 113.547 8.05054 113.547 8.05054V7.51757C113.547 7.41097 113.44 7.30438 113.44 7.41097Z" fill="white"/>
<path opacity="0.3" d="M118.038 4.63955C118.038 4.53296 117.931 4.53296 117.931 4.53296C117.824 4.53296 117.824 4.63955 117.824 4.63955L117.931 5.38571C117.931 5.4923 118.038 5.4923 118.038 5.4923C118.144 5.4923 118.144 5.38571 118.144 5.38571L118.038 4.63955Z" fill="white"/>
</g>
<path d="M40.7359 25.1056L38.063 20.4155L40.8429 17.644L45.3334 19.4561L41.912 25.532L40.7359 25.1056Z" fill="url(#paint86_linear_421_180)"/>
<path d="M38.063 20.4155L42.3397 22.121L42.6605 25.7452L42.5536 25.9584L38.3837 24.2529L38.063 20.4155Z" fill="url(#paint87_linear_421_180)"/>
<path d="M42.5537 25.9583L42.2329 22.3341V22.0143L43.9436 20.6286L44.0505 20.522L45.3335 19.4561L45.5474 21.8011V21.9077L45.6543 23.2934L44.9059 23.933L44.7989 24.0396L44.692 24.1462L44.2644 24.466L43.409 25.2121L43.3021 25.3187L42.5537 25.9583Z" fill="#F665AA"/>
<g opacity="0.3">
<path opacity="0.3" d="M44.7988 22.6539V22.7605L45.1196 23.2935H45.2265V23.1869L44.9057 22.6539H44.7988Z" fill="white"/>
<path opacity="0.3" d="M43.9436 24.3594L44.1574 23.7199C44.1574 23.7199 44.1574 23.6133 44.0505 23.6133H43.9436L43.7297 24.2528C43.7297 24.2528 43.7297 24.3594 43.8367 24.3594C43.8367 24.466 43.9436 24.466 43.9436 24.3594Z" fill="white"/>
<path opacity="0.3" d="M44.1572 22.4407L44.478 21.8012V21.6946H44.371L44.0503 22.3341V22.4407C44.0503 22.4407 44.1572 22.4407 44.1572 22.4407Z" fill="white"/>
<path opacity="0.3" d="M43.3019 22.9747H43.4089V22.8678L42.9812 22.6539H42.8743V22.7608L43.3019 22.9747Z" fill="white"/>
<path opacity="0.3" d="M45.0126 20.9498V20.8428L44.7988 20.5221H44.6919V20.629L44.9057 20.9498C44.9057 20.9498 44.9057 20.9498 45.0126 20.9498Z" fill="white"/>
<path opacity="0.3" d="M43.3019 24.7858H43.4089V24.6792L42.9812 24.2528H42.8743V24.3594L43.3019 24.7858Z" fill="white"/>
</g>
<path d="M101.572 84.1585L107.132 82.8794L109.056 86.397L105.956 90.341L100.824 85.1179L101.572 84.1585Z" fill="url(#paint88_linear_421_180)"/>
<path d="M107.132 82.8794L104.138 86.6102L100.396 85.864L100.289 85.7574L103.176 82.0266L107.132 82.8794Z" fill="url(#paint89_linear_421_180)"/>
<path d="M100.182 85.7574L103.924 86.5036H104.245L105.207 88.6355V88.7421L105.956 90.341L103.604 89.9146L103.39 89.808L102 89.5948L101.572 88.6355L101.465 88.5289V88.3157L101.251 87.8893L100.717 86.7168L100.61 86.5036L100.182 85.7574Z" fill="#F665AA"/>
<g opacity="0.3">
<path opacity="0.3" d="M102.856 88.849L102.749 88.7421L102.107 88.9559L102 89.0628L102.107 89.1697L102.749 88.9559C102.856 88.9559 102.856 88.849 102.856 88.849Z" fill="white"/>
<path opacity="0.3" d="M101.359 87.4633L101.893 87.7841H102V87.6771L101.466 87.3564H101.359C101.359 87.4633 101.359 87.4633 101.359 87.4633Z" fill="white"/>
<path opacity="0.3" d="M103.283 88.3156L103.818 88.8486H103.924V88.742L103.39 88.209H103.283C103.283 88.209 103.283 88.209 103.283 88.3156Z" fill="white"/>
<path opacity="0.3" d="M102.962 87.2507V87.3576H103.069L103.39 87.0368V86.9299H103.283L102.962 87.2507Z" fill="white"/>
<path opacity="0.3" d="M104.566 89.5956C104.566 89.5956 104.673 89.7025 104.673 89.5956L104.994 89.4887C104.994 89.4887 105.101 89.3817 104.994 89.3817C104.994 89.3817 104.887 89.2748 104.887 89.3817L104.566 89.4887C104.566 89.4887 104.459 89.4887 104.566 89.5956Z" fill="white"/>
<path opacity="0.3" d="M101.145 86.7168C101.145 86.7168 101.038 86.8234 101.145 86.8234C101.145 86.8234 101.252 86.9299 101.252 86.8234L101.786 86.5036C101.786 86.5036 101.893 86.397 101.786 86.397C101.786 86.397 101.679 86.2904 101.679 86.397L101.145 86.7168Z" fill="white"/>
</g>
<path d="M37.2775 19.8898C38.705 19.4251 39.486 17.8892 39.0221 16.4594C38.5581 15.0296 37.0248 14.2473 35.5973 14.712C34.1699 15.1767 33.3888 16.7126 33.8528 18.1424C34.3167 19.5722 35.85 20.3545 37.2775 19.8898Z" fill="#2A2E37"/>
<path d="M54.1706 3.7023C55.1913 3.7023 56.0187 2.87351 56.0187 1.85115C56.0187 0.828788 55.1913 0 54.1706 0C53.1499 0 52.3225 0.828788 52.3225 1.85115C52.3225 2.87351 53.1499 3.7023 54.1706 3.7023Z" fill="url(#paint90_linear_421_180)"/>
<path d="M36.7763 91.6863C37.797 91.6863 38.6245 90.8575 38.6245 89.8352C38.6245 88.8128 37.797 87.984 36.7763 87.984C35.7557 87.984 34.9282 88.8128 34.9282 89.8352C34.9282 90.8575 35.7557 91.6863 36.7763 91.6863Z" fill="url(#paint91_linear_421_180)"/>
<path d="M59.9327 84.9351L51.127 108.129H58.8456L69.282 89.1818L59.9327 84.9351Z" fill="#353B4A"/>
<path d="M106.788 84.9351L115.594 108.129H107.875L97.4385 89.1818L106.788 84.9351Z" fill="#353B4A"/>
<path d="M87.328 93.973C110.564 93.973 129.4 75.1059 129.4 51.8321C129.4 28.5584 110.564 9.69128 87.328 9.69128C64.0923 9.69128 45.2561 28.5584 45.2561 51.8321C45.2561 75.1059 64.0923 93.973 87.328 93.973Z" fill="#353B4A"/>
<path d="M83.4146 93.973C106.65 93.973 125.487 75.1059 125.487 51.8321C125.487 28.5584 106.65 9.69128 83.4146 9.69128C60.179 9.69128 41.3428 28.5584 41.3428 51.8321C41.3428 75.1059 60.179 93.973 83.4146 93.973Z" fill="#69738D"/>
<path d="M83.4146 83.6284C100.946 83.6284 115.159 69.3928 115.159 51.8322C115.159 34.2717 100.946 20.036 83.4146 20.036C65.8828 20.036 51.6704 34.2717 51.6704 51.8322C51.6704 69.3928 65.8828 83.6284 83.4146 83.6284Z" fill="#2A2E39"/>
<path d="M83.4146 74.1549C95.7228 74.1549 105.701 64.1607 105.701 51.8322C105.701 39.5037 95.7228 29.5095 83.4146 29.5095C71.1063 29.5095 61.1284 39.5037 61.1284 51.8322C61.1284 64.1607 71.1063 74.1549 83.4146 74.1549Z" fill="#69738D"/>
<path d="M83.4144 64.1369C90.199 64.1369 95.699 58.6279 95.699 51.8322C95.699 45.0365 90.199 39.5275 83.4144 39.5275C76.6299 39.5275 71.1299 45.0365 71.1299 51.8322C71.1299 58.6279 76.6299 64.1369 83.4144 64.1369Z" fill="#2A2E39"/>
<path d="M143.206 81.6683C143.206 83.3017 142.989 84.9351 142.663 86.4595C142.445 87.4396 142.119 88.3107 141.793 89.1818C139.728 94.6264 135.379 98.982 129.943 101.051C129.509 101.16 129.182 101.378 128.748 101.487C126.682 102.14 124.617 102.467 122.334 102.467C110.81 102.467 101.461 93.1019 101.461 81.5594C101.461 70.017 110.81 60.6523 122.334 60.6523C133.857 60.7612 143.206 70.1259 143.206 81.6683Z" fill="url(#paint92_linear_421_180)"/>
<path d="M142.663 87.004C142.445 87.8752 142.119 88.7463 141.793 89.6174C139.727 94.8442 135.596 98.9821 130.378 101.051L118.637 89.2907L117.006 87.6574L128.53 77.3127L132.335 75.1349L142.554 85.3707L142.663 87.004Z" fill="url(#paint93_linear_421_180)"/>
<path d="M120.159 89.8352C119.507 89.8352 118.855 89.6174 118.42 89.073L113.636 84.2818C112.658 83.3018 112.658 81.7773 113.636 80.7973C114.615 79.8172 116.137 79.8172 117.115 80.7973L120.159 83.8462L128.856 75.1349C129.835 74.1549 131.357 74.1549 132.335 75.1349C133.313 76.1149 133.313 77.6394 132.335 78.6194L121.899 89.073C121.464 89.6174 120.811 89.8352 120.159 89.8352Z" fill="url(#paint94_linear_421_180)"/>
<path d="M62.1066 44.4276L83.7404 50.0899C84.7188 50.3077 85.2624 51.3966 85.045 52.3766C84.8275 53.3567 83.7404 53.9011 82.762 53.6833L35.2545 41.2697C34.2761 41.052 33.7325 39.963 33.9499 38.983C34.1674 38.003 35.2545 37.4585 36.2329 37.6763L52.5398 41.9231" fill="#B5BED7"/>
<path d="M55.5838 39.3097L55.0402 38.2207C54.3879 36.9141 53.0834 35.8251 51.6701 35.4985L36.8852 31.6873C35.798 31.4695 34.9283 32.4495 35.4719 33.4295L38.842 40.2897L32.5366 44.5364C31.6669 45.1898 31.8844 46.4965 32.9715 46.8231L47.7564 50.6343C49.1697 51.0699 50.8004 50.7432 51.9962 49.8721L57.1057 46.3876C57.9755 45.8431 58.1929 44.7542 57.758 43.8831L55.5838 39.3097Z" fill="url(#paint95_linear_421_180)"/>
<path d="M34.1672 109H132.009" stroke="#2B323C" stroke-width="2" stroke-miterlimit="10" stroke-linecap="round" stroke-linejoin="round"/>
<defs>
<linearGradient id="paint0_linear_421_180" x1="-0.327512" y1="20.1325" x2="43.0226" y2="20.1325" gradientUnits="userSpaceOnUse">
<stop stop-color="#83A6FF" stop-opacity="0"/>
<stop offset="1" stop-color="#5A78FF"/>
</linearGradient>
<linearGradient id="paint1_linear_421_180" x1="-0.327513" y1="20.1325" x2="43.0226" y2="20.1325" gradientUnits="userSpaceOnUse">
<stop stop-color="#83A6FF" stop-opacity="0"/>
<stop offset="1" stop-color="#5A78FF"/>
</linearGradient>
<linearGradient id="paint2_linear_421_180" x1="-0.327749" y1="20.157" x2="43.0223" y2="20.157" gradientUnits="userSpaceOnUse">
<stop stop-color="#83A6FF" stop-opacity="0"/>
<stop offset="1" stop-color="#5A78FF"/>
</linearGradient>
<linearGradient id="paint3_linear_421_180" x1="-0.327507" y1="29.9084" x2="43.0226" y2="29.9084" gradientUnits="userSpaceOnUse">
<stop stop-color="#83A6FF" stop-opacity="0"/>
<stop offset="1" stop-color="#5A78FF"/>
</linearGradient>
<linearGradient id="paint4_linear_421_180" x1="-0.32774" y1="23.4442" x2="43.0224" y2="23.4442" gradientUnits="userSpaceOnUse">
<stop stop-color="#83A6FF" stop-opacity="0"/>
<stop offset="1" stop-color="#5A78FF"/>
</linearGradient>
<linearGradient id="paint5_linear_421_180" x1="-0.327507" y1="33.2645" x2="43.0226" y2="33.2645" gradientUnits="userSpaceOnUse">
<stop stop-color="#83A6FF" stop-opacity="0"/>
<stop offset="1" stop-color="#5A78FF"/>
</linearGradient>
<linearGradient id="paint6_linear_421_180" x1="-0.327502" y1="20.1325" x2="43.0226" y2="20.1325" gradientUnits="userSpaceOnUse">
<stop stop-color="#83A6FF" stop-opacity="0"/>
<stop offset="1" stop-color="#5A78FF"/>
</linearGradient>
<linearGradient id="paint7_linear_421_180" x1="-0.327532" y1="21.1588" x2="43.0226" y2="21.1588" gradientUnits="userSpaceOnUse">
<stop stop-color="#83A6FF" stop-opacity="0"/>
<stop offset="1" stop-color="#5A78FF"/>
</linearGradient>
<linearGradient id="paint8_linear_421_180" x1="-0.327614" y1="43.0896" x2="43.0225" y2="43.0896" gradientUnits="userSpaceOnUse">
<stop stop-color="#83A6FF" stop-opacity="0"/>
<stop offset="1" stop-color="#5A78FF"/>
</linearGradient>
<linearGradient id="paint9_linear_421_180" x1="-0.327511" y1="45.3853" x2="43.0226" y2="45.3853" gradientUnits="userSpaceOnUse">
<stop stop-color="#83A6FF" stop-opacity="0"/>
<stop offset="1" stop-color="#5A78FF"/>
</linearGradient>
<linearGradient id="paint10_linear_421_180" x1="-0.327491" y1="46.3996" x2="43.0226" y2="46.3996" gradientUnits="userSpaceOnUse">
<stop stop-color="#83A6FF" stop-opacity="0"/>
<stop offset="1" stop-color="#5A78FF"/>
</linearGradient>
<linearGradient id="paint11_linear_421_180" x1="-0.327778" y1="26.5557" x2="43.0223" y2="26.5557" gradientUnits="userSpaceOnUse">
<stop stop-color="#83A6FF" stop-opacity="0"/>
<stop offset="1" stop-color="#5A78FF"/>
</linearGradient>
<linearGradient id="paint12_linear_421_180" x1="-0.327731" y1="39.9743" x2="43.0224" y2="39.9743" gradientUnits="userSpaceOnUse">
<stop stop-color="#83A6FF" stop-opacity="0"/>
<stop offset="1" stop-color="#5A78FF"/>
</linearGradient>
<linearGradient id="paint13_linear_421_180" x1="-0.327507" y1="36.6211" x2="43.0226" y2="36.6211" gradientUnits="userSpaceOnUse">
<stop stop-color="#83A6FF" stop-opacity="0"/>
<stop offset="1" stop-color="#5A78FF"/>
</linearGradient>
<linearGradient id="paint14_linear_421_180" x1="-0.327734" y1="20.1326" x2="43.0224" y2="20.1326" gradientUnits="userSpaceOnUse">
<stop stop-color="#83A6FF" stop-opacity="0"/>
<stop offset="1" stop-color="#5A78FF"/>
</linearGradient>
<linearGradient id="paint15_linear_421_180" x1="-0.327518" y1="46.4261" x2="43.0226" y2="46.4261" gradientUnits="userSpaceOnUse">
<stop stop-color="#83A6FF" stop-opacity="0"/>
<stop offset="1" stop-color="#5A78FF"/>
</linearGradient>
<linearGradient id="paint16_linear_421_180" x1="0.422155" y1="55.269" x2="43.3511" y2="55.269" gradientUnits="userSpaceOnUse">
<stop stop-color="#FF66A9" stop-opacity="0"/>
<stop offset="1" stop-color="#F53689"/>
</linearGradient>
<linearGradient id="paint17_linear_421_180" x1="0.422165" y1="55.269" x2="43.3511" y2="55.269" gradientUnits="userSpaceOnUse">
<stop stop-color="#FF66A9" stop-opacity="0"/>
<stop offset="1" stop-color="#F53689"/>
</linearGradient>
<linearGradient id="paint18_linear_421_180" x1="0.422137" y1="55.269" x2="43.3511" y2="55.269" gradientUnits="userSpaceOnUse">
<stop stop-color="#FF66A9" stop-opacity="0"/>
<stop offset="1" stop-color="#F53689"/>
</linearGradient>
<linearGradient id="paint19_linear_421_180" x1="0.422121" y1="55.269" x2="43.3511" y2="55.269" gradientUnits="userSpaceOnUse">
<stop stop-color="#FF66A9" stop-opacity="0"/>
<stop offset="1" stop-color="#F53689"/>
</linearGradient>
<linearGradient id="paint20_linear_421_180" x1="0.422101" y1="55.269" x2="43.3511" y2="55.269" gradientUnits="userSpaceOnUse">
<stop stop-color="#FF66A9" stop-opacity="0"/>
<stop offset="1" stop-color="#F53689"/>
</linearGradient>
<linearGradient id="paint21_linear_421_180" x1="0.422243" y1="55.269" x2="43.3512" y2="55.269" gradientUnits="userSpaceOnUse">
<stop stop-color="#FF66A9" stop-opacity="0"/>
<stop offset="1" stop-color="#F53689"/>
</linearGradient>
<linearGradient id="paint22_linear_421_180" x1="0.422203" y1="55.269" x2="43.3511" y2="55.269" gradientUnits="userSpaceOnUse">
<stop stop-color="#FF66A9" stop-opacity="0"/>
<stop offset="1" stop-color="#F53689"/>
</linearGradient>
<linearGradient id="paint23_linear_421_180" x1="0.422197" y1="55.269" x2="43.3512" y2="55.269" gradientUnits="userSpaceOnUse">
<stop stop-color="#FF66A9" stop-opacity="0"/>
<stop offset="1" stop-color="#F53689"/>
</linearGradient>
<linearGradient id="paint24_linear_421_180" x1="0.422113" y1="55.269" x2="43.3511" y2="55.269" gradientUnits="userSpaceOnUse">
<stop stop-color="#FF66A9" stop-opacity="0"/>
<stop offset="1" stop-color="#F53689"/>
</linearGradient>
<linearGradient id="paint25_linear_421_180" x1="0.422248" y1="55.269" x2="43.3512" y2="55.269" gradientUnits="userSpaceOnUse">
<stop stop-color="#FF66A9" stop-opacity="0"/>
<stop offset="1" stop-color="#F53689"/>
</linearGradient>
<linearGradient id="paint26_linear_421_180" x1="-0.327534" y1="89.8624" x2="43.0226" y2="89.8624" gradientUnits="userSpaceOnUse">
<stop stop-color="#83A6FF" stop-opacity="0"/>
<stop offset="1" stop-color="#5A78FF"/>
</linearGradient>
<linearGradient id="paint27_linear_421_180" x1="-0.327527" y1="90.8638" x2="43.0226" y2="90.8638" gradientUnits="userSpaceOnUse">
<stop stop-color="#83A6FF" stop-opacity="0"/>
<stop offset="1" stop-color="#5A78FF"/>
</linearGradient>
<linearGradient id="paint28_linear_421_180" x1="-0.327755" y1="84.4651" x2="43.0223" y2="84.4651" gradientUnits="userSpaceOnUse">
<stop stop-color="#83A6FF" stop-opacity="0"/>
<stop offset="1" stop-color="#5A78FF"/>
</linearGradient>
<linearGradient id="paint29_linear_421_180" x1="-0.327512" y1="90.8884" x2="43.0226" y2="90.8884" gradientUnits="userSpaceOnUse">
<stop stop-color="#83A6FF" stop-opacity="0"/>
<stop offset="1" stop-color="#5A78FF"/>
</linearGradient>
<linearGradient id="paint30_linear_421_180" x1="-0.327507" y1="81.1125" x2="43.0226" y2="81.1125" gradientUnits="userSpaceOnUse">
<stop stop-color="#83A6FF" stop-opacity="0"/>
<stop offset="1" stop-color="#5A78FF"/>
</linearGradient>
<linearGradient id="paint31_linear_421_180" x1="-0.327502" y1="90.8884" x2="43.0226" y2="90.8884" gradientUnits="userSpaceOnUse">
<stop stop-color="#83A6FF" stop-opacity="0"/>
<stop offset="1" stop-color="#5A78FF"/>
</linearGradient>
<linearGradient id="paint32_linear_421_180" x1="-0.327513" y1="90.8884" x2="43.0226" y2="90.8884" gradientUnits="userSpaceOnUse">
<stop stop-color="#83A6FF" stop-opacity="0"/>
<stop offset="1" stop-color="#5A78FF"/>
</linearGradient>
<linearGradient id="paint33_linear_421_180" x1="-0.327496" y1="87.5764" x2="43.0226" y2="87.5764" gradientUnits="userSpaceOnUse">
<stop stop-color="#83A6FF" stop-opacity="0"/>
<stop offset="1" stop-color="#5A78FF"/>
</linearGradient>
<linearGradient id="paint34_linear_421_180" x1="-0.327467" y1="65.6351" x2="43.0226" y2="65.6351" gradientUnits="userSpaceOnUse">
<stop stop-color="#83A6FF" stop-opacity="0"/>
<stop offset="1" stop-color="#5A78FF"/>
</linearGradient>
<linearGradient id="paint35_linear_421_180" x1="-0.32749" y1="64.622" x2="43.0226" y2="64.622" gradientUnits="userSpaceOnUse">
<stop stop-color="#83A6FF" stop-opacity="0"/>
<stop offset="1" stop-color="#5A78FF"/>
</linearGradient>
<linearGradient id="paint36_linear_421_180" x1="-0.32737" y1="67.9314" x2="43.0227" y2="67.9314" gradientUnits="userSpaceOnUse">
<stop stop-color="#83A6FF" stop-opacity="0"/>
<stop offset="1" stop-color="#5A78FF"/>
</linearGradient>
<linearGradient id="paint37_linear_421_180" x1="-0.327507" y1="77.7564" x2="43.0226" y2="77.7564" gradientUnits="userSpaceOnUse">
<stop stop-color="#83A6FF" stop-opacity="0"/>
<stop offset="1" stop-color="#5A78FF"/>
</linearGradient>
<linearGradient id="paint38_linear_421_180" x1="-0.327507" y1="74.4" x2="43.0226" y2="74.4" gradientUnits="userSpaceOnUse">
<stop stop-color="#83A6FF" stop-opacity="0"/>
<stop offset="1" stop-color="#5A78FF"/>
</linearGradient>
<linearGradient id="paint39_linear_421_180" x1="-0.327488" y1="71.0467" x2="43.0226" y2="71.0467" gradientUnits="userSpaceOnUse">
<stop stop-color="#83A6FF" stop-opacity="0"/>
<stop offset="1" stop-color="#5A78FF"/>
</linearGradient>
<linearGradient id="paint40_linear_421_180" x1="-0.32749" y1="90.8884" x2="43.0226" y2="90.8884" gradientUnits="userSpaceOnUse">
<stop stop-color="#83A6FF" stop-opacity="0"/>
<stop offset="1" stop-color="#5A78FF"/>
</linearGradient>
<linearGradient id="paint41_linear_421_180" x1="-0.327532" y1="64.5949" x2="43.0226" y2="64.5949" gradientUnits="userSpaceOnUse">
<stop stop-color="#83A6FF" stop-opacity="0"/>
<stop offset="1" stop-color="#5A78FF"/>
</linearGradient>
<linearGradient id="paint42_linear_421_180" x1="170.521" y1="29.9084" x2="132.602" y2="29.9084" gradientUnits="userSpaceOnUse">
<stop stop-color="#FF66A9" stop-opacity="0"/>
<stop offset="1" stop-color="#F53689"/>
</linearGradient>
<linearGradient id="paint43_linear_421_180" x1="170.521" y1="33.2651" x2="132.602" y2="33.2651" gradientUnits="userSpaceOnUse">
<stop stop-color="#FF66A9" stop-opacity="0"/>
<stop offset="1" stop-color="#F53689"/>
</linearGradient>
<linearGradient id="paint44_linear_421_180" x1="170.52" y1="39.9749" x2="132.602" y2="39.9749" gradientUnits="userSpaceOnUse">
<stop stop-color="#FF66A9" stop-opacity="0"/>
<stop offset="1" stop-color="#F53689"/>
</linearGradient>
<linearGradient id="paint45_linear_421_180" x1="170.521" y1="43.0902" x2="132.602" y2="43.0902" gradientUnits="userSpaceOnUse">
<stop stop-color="#FF66A9" stop-opacity="0"/>
<stop offset="1" stop-color="#F53689"/>
</linearGradient>
<linearGradient id="paint46_linear_421_180" x1="170.52" y1="46.3996" x2="132.602" y2="46.3996" gradientUnits="userSpaceOnUse">
<stop stop-color="#FF66A9" stop-opacity="0"/>
<stop offset="1" stop-color="#F53689"/>
</linearGradient>
<linearGradient id="paint47_linear_421_180" x1="170.52" y1="45.3853" x2="132.602" y2="45.3853" gradientUnits="userSpaceOnUse">
<stop stop-color="#FF66A9" stop-opacity="0"/>
<stop offset="1" stop-color="#F53689"/>
</linearGradient>
<linearGradient id="paint48_linear_421_180" x1="170.521" y1="46.4261" x2="132.602" y2="46.4261" gradientUnits="userSpaceOnUse">
<stop stop-color="#FF66A9" stop-opacity="0"/>
<stop offset="1" stop-color="#F53689"/>
</linearGradient>
<linearGradient id="paint49_linear_421_180" x1="170.521" y1="36.6211" x2="132.602" y2="36.6211" gradientUnits="userSpaceOnUse">
<stop stop-color="#FF66A9" stop-opacity="0"/>
<stop offset="1" stop-color="#F53689"/>
</linearGradient>
<linearGradient id="paint50_linear_421_180" x1="170.521" y1="20.1325" x2="132.602" y2="20.1325" gradientUnits="userSpaceOnUse">
<stop stop-color="#FF66A9" stop-opacity="0"/>
<stop offset="1" stop-color="#F53689"/>
</linearGradient>
<linearGradient id="paint51_linear_421_180" x1="170.52" y1="20.1325" x2="132.602" y2="20.1325" gradientUnits="userSpaceOnUse">
<stop stop-color="#FF66A9" stop-opacity="0"/>
<stop offset="1" stop-color="#F53689"/>
</linearGradient>
<linearGradient id="paint52_linear_421_180" x1="170.52" y1="20.1325" x2="132.602" y2="20.1325" gradientUnits="userSpaceOnUse">
<stop stop-color="#FF66A9" stop-opacity="0"/>
<stop offset="1" stop-color="#F53689"/>
</linearGradient>
<linearGradient id="paint53_linear_421_180" x1="170.521" y1="26.5558" x2="132.603" y2="26.5558" gradientUnits="userSpaceOnUse">
<stop stop-color="#FF66A9" stop-opacity="0"/>
<stop offset="1" stop-color="#F53689"/>
</linearGradient>
<linearGradient id="paint54_linear_421_180" x1="170.521" y1="23.4442" x2="132.603" y2="23.4442" gradientUnits="userSpaceOnUse">
<stop stop-color="#FF66A9" stop-opacity="0"/>
<stop offset="1" stop-color="#F53689"/>
</linearGradient>
<linearGradient id="paint55_linear_421_180" x1="170.521" y1="21.1588" x2="132.603" y2="21.1588" gradientUnits="userSpaceOnUse">
<stop stop-color="#FF66A9" stop-opacity="0"/>
<stop offset="1" stop-color="#F53689"/>
</linearGradient>
<linearGradient id="paint56_linear_421_180" x1="170.52" y1="20.1565" x2="132.603" y2="20.1565" gradientUnits="userSpaceOnUse">
<stop stop-color="#FF66A9" stop-opacity="0"/>
<stop offset="1" stop-color="#F53689"/>
</linearGradient>
<linearGradient id="paint57_linear_421_180" x1="170.521" y1="20.1325" x2="132.602" y2="20.1325" gradientUnits="userSpaceOnUse">
<stop stop-color="#FF66A9" stop-opacity="0"/>
<stop offset="1" stop-color="#F53689"/>
</linearGradient>
<linearGradient id="paint58_linear_421_180" x1="169.983" y1="55.269" x2="126.37" y2="55.269" gradientUnits="userSpaceOnUse">
<stop stop-color="#83A6FF" stop-opacity="0"/>
<stop offset="1" stop-color="#5A78FF"/>
</linearGradient>
<linearGradient id="paint59_linear_421_180" x1="169.982" y1="55.269" x2="126.37" y2="55.269" gradientUnits="userSpaceOnUse">
<stop stop-color="#83A6FF" stop-opacity="0"/>
<stop offset="1" stop-color="#5A78FF"/>
</linearGradient>
<linearGradient id="paint60_linear_421_180" x1="169.983" y1="55.269" x2="126.37" y2="55.269" gradientUnits="userSpaceOnUse">
<stop stop-color="#83A6FF" stop-opacity="0"/>
<stop offset="1" stop-color="#5A78FF"/>
</linearGradient>
<linearGradient id="paint61_linear_421_180" x1="169.983" y1="55.269" x2="126.369" y2="55.269" gradientUnits="userSpaceOnUse">
<stop stop-color="#83A6FF" stop-opacity="0"/>
<stop offset="1" stop-color="#5A78FF"/>
</linearGradient>
<linearGradient id="paint62_linear_421_180" x1="169.983" y1="55.269" x2="126.37" y2="55.269" gradientUnits="userSpaceOnUse">
<stop stop-color="#83A6FF" stop-opacity="0"/>
<stop offset="1" stop-color="#5A78FF"/>
</linearGradient>
<linearGradient id="paint63_linear_421_180" x1="169.982" y1="55.269" x2="126.369" y2="55.269" gradientUnits="userSpaceOnUse">
<stop stop-color="#83A6FF" stop-opacity="0"/>
<stop offset="1" stop-color="#5A78FF"/>
</linearGradient>
<linearGradient id="paint64_linear_421_180" x1="169.982" y1="55.269" x2="126.369" y2="55.269" gradientUnits="userSpaceOnUse">
<stop stop-color="#83A6FF" stop-opacity="0"/>
<stop offset="1" stop-color="#5A78FF"/>
</linearGradient>
<linearGradient id="paint65_linear_421_180" x1="169.983" y1="55.269" x2="126.37" y2="55.269" gradientUnits="userSpaceOnUse">
<stop stop-color="#83A6FF" stop-opacity="0"/>
<stop offset="1" stop-color="#5A78FF"/>
</linearGradient>
<linearGradient id="paint66_linear_421_180" x1="169.982" y1="55.269" x2="126.369" y2="55.269" gradientUnits="userSpaceOnUse">
<stop stop-color="#83A6FF" stop-opacity="0"/>
<stop offset="1" stop-color="#5A78FF"/>
</linearGradient>
<linearGradient id="paint67_linear_421_180" x1="169.982" y1="55.269" x2="126.369" y2="55.269" gradientUnits="userSpaceOnUse">
<stop stop-color="#83A6FF" stop-opacity="0"/>
<stop offset="1" stop-color="#5A78FF"/>
</linearGradient>
<linearGradient id="paint68_linear_421_180" x1="169.983" y1="65.6352" x2="126.37" y2="65.6352" gradientUnits="userSpaceOnUse">
<stop stop-color="#83A6FF" stop-opacity="0"/>
<stop offset="1" stop-color="#5A78FF"/>
</linearGradient>
<linearGradient id="paint69_linear_421_180" x1="169.983" y1="67.9308" x2="126.37" y2="67.9308" gradientUnits="userSpaceOnUse">
<stop stop-color="#83A6FF" stop-opacity="0"/>
<stop offset="1" stop-color="#5A78FF"/>
</linearGradient>
<linearGradient id="paint70_linear_421_180" x1="169.982" y1="71.0464" x2="126.369" y2="71.0464" gradientUnits="userSpaceOnUse">
<stop stop-color="#83A6FF" stop-opacity="0"/>
<stop offset="1" stop-color="#5A78FF"/>
</linearGradient>
<linearGradient id="paint71_linear_421_180" x1="169.983" y1="64.5949" x2="126.369" y2="64.5949" gradientUnits="userSpaceOnUse">
<stop stop-color="#83A6FF" stop-opacity="0"/>
<stop offset="1" stop-color="#5A78FF"/>
</linearGradient>
<linearGradient id="paint72_linear_421_180" x1="169.983" y1="77.7559" x2="126.369" y2="77.7559" gradientUnits="userSpaceOnUse">
<stop stop-color="#83A6FF" stop-opacity="0"/>
<stop offset="1" stop-color="#5A78FF"/>
</linearGradient>
<linearGradient id="paint73_linear_421_180" x1="169.983" y1="74.3999" x2="126.369" y2="74.3999" gradientUnits="userSpaceOnUse">
<stop stop-color="#83A6FF" stop-opacity="0"/>
<stop offset="1" stop-color="#5A78FF"/>
</linearGradient>
<linearGradient id="paint74_linear_421_180" x1="169.983" y1="81.1126" x2="126.369" y2="81.1126" gradientUnits="userSpaceOnUse">
<stop stop-color="#83A6FF" stop-opacity="0"/>
<stop offset="1" stop-color="#5A78FF"/>
</linearGradient>
<linearGradient id="paint75_linear_421_180" x1="169.982" y1="64.6219" x2="126.369" y2="64.6219" gradientUnits="userSpaceOnUse">
<stop stop-color="#83A6FF" stop-opacity="0"/>
<stop offset="1" stop-color="#5A78FF"/>
</linearGradient>
<linearGradient id="paint76_linear_421_180" x1="169.983" y1="87.5764" x2="126.37" y2="87.5764" gradientUnits="userSpaceOnUse">
<stop stop-color="#83A6FF" stop-opacity="0"/>
<stop offset="1" stop-color="#5A78FF"/>
</linearGradient>
<linearGradient id="paint77_linear_421_180" x1="169.983" y1="84.4651" x2="126.369" y2="84.4651" gradientUnits="userSpaceOnUse">
<stop stop-color="#83A6FF" stop-opacity="0"/>
<stop offset="1" stop-color="#5A78FF"/>
</linearGradient>
<linearGradient id="paint78_linear_421_180" x1="169.982" y1="90.8884" x2="126.369" y2="90.8884" gradientUnits="userSpaceOnUse">
<stop stop-color="#83A6FF" stop-opacity="0"/>
<stop offset="1" stop-color="#5A78FF"/>
</linearGradient>
<linearGradient id="paint79_linear_421_180" x1="169.983" y1="90.8884" x2="126.37" y2="90.8884" gradientUnits="userSpaceOnUse">
<stop stop-color="#83A6FF" stop-opacity="0"/>
<stop offset="1" stop-color="#5A78FF"/>
</linearGradient>
<linearGradient id="paint80_linear_421_180" x1="169.982" y1="90.8884" x2="126.369" y2="90.8884" gradientUnits="userSpaceOnUse">
<stop stop-color="#83A6FF" stop-opacity="0"/>
<stop offset="1" stop-color="#5A78FF"/>
</linearGradient>
<linearGradient id="paint81_linear_421_180" x1="169.982" y1="90.8638" x2="126.37" y2="90.8638" gradientUnits="userSpaceOnUse">
<stop stop-color="#83A6FF" stop-opacity="0"/>
<stop offset="1" stop-color="#5A78FF"/>
</linearGradient>
<linearGradient id="paint82_linear_421_180" x1="169.982" y1="89.8624" x2="126.369" y2="89.8624" gradientUnits="userSpaceOnUse">
<stop stop-color="#83A6FF" stop-opacity="0"/>
<stop offset="1" stop-color="#5A78FF"/>
</linearGradient>
<linearGradient id="paint83_linear_421_180" x1="169.983" y1="90.8884" x2="126.369" y2="90.8884" gradientUnits="userSpaceOnUse">
<stop stop-color="#83A6FF" stop-opacity="0"/>
<stop offset="1" stop-color="#5A78FF"/>
</linearGradient>
<linearGradient id="paint84_linear_421_180" x1="114.146" y1="12.032" x2="121.48" y2="7.27311" gradientUnits="userSpaceOnUse">
<stop stop-color="#83A6FF"/>
<stop offset="1" stop-color="#5A78FF"/>
</linearGradient>
<linearGradient id="paint85_linear_421_180" x1="118.893" y1="11.1836" x2="120.504" y2="6.01244" gradientUnits="userSpaceOnUse">
<stop stop-color="#83A6FF"/>
<stop offset="1" stop-color="#5A78FF"/>
</linearGradient>
<linearGradient id="paint86_linear_421_180" x1="42.3442" y1="18.2518" x2="39.7723" y2="24.7231" gradientUnits="userSpaceOnUse">
<stop stop-color="#FF66A9"/>
<stop offset="1" stop-color="#F53689"/>
</linearGradient>
<linearGradient id="paint87_linear_421_180" x1="39.6484" y1="20.9894" x2="40.9808" y2="25.1009" gradientUnits="userSpaceOnUse">
<stop stop-color="#FF66A9"/>
<stop offset="1" stop-color="#F53689"/>
</linearGradient>
<linearGradient id="paint88_linear_421_180" x1="108.032" y1="87.7588" x2="102.33" y2="83.2333" gradientUnits="userSpaceOnUse">
<stop stop-color="#FF66A9"/>
<stop offset="1" stop-color="#F53689"/>
</linearGradient>
<linearGradient id="paint89_linear_421_180" x1="106.09" y1="84.2533" x2="101.568" y2="84.363" gradientUnits="userSpaceOnUse">
<stop stop-color="#FF66A9"/>
<stop offset="1" stop-color="#F53689"/>
</linearGradient>
<linearGradient id="paint90_linear_421_180" x1="52.3737" y1="1.79964" x2="55.9671" y2="1.79964" gradientUnits="userSpaceOnUse">
<stop stop-color="#83A6FF"/>
<stop offset="1" stop-color="#5A78FF"/>
</linearGradient>
<linearGradient id="paint91_linear_421_180" x1="35.0164" y1="89.847" x2="38.6098" y2="89.847" gradientUnits="userSpaceOnUse">
<stop stop-color="#FF66A9"/>
<stop offset="1" stop-color="#F53689"/>
</linearGradient>
<linearGradient id="paint92_linear_421_180" x1="111.119" y1="64.5145" x2="134.147" y2="99.5269" gradientUnits="userSpaceOnUse">
<stop stop-color="#83A6FF"/>
<stop offset="1" stop-color="#5A78FF"/>
</linearGradient>
<linearGradient id="paint93_linear_421_180" x1="124.339" y1="81.032" x2="133.119" y2="89.7972" gradientUnits="userSpaceOnUse">
<stop stop-color="#4F6AFF"/>
<stop offset="1" stop-color="#657EFF" stop-opacity="0"/>
</linearGradient>
<linearGradient id="paint94_linear_421_180" x1="128.318" y1="85.0206" x2="119.683" y2="76.3989" gradientUnits="userSpaceOnUse">
<stop offset="0.0113208" stop-color="#C2D1FF"/>
<stop offset="1" stop-color="white"/>
</linearGradient>
<linearGradient id="paint95_linear_421_180" x1="31.9931" y1="41.2391" x2="58.0296" y2="41.2391" gradientUnits="userSpaceOnUse">
<stop stop-color="#FF66A9"/>
<stop offset="1" stop-color="#F53689"/>
</linearGradient>
</defs>
</svg>
