<svg width="120" height="102" viewBox="0 0 120 102" fill="none" xmlns="http://www.w3.org/2000/svg">
<path d="M90.341 3.21566H90.0371C89.9357 3.21566 89.8344 3.11453 89.7331 3.01341C89.7331 2.91229 89.6318 2.81117 89.6318 2.81117C89.5305 2.71005 89.6318 2.60893 89.6318 2.50781L89.8344 2.30556C89.9357 2.20444 89.9357 2.0022 89.8344 1.90108L89.4291 1.49659C89.3278 1.39547 89.1252 1.39547 89.0238 1.49659L88.8212 1.69884C88.7199 1.79996 88.6186 1.79996 88.5172 1.69884C88.4159 1.69884 88.3146 1.59771 88.3146 1.59771C88.2133 1.59771 88.1119 1.49659 88.1119 1.29435V0.990986C88.1119 0.788743 87.9093 0.687622 87.808 0.687622H87.2C86.9974 0.687622 86.8961 0.788743 86.8961 0.990986V1.29435C86.8961 1.39547 86.7948 1.49659 86.6934 1.59771C86.5921 1.59771 86.4908 1.69884 86.4908 1.69884C86.3895 1.79996 86.2882 1.69884 86.1868 1.69884L85.9842 1.49659C85.8829 1.39547 85.6802 1.39547 85.5789 1.49659L85.1736 1.90108C85.0723 2.0022 85.0723 2.20444 85.1736 2.30556L85.3763 2.50781C85.4776 2.60893 85.4776 2.71005 85.3763 2.81117C85.3763 2.91229 85.2749 3.01341 85.2749 3.01341C85.2749 3.11453 85.1736 3.21566 84.971 3.21566H84.667C84.4644 3.21566 84.363 3.4179 84.363 3.51902V4.12575C84.363 4.32799 84.4644 4.42911 84.667 4.42911H84.971C85.0723 4.42911 85.1736 4.53023 85.2749 4.63136C85.2749 4.73248 85.3763 4.8336 85.3763 4.8336C85.4776 4.93472 85.3763 5.03584 85.3763 5.13696L85.1736 5.33921C85.0723 5.44033 85.0723 5.64257 85.1736 5.74369L85.5789 6.14818C85.6802 6.2493 85.8829 6.2493 85.9842 6.14818L86.1868 5.94593C86.2882 5.84481 86.3895 5.84481 86.4908 5.94593C86.5921 5.94593 86.6934 6.04705 86.6934 6.04705C86.7948 6.04705 86.8961 6.14818 86.8961 6.35042V6.65378C86.8961 6.85603 87.0987 6.95715 87.2 6.95715H87.808C88.0106 6.95715 88.1119 6.85603 88.1119 6.65378V6.35042C88.1119 6.2493 88.2133 6.14818 88.3146 6.04705C88.4159 6.04705 88.5172 5.94593 88.5172 5.94593C88.6186 5.84481 88.7199 5.94593 88.8212 5.94593L89.0238 6.14818C89.1252 6.2493 89.3278 6.2493 89.4291 6.14818L89.8344 5.74369C89.9357 5.64257 89.9357 5.44033 89.8344 5.33921L89.6318 5.13696C89.5305 5.03584 89.5305 4.93472 89.6318 4.8336C89.6318 4.73248 89.7331 4.63136 89.7331 4.63136C89.7331 4.53023 89.8344 4.42911 90.0371 4.42911H90.341C90.5437 4.42911 90.645 4.22687 90.645 4.12575V3.51902C90.645 3.4179 90.5437 3.31678 90.341 3.21566ZM87.4027 5.03584C86.7948 5.03584 86.2882 4.53023 86.2882 3.92351C86.2882 3.31678 86.7948 2.81117 87.4027 2.81117C88.0106 2.81117 88.5172 3.31678 88.5172 3.92351C88.5172 4.53023 88.0106 5.03584 87.4027 5.03584Z" fill="url(#paint0_linear_108_2095)"/>
<path d="M117.144 28.314C117.144 28.314 117.042 28.314 117.144 28.314C117.346 28.5163 117.448 28.6174 117.448 28.9207C116.637 31.2465 116.434 31.3476 117.448 31.7521C117.549 31.7521 117.65 31.8533 117.549 31.9544C117.346 32.6622 117.245 33.0667 116.941 32.9656C113.091 31.651 117.042 29.0219 115.117 28.314C115.016 28.314 115.016 28.2129 115.016 28.2129L115.421 26.9994C115.421 26.8983 115.522 26.8983 115.522 26.8983C116.434 27.2017 116.536 26.4938 116.84 25.5837C117.245 24.3703 118.258 23.8647 119.474 24.2692C119.677 24.3703 119.981 24.3703 119.879 24.5725C119.474 25.786 119.575 25.6849 119.069 25.4826C117.853 25.2804 118.258 28.4151 117.144 28.314Z" fill="url(#paint1_linear_108_2095)"/>
<path d="M4.37247 54.8077C4.37247 54.7066 4.37247 54.7066 4.37247 54.8077C4.16982 54.9089 3.96717 54.9089 3.76453 54.8077C1.83942 53.2909 1.83942 52.9876 1.13017 53.7965C1.02885 53.8977 0.927525 53.8977 0.826203 53.7965C0.319594 53.392 -0.0856917 53.0887 0.01563 52.8864C2.54867 49.7517 3.66321 54.3021 4.9804 52.7853C4.9804 52.7853 5.08171 52.6842 5.18304 52.7853L6.09493 53.5943C6.09493 53.5943 6.19626 53.6954 6.09493 53.7965C5.487 54.6055 6.09493 54.9089 6.80418 55.5156C7.8174 56.3246 7.91872 57.4369 7.10815 58.4481C7.00683 58.6504 6.80419 58.8526 6.60154 58.7515C5.58832 57.9425 5.58833 58.0436 5.99361 57.6391C7.00683 56.5268 3.86586 55.819 4.37247 54.8077Z" fill="url(#paint2_linear_108_2095)"/>
<path d="M44.4959 4.95493C44.4959 4.95493 44.4959 5.05605 44.4959 4.95493C44.5972 5.15717 44.5972 5.25829 44.4959 5.46054C43.28 6.97736 43.0774 6.97736 43.6853 7.58408C43.7866 7.6852 43.7866 7.6852 43.6853 7.78633C43.28 8.19081 43.1787 8.5953 42.976 8.39305C40.443 6.37063 44.0906 5.46054 42.8747 4.44932V4.3482L43.4826 3.53923H43.584C44.1919 4.04484 44.4959 3.53923 45.0025 2.9325C45.7117 2.12353 46.5223 2.02241 47.3329 2.73026C47.4342 2.83138 47.6368 2.9325 47.5355 3.13474C46.9276 3.94371 47.0289 3.94371 46.6236 3.64035C45.9144 2.83138 45.3064 5.35941 44.4959 4.95493Z" fill="#69738D"/>
<path d="M116.333 44.7967C116.434 44.6956 116.637 44.5945 116.84 44.6956C118.562 45.6057 118.663 45.8079 119.069 45.1001C119.069 44.999 119.17 44.999 119.271 44.999C119.778 45.3023 120.082 45.4035 119.981 45.6057C118.461 48.4371 116.84 44.999 116.029 46.4147C116.029 46.4147 115.928 46.5158 115.928 46.4147L115.016 45.9091C115.016 45.9091 114.915 45.8079 115.016 45.8079C115.421 45.1001 114.915 44.999 114.205 44.5945C113.293 44.0889 112.989 43.2799 113.496 42.3698C113.597 42.1676 113.699 41.9653 113.8 42.0664C114.712 42.5721 114.712 42.4709 114.408 42.8754C114.003 43.7855 116.536 43.8866 116.333 44.7967Z" fill="#69738D"/>
<path d="M5.38575 41.1564C5.48707 41.0553 5.68971 40.9542 5.89236 41.0553C7.61483 41.9654 7.71615 42.1676 8.12143 41.4598C8.12143 41.3586 8.22275 41.3586 8.32407 41.3586C8.83068 41.662 9.13465 41.7631 9.03333 41.9654C7.5135 44.7968 5.89235 41.3586 5.08178 42.7743C5.08178 42.7743 4.98046 42.8755 4.98046 42.7743L4.06856 42.2687C4.06856 42.2687 3.96724 42.1676 4.06856 42.1676C4.47385 41.4598 3.96724 41.3586 3.25799 40.9542C2.3461 40.4486 2.04213 39.6396 2.54874 38.7295C2.65006 38.5272 2.75138 38.325 2.8527 38.4261C3.7646 38.9317 3.7646 38.8306 3.46064 39.2351C3.05535 40.1452 5.58839 40.2463 5.38575 41.1564Z" fill="#69738D"/>
<path d="M111.875 9.20201C112.077 9.20201 112.179 9.30313 112.28 9.40425C112.888 11.2244 112.787 11.4267 113.597 11.2244C113.699 11.2244 113.8 11.2244 113.8 11.3256C114.003 11.8312 114.205 12.2356 113.901 12.2356C110.862 13.2469 112.077 9.70761 110.456 10.2132C110.456 10.2132 110.355 10.2132 110.355 10.1121L110.051 9.20201C110.051 9.20201 110.051 9.10088 110.152 9.10088C110.862 8.89864 110.659 8.39303 110.355 7.58406C110.051 6.57285 110.456 5.76388 111.47 5.46051C111.672 5.35939 111.875 5.25827 111.875 5.46051C112.179 6.47173 112.28 6.37061 111.773 6.47173C110.862 6.87621 112.685 8.6964 111.875 9.20201Z" fill="#69738D"/>
<path d="M63.3418 1.4157C63.2405 1.51682 63.1391 1.61794 62.9365 1.61794C61.3153 1.11233 61.214 1.01121 61.0114 1.71906C61.0114 1.82018 60.9101 1.82018 60.8087 1.82018C60.3021 1.71906 59.9982 1.71906 60.0995 1.51682C60.9101 -1.21346 62.8352 1.4157 63.2405 0.101121L63.3418 0L64.1524 0.202243L64.2537 0.303363C64.051 1.01121 64.5576 1.01121 65.1656 1.21346C66.0775 1.4157 66.3814 2.12355 66.1788 3.03364C66.1788 3.23588 66.0775 3.337 65.9761 3.337C65.1656 3.13476 65.1656 3.23588 65.2669 2.8314C65.4695 1.82018 63.3418 2.22467 63.3418 1.4157Z" fill="#69738D"/>
<path d="M8.72948 88.9867C8.72948 88.9867 8.62816 88.9867 8.72948 88.9867C8.62816 89.0879 8.52683 89.189 8.32419 89.189C6.70304 88.6834 6.60173 88.5823 6.39908 89.2901C6.39908 89.3912 6.29776 89.3912 6.19644 89.3912C5.68983 89.2901 5.38587 89.2901 5.48719 89.0879C6.29776 86.3576 8.22287 88.9868 8.62816 87.6722L8.72948 87.571L9.54006 87.7733L9.64138 87.8744C9.43873 88.5823 9.94534 88.5823 10.5533 88.7845C11.4652 88.9867 11.7691 89.6946 11.5665 90.6047C11.5665 90.8069 11.4652 90.9081 11.3638 90.9081C10.5533 90.7058 10.5533 90.8069 10.6546 90.4024C10.8572 89.3912 8.62816 89.7957 8.72948 88.9867Z" fill="#69738D"/>
<path d="M83.3497 99.6855C75.6492 99.8877 66.429 99.6855 59.9444 99.5843C53.4598 99.7866 44.2395 99.8877 36.5391 99.6855C44.1382 95.3372 46.7726 87.3486 47.1778 82.0903H72.6096C73.2175 87.3486 75.8519 95.3372 83.3497 99.6855Z" fill="url(#paint3_linear_108_2095)"/>
<path d="M37.3497 101H82.5391C83.1471 101 83.755 100.494 83.755 99.7865C83.755 99.1798 83.2484 98.5731 82.5391 98.5731H37.3497C36.7417 98.5731 36.1338 99.0787 36.1338 99.7865C36.2351 100.494 36.7417 101 37.3497 101Z" fill="#262A31"/>
<path d="M108.072 15.148V81.2813C108.072 82.8993 106.755 84.1127 105.235 84.1127H15.1602C13.6404 84.1127 12.3232 82.7982 12.3232 81.2813V15.148C12.3232 13.6312 13.6404 12.3166 15.1602 12.3166H105.235C106.856 12.3166 108.072 13.53 108.072 15.148Z" fill="#353B4A"/>
<path d="M108.072 15.148V72.0793H12.3232V15.148C12.3232 13.6312 13.6404 12.3166 15.1602 12.3166H105.235C106.856 12.3166 108.072 13.53 108.072 15.148Z" fill="#262A31"/>
<path d="M104.425 15.8558H15.5654V68.8434H104.425V15.8558Z" fill="#474E61"/>
<path d="M60.0457 80.6746C61.3328 80.6746 62.3761 79.6333 62.3761 78.3488C62.3761 77.0643 61.3328 76.023 60.0457 76.023C58.7587 76.023 57.7153 77.0643 57.7153 78.3488C57.7153 79.6333 58.7587 80.6746 60.0457 80.6746Z" fill="#262A31"/>
<path d="M19.5172 60.7537H17.4907V62.7761H19.5172V60.7537Z" fill="#354157"/>
<path d="M19.5172 56.7088H17.4907V58.7312H19.5172V56.7088Z" fill="#354157"/>
<path d="M19.5172 52.7651H17.4907V54.7875H19.5172V52.7651Z" fill="#354157"/>
<path d="M19.5172 48.8214H17.4907V50.8438H19.5172V48.8214Z" fill="url(#paint4_linear_108_2095)"/>
<path d="M19.5172 44.7765H17.4907V46.7989H19.5172V44.7765Z" fill="#354157"/>
<path d="M19.5172 40.8328H17.4907V42.8552H19.5172V40.8328Z" fill="#6A7590"/>
<path d="M23.6715 64.6974H21.645V66.7198H23.6715V64.6974Z" fill="#354157"/>
<path d="M23.6715 60.7537H21.645V62.7761H23.6715V60.7537Z" fill="#354157"/>
<path d="M23.6715 52.7651H21.645V54.7875H23.6715V52.7651Z" fill="#354157"/>
<path d="M23.6715 48.8214H21.645V50.8438H23.6715V48.8214Z" fill="#354157"/>
<path d="M23.6715 44.7765H21.645V46.7989H23.6715V44.7765Z" fill="#354157"/>
<path d="M23.6715 40.8328H21.645V42.8552H23.6715V40.8328Z" fill="#354157"/>
<path d="M23.6715 36.889H21.645V38.9115H23.6715V36.889Z" fill="#354157"/>
<path d="M23.6715 32.8442H21.645V34.8666H23.6715V32.8442Z" fill="url(#paint5_linear_108_2095)"/>
<path d="M27.8255 64.6974H25.7991V66.7198H27.8255V64.6974Z" fill="#354157"/>
<path d="M27.8255 60.7537H25.7991V62.7761H27.8255V60.7537Z" fill="#354157"/>
<path d="M27.8255 56.7088H25.7991V58.7312H27.8255V56.7088Z" fill="#354157"/>
<path d="M27.8255 52.7651H25.7991V54.7875H27.8255V52.7651Z" fill="#354157"/>
<path d="M27.8255 48.8214H25.7991V50.8438H27.8255V48.8214Z" fill="url(#paint6_linear_108_2095)"/>
<path d="M27.8255 44.7765H25.7991V46.7989H27.8255V44.7765Z" fill="#6A7590"/>
<path d="M27.8255 40.8328H25.7991V42.8552H27.8255V40.8328Z" fill="#354157"/>
<path d="M27.8255 36.889H25.7991V38.9115H27.8255V36.889Z" fill="#6A7590"/>
<path d="M27.8255 32.8442H25.7991V34.8666H27.8255V32.8442Z" fill="#354157"/>
<path d="M27.8255 28.9005H25.7991V30.9229H27.8255V28.9005Z" fill="#6A7590"/>
<path d="M31.9798 64.6974H29.9534V66.7198H31.9798V64.6974Z" fill="#354157"/>
<path d="M31.9798 60.7537H29.9534V62.7761H31.9798V60.7537Z" fill="#354157"/>
<path d="M31.9798 56.7088H29.9534V58.7312H31.9798V56.7088Z" fill="#354157"/>
<path d="M31.9798 52.7651H29.9534V54.7875H31.9798V52.7651Z" fill="#354157"/>
<path d="M31.9798 48.8214H29.9534V50.8438H31.9798V48.8214Z" fill="#354157"/>
<path d="M31.9798 44.7765H29.9534V46.7989H31.9798V44.7765Z" fill="#6A7590"/>
<path d="M31.9798 40.8328H29.9534V42.8552H31.9798V40.8328Z" fill="#354157"/>
<path d="M31.9798 36.889H29.9534V38.9115H31.9798V36.889Z" fill="#354157"/>
<path d="M36.1339 64.6974H34.1074V66.7198H36.1339V64.6974Z" fill="#354157"/>
<path d="M36.1339 60.7537H34.1074V62.7761H36.1339V60.7537Z" fill="#354157"/>
<path d="M36.1339 56.7088H34.1074V58.7312H36.1339V56.7088Z" fill="#354157"/>
<path d="M36.1339 48.8214H34.1074V50.8438H36.1339V48.8214Z" fill="#354157"/>
<path d="M36.1339 44.7765H34.1074V46.7989H36.1339V44.7765Z" fill="url(#paint7_linear_108_2095)"/>
<path d="M36.1339 40.8328H34.1074V42.8552H36.1339V40.8328Z" fill="#6A7590"/>
<path d="M40.2882 64.6974H38.2617V66.7198H40.2882V64.6974Z" fill="#354157"/>
<path d="M40.2882 60.7537H38.2617V62.7761H40.2882V60.7537Z" fill="#354157"/>
<path d="M40.2882 56.7088H38.2617V58.7312H40.2882V56.7088Z" fill="#354157"/>
<path d="M40.2882 52.7651H38.2617V54.7875H40.2882V52.7651Z" fill="#354157"/>
<path d="M40.2882 48.8214H38.2617V50.8438H40.2882V48.8214Z" fill="#354157"/>
<path d="M40.2882 44.7765H38.2617V46.7989H40.2882V44.7765Z" fill="#354157"/>
<path d="M40.2882 40.8328H38.2617V42.8552H40.2882V40.8328Z" fill="#6A7590"/>
<path d="M40.2882 36.889H38.2617V38.9115H40.2882V36.889Z" fill="#354157"/>
<path d="M40.2882 32.8442H38.2617V34.8666H40.2882V32.8442Z" fill="#354157"/>
<path d="M44.4422 64.6974H42.4158V66.7198H44.4422V64.6974Z" fill="#354157"/>
<path d="M44.4422 60.7537H42.4158V62.7761H44.4422V60.7537Z" fill="#354157"/>
<path d="M44.4422 56.7088H42.4158V58.7312H44.4422V56.7088Z" fill="#354157"/>
<path d="M44.4422 48.8214H42.4158V50.8438H44.4422V48.8214Z" fill="#354157"/>
<path d="M44.4422 44.7765H42.4158V46.7989H44.4422V44.7765Z" fill="#6A7590"/>
<path d="M48.5965 64.6974H46.5701V66.7198H48.5965V64.6974Z" fill="url(#paint8_linear_108_2095)"/>
<path d="M48.5965 60.7537H46.5701V62.7761H48.5965V60.7537Z" fill="#354157"/>
<path d="M48.5965 56.7088H46.5701V58.7312H48.5965V56.7088Z" fill="#354157"/>
<path d="M48.5965 52.7651H46.5701V54.7875H48.5965V52.7651Z" fill="#6A7590"/>
<path d="M48.5965 48.8214H46.5701V50.8438H48.5965V48.8214Z" fill="#354157"/>
<path d="M48.5965 40.8328H46.5701V42.8552H48.5965V40.8328Z" fill="#354157"/>
<path d="M48.5965 36.889H46.5701V38.9115H48.5965V36.889Z" fill="#6A7590"/>
<path d="M52.7506 64.6974H50.7241V66.7198H52.7506V64.6974Z" fill="#354157"/>
<path d="M52.7506 60.7537H50.7241V62.7761H52.7506V60.7537Z" fill="#354157"/>
<path d="M52.7506 56.7088H50.7241V58.7312H52.7506V56.7088Z" fill="url(#paint9_linear_108_2095)"/>
<path d="M52.7506 52.7651H50.7241V54.7875H52.7506V52.7651Z" fill="#354157"/>
<path d="M52.7506 48.8214H50.7241V50.8438H52.7506V48.8214Z" fill="#354157"/>
<path d="M52.7506 44.7765H50.7241V46.7989H52.7506V44.7765Z" fill="#354157"/>
<path d="M52.7506 40.8328H50.7241V42.8552H52.7506V40.8328Z" fill="#6A7590"/>
<path d="M52.7506 32.8442H50.7241V34.8666H52.7506V32.8442Z" fill="#354157"/>
<path d="M52.7506 28.9005H50.7241V30.9229H52.7506V28.9005Z" fill="#6A7590"/>
<path d="M81.7288 60.7537H79.7024V62.7761H81.7288V60.7537Z" fill="#354157"/>
<path d="M81.7288 52.7651H79.7024V54.7875H81.7288V52.7651Z" fill="#354157"/>
<path d="M81.7288 48.8214H79.7024V50.8438H81.7288V48.8214Z" fill="#354157"/>
<path d="M81.7288 44.7765H79.7024V46.7989H81.7288V44.7765Z" fill="#6A7590"/>
<path d="M81.7288 40.8328H79.7024V42.8552H81.7288V40.8328Z" fill="#354157"/>
<path d="M81.7288 36.889H79.7024V38.9115H81.7288V36.889Z" fill="#354157"/>
<path d="M85.8829 64.6974H83.8564V66.7198H85.8829V64.6974Z" fill="#354157"/>
<path d="M85.8829 60.7537H83.8564V62.7761H85.8829V60.7537Z" fill="#354157"/>
<path d="M85.8829 56.7088H83.8564V58.7312H85.8829V56.7088Z" fill="#354157"/>
<path d="M85.8829 52.7651H83.8564V54.7875H85.8829V52.7651Z" fill="#354157"/>
<path d="M85.8829 48.8214H83.8564V50.8438H85.8829V48.8214Z" fill="#354157"/>
<path d="M85.8829 44.7765H83.8564V46.7989H85.8829V44.7765Z" fill="url(#paint10_linear_108_2095)"/>
<path d="M85.8829 40.8328H83.8564V42.8552H85.8829V40.8328Z" fill="#6A7590"/>
<path d="M90.0372 64.6974H88.0107V66.7198H90.0372V64.6974Z" fill="#354157"/>
<path d="M90.0372 60.7537H88.0107V62.7761H90.0372V60.7537Z" fill="#354157"/>
<path d="M90.0372 56.7088H88.0107V58.7312H90.0372V56.7088Z" fill="#354157"/>
<path d="M90.0372 52.7651H88.0107V54.7875H90.0372V52.7651Z" fill="#354157"/>
<path d="M90.0372 48.8214H88.0107V50.8438H90.0372V48.8214Z" fill="#354157"/>
<path d="M90.0372 44.7765H88.0107V46.7989H90.0372V44.7765Z" fill="#354157"/>
<path d="M90.0372 40.8328H88.0107V42.8552H90.0372V40.8328Z" fill="#6A7590"/>
<path d="M90.0372 36.889H88.0107V38.9115H90.0372V36.889Z" fill="#354157"/>
<path d="M90.0372 32.8442H88.0107V34.8666H90.0372V32.8442Z" fill="#354157"/>
<path d="M94.1912 64.6974H92.1648V66.7198H94.1912V64.6974Z" fill="#354157"/>
<path d="M94.1912 60.7537H92.1648V62.7761H94.1912V60.7537Z" fill="#354157"/>
<path d="M94.1912 56.7088H92.1648V58.7312H94.1912V56.7088Z" fill="#354157"/>
<path d="M94.1912 52.7651H92.1648V54.7875H94.1912V52.7651Z" fill="#354157"/>
<path d="M94.1912 48.8214H92.1648V50.8438H94.1912V48.8214Z" fill="#354157"/>
<path d="M98.3455 64.6974H96.3191V66.7198H98.3455V64.6974Z" fill="url(#paint11_linear_108_2095)"/>
<path d="M98.3455 60.7537H96.3191V62.7761H98.3455V60.7537Z" fill="#354157"/>
<path d="M98.3455 56.7088H96.3191V58.7312H98.3455V56.7088Z" fill="#354157"/>
<path d="M98.3455 52.7651H96.3191V54.7875H98.3455V52.7651Z" fill="#6A7590"/>
<path d="M98.3455 48.8214H96.3191V50.8438H98.3455V48.8214Z" fill="#354157"/>
<path d="M98.3455 44.7765H96.3191V46.7989H98.3455V44.7765Z" fill="url(#paint12_linear_108_2095)"/>
<path d="M98.3455 40.8328H96.3191V42.8552H98.3455V40.8328Z" fill="#354157"/>
<path d="M98.3455 36.889H96.3191V38.9115H98.3455V36.889Z" fill="#6A7590"/>
<path d="M102.5 64.6974H100.473V66.7198H102.5V64.6974Z" fill="#354157"/>
<path d="M102.5 60.7537H100.473V62.7761H102.5V60.7537Z" fill="#354157"/>
<path d="M102.5 56.7088H100.473V58.7312H102.5V56.7088Z" fill="url(#paint13_linear_108_2095)"/>
<path d="M102.5 52.7651H100.473V54.7875H102.5V52.7651Z" fill="#354157"/>
<path d="M102.5 48.8214H100.473V50.8438H102.5V48.8214Z" fill="#354157"/>
<path d="M102.5 44.7765H100.473V46.7989H102.5V44.7765Z" fill="#354157"/>
<path d="M102.5 40.8328H100.473V42.8552H102.5V40.8328Z" fill="#6A7590"/>
<path d="M102.5 32.8442H100.473V34.8666H102.5V32.8442Z" fill="#354157"/>
<path d="M102.5 28.9005H100.473V30.9229H102.5V28.9005Z" fill="#6A7590"/>
<path d="M56.9049 64.6974H54.8784V66.7198H56.9049V64.6974Z" fill="#354157"/>
<path d="M56.9049 60.7537H54.8784V62.7761H56.9049V60.7537Z" fill="#354157"/>
<path d="M56.9049 56.7088H54.8784V58.7312H56.9049V56.7088Z" fill="#354157"/>
<path d="M56.9049 48.8214H54.8784V50.8438H56.9049V48.8214Z" fill="#6A7590"/>
<path d="M56.9049 40.8328H54.8784V42.8552H56.9049V40.8328Z" fill="#354157"/>
<path d="M56.9049 36.889H54.8784V38.9115H56.9049V36.889Z" fill="#6A7590"/>
<path d="M56.9049 32.8442H54.8784V34.8666H56.9049V32.8442Z" fill="#354157"/>
<path d="M56.9049 28.9005H54.8784V30.9229H56.9049V28.9005Z" fill="#6A7590"/>
<path d="M60.9578 60.7537H58.9314V62.7761H60.9578V60.7537Z" fill="#354157"/>
<path d="M60.9578 56.7088H58.9314V58.7312H60.9578V56.7088Z" fill="#6A7590"/>
<path d="M60.9578 52.7651H58.9314V54.7875H60.9578V52.7651Z" fill="#354157"/>
<path d="M60.9578 48.8214H58.9314V50.8438H60.9578V48.8214Z" fill="#354157"/>
<path d="M60.9578 44.7765H58.9314V46.7989H60.9578V44.7765Z" fill="url(#paint14_linear_108_2095)"/>
<path d="M60.9578 40.8328H58.9314V42.8552H60.9578V40.8328Z" fill="#354157"/>
<path d="M60.9578 36.889H58.9314V38.9115H60.9578V36.889Z" fill="#354157"/>
<path d="M65.1119 64.6974H63.0854V66.7198H65.1119V64.6974Z" fill="#354157"/>
<path d="M65.1119 56.7088H63.0854V58.7312H65.1119V56.7088Z" fill="#354157"/>
<path d="M65.1119 52.7651H63.0854V54.7875H65.1119V52.7651Z" fill="url(#paint15_linear_108_2095)"/>
<path d="M65.1119 48.8214H63.0854V50.8438H65.1119V48.8214Z" fill="#354157"/>
<path d="M65.1119 44.7765H63.0854V46.7989H65.1119V44.7765Z" fill="#6A7590"/>
<path d="M65.1119 40.8328H63.0854V42.8552H65.1119V40.8328Z" fill="url(#paint16_linear_108_2095)"/>
<path d="M69.2662 64.6974H67.2397V66.7198H69.2662V64.6974Z" fill="#354157"/>
<path d="M69.2662 52.7651H67.2397V54.7875H69.2662V52.7651Z" fill="#6A7590"/>
<path d="M69.2662 48.8214H67.2397V50.8438H69.2662V48.8214Z" fill="#354157"/>
<path d="M69.2662 44.7765H67.2397V46.7989H69.2662V44.7765Z" fill="#354157"/>
<path d="M73.4205 64.6974H71.394V66.7198H73.4205V64.6974Z" fill="#354157"/>
<path d="M73.4205 60.7537H71.394V62.7761H73.4205V60.7537Z" fill="#354157"/>
<path d="M73.4205 56.7088H71.394V58.7312H73.4205V56.7088Z" fill="#354157"/>
<path d="M73.4205 52.7651H71.394V54.7875H73.4205V52.7651Z" fill="#354157"/>
<path d="M73.4205 48.8214H71.394V50.8438H73.4205V48.8214Z" fill="#6A7590"/>
<path d="M73.4205 44.7765H71.394V46.7989H73.4205V44.7765Z" fill="#354157"/>
<path d="M73.4205 40.8328H71.394V42.8552H73.4205V40.8328Z" fill="url(#paint17_linear_108_2095)"/>
<path d="M73.4205 36.889H71.394V38.9115H73.4205V36.889Z" fill="#354157"/>
<path d="M77.5745 64.6974H75.5481V66.7198H77.5745V64.6974Z" fill="#354157"/>
<path d="M77.5745 56.7088H75.5481V58.7312H77.5745V56.7088Z" fill="#354157"/>
<path d="M77.5745 52.7651H75.5481V54.7875H77.5745V52.7651Z" fill="#6A7590"/>
<path d="M116.178 58.8324V71.8771C116.178 72.0793 116.178 72.2816 116.178 72.4838C115.975 74.0006 115.165 75.3152 113.847 76.0231L102.601 82.4948C101.486 83.1016 100.27 83.3038 99.0544 83.0004C98.6492 82.8993 98.2439 82.6971 97.8386 82.4948L86.5919 76.0231C85.7813 75.5174 85.0721 74.8096 84.6668 73.8995C84.3628 73.2928 84.1602 72.5849 84.1602 71.8771V58.8324C84.1602 58.1246 84.2615 57.5178 84.5654 56.9111C84.9707 56.001 85.68 55.1921 86.4906 54.6864L97.7373 48.2147C98.8518 47.608 100.068 47.4057 101.284 47.7091C101.689 47.8102 102.094 48.0124 102.499 48.2147L113.746 54.6864C114.759 55.2932 115.469 56.2033 115.874 57.2145C116.178 57.7201 116.178 58.3268 116.178 58.8324Z" fill="#434B60"/>
<path d="M115.975 57.2145L110.605 67.4277L90.2395 64.3941L84.4641 73.8995C84.1602 73.2928 83.9575 72.5849 83.9575 71.8771V58.8324C83.9575 58.1246 84.0588 57.5178 84.3628 56.9111C84.7681 56.001 85.4773 55.1921 86.2879 54.6864L97.5346 48.2147C98.6492 47.608 99.865 47.4057 101.081 47.7091C101.486 47.8102 101.891 48.0124 102.297 48.2147L113.543 54.6864C114.861 55.2932 115.57 56.2033 115.975 57.2145Z" fill="#566079"/>
<path d="M116.178 72.4838C115.975 74.0006 115.165 75.3152 113.847 76.0231L102.601 82.4948C101.486 83.1016 100.27 83.3038 99.0544 83.0004L84.4641 56.9111C84.8694 56.001 85.5786 55.1921 86.3892 54.6864L97.6359 48.2147C98.7505 47.608 99.9663 47.4057 101.182 47.7091L116.178 72.4838Z" fill="#69738D"/>
<path d="M106.046 62.9784V71.8771L102.094 69.6524V65.2031L100.068 63.9896L98.0414 65.2031V69.6524L94.0898 71.8771V62.9784C94.0898 62.675 94.2925 62.3717 94.4951 62.2705L99.6625 59.1358C99.8652 59.0347 100.169 59.0347 100.372 59.1358L105.539 62.2705C105.944 62.3717 106.046 62.675 106.046 62.9784Z" fill="#1E242D"/>
<path d="M39.2748 21.013C40.896 23.541 40.896 26.6758 39.2748 29.2038C36.0325 34.361 31.6757 38.6081 26.6096 41.844C24.0766 43.4619 20.9356 43.4619 18.4026 41.844C13.2352 38.6081 8.87832 34.361 5.63603 29.2038C4.01488 26.6758 4.01488 23.541 5.63603 21.013C8.87832 15.8558 13.2352 11.6087 18.3012 8.37282C20.8343 6.75488 23.9753 6.75488 26.5083 8.37282C31.6757 11.6087 36.0325 15.8558 39.2748 21.013Z" fill="#69738D"/>
<path d="M28.9401 22.1253C28.6361 22.0242 28.3321 21.9231 28.0282 21.8219C28.2308 20.5074 28.6361 18.7883 27.9268 17.4737C27.6229 16.9681 27.2176 16.5636 26.5083 16.4625C24.9885 16.3614 23.3674 17.676 22.3542 18.5861C21.037 17.3726 19.9224 16.6647 18.7066 16.4625C17.4907 16.2603 16.7815 16.9681 16.5788 18.1816C16.2748 19.4961 16.5788 20.9118 16.7815 21.8219C16.1735 22.0242 12.5259 23.1365 12.7286 25.2601C12.9312 27.1814 16.2748 28.1926 16.7815 28.3948C16.5788 29.7094 16.1735 31.1251 16.7815 32.5408C16.9841 33.1475 17.3894 33.552 18.0986 33.6531C19.6185 33.9565 21.3409 32.5408 22.4555 31.6307C23.4687 32.4397 24.5832 33.552 26.1031 33.6531C28.5348 33.9565 28.6361 30.8217 28.1295 28.2937C29.4467 27.7881 31.0678 27.2825 31.7771 26.069C32.8916 24.35 30.8652 22.9343 28.9401 22.1253ZM25.6978 17.4737C26.407 17.2715 26.9136 17.2715 27.3189 17.8782C27.8255 18.8894 27.6229 20.4062 27.3189 21.5186C27.3189 21.7208 27.3189 21.6197 25.5964 21.3163C24.4819 21.1141 25.0898 21.7208 23.1647 19.1928C23.1647 19.1928 23.1647 19.1928 23.1647 19.0917C23.57 18.6872 24.4819 17.7771 25.6978 17.4737ZM18.5039 26.069C18.9092 26.7769 19.3145 27.3836 19.6185 28.0915C19.0105 27.9903 18.4026 27.8892 17.7947 27.7881C18.0986 27.1814 18.3013 26.5746 18.5039 26.069ZM18.4026 24.0466C18.2 23.541 17.9973 22.9343 17.7947 22.4287C18.4026 22.3275 18.9092 22.2264 19.5171 22.1253C18.9092 23.3388 19.1119 22.8332 18.4026 24.0466C18.5039 24.0466 18.5039 24.0466 18.4026 24.0466ZM19.0105 25.1589C18.9092 24.8556 20.429 22.4287 20.6317 22.1253C20.733 22.0242 20.733 22.0242 20.8343 22.0242C22.4555 21.9231 22.2528 21.9231 24.0766 22.0242C24.3806 22.0242 25.7991 24.6533 25.9004 24.9567C25.9004 25.0578 25.9004 25.1589 25.9004 25.1589C24.6846 27.4847 24.5832 27.4847 24.2793 27.9903C24.0766 28.1926 21.2396 28.0915 20.8343 28.0915C20.733 28.0915 20.733 28.0915 20.6317 27.9903C20.0238 27.0802 19.4158 26.1702 19.0105 25.1589ZM26.407 25.9679C26.6097 26.5746 26.8123 27.0802 27.015 27.687C26.407 27.7881 25.7991 27.8892 25.1912 27.9903C25.6978 27.2825 26.0017 26.6758 26.407 25.9679ZM26.407 24.0466C26.0017 23.3388 25.6978 22.732 25.2925 22.0242C25.9004 22.1253 26.5083 22.2264 27.1163 22.3275C26.8123 23.0354 26.6097 23.541 26.407 24.0466ZM22.4555 19.7995C22.8608 20.3051 23.1647 20.7096 23.57 21.1141C22.8608 21.1141 22.1515 21.1141 21.3409 21.1141C21.6449 20.7096 22.0502 20.204 22.4555 19.7995ZM18.8079 17.3726C20.2264 17.5748 21.6449 18.9905 21.9489 19.1928C19.6185 21.9231 21.2396 21.013 17.6934 21.6197C17.1867 19.7995 16.9841 17.0692 18.8079 17.3726ZM16.8828 27.4847C16.1735 27.2825 15.4643 26.9791 14.8563 26.5746C11.3101 24.35 16.5788 22.732 16.9841 22.6309C17.896 24.9567 17.9973 24.9567 17.896 25.1589C16.9841 27.687 17.0854 27.5859 16.8828 27.4847ZM17.592 32.2374C16.9841 31.024 17.4907 28.7993 17.592 28.4959C19.9224 28.9004 19.0105 28.6982 20.1251 28.9004C20.2264 28.9004 20.2264 28.9004 20.3277 29.0016C20.3277 29.1027 21.8475 30.9229 21.9489 30.9229C21.4423 31.5296 18.4026 33.8554 17.592 32.2374ZM21.3409 29.0016C22.1515 29.0016 22.8608 29.0016 23.6713 29.0016C23.266 29.5072 22.9621 29.9116 22.5568 30.4173C22.0502 29.9116 21.7462 29.406 21.3409 29.0016ZM27.2176 32.2374C26.6097 33.8554 23.7727 31.833 23.0634 31.024C25.3938 28.1926 23.7727 29.3049 27.3189 28.5971C27.5216 29.7094 27.7242 30.9229 27.2176 32.2374ZM28.0282 27.4847C27.8255 27.5859 27.9268 27.687 27.015 25.2601C26.9136 24.9567 26.9136 25.0578 27.8255 22.8332C27.8255 22.732 27.9268 22.732 28.0282 22.732C32.4863 24.0466 32.1824 26.069 28.0282 27.4847Z" fill="#1E242D"/>
<path d="M22.4554 26.7769C23.3673 26.7769 24.1778 26.069 24.1778 25.0578C24.1778 24.1477 23.4686 23.3387 22.4554 23.3387C21.5435 23.3387 20.7329 24.0466 20.7329 25.0578C20.7329 25.9679 21.4422 26.7769 22.4554 26.7769Z" fill="#1E242D"/>
<path d="M74.2308 45.2821C83.1841 45.2821 90.4422 38.0383 90.4422 29.1027C90.4422 20.167 83.1841 12.9233 74.2308 12.9233C65.2774 12.9233 58.0193 20.167 58.0193 29.1027C58.0193 38.0383 65.2774 45.2821 74.2308 45.2821Z" fill="#69738D"/>
<path d="M78.7903 25.0579C79.3982 25.0579 79.8035 25.0579 80.3101 25.0579C81.526 25.0579 82.1339 25.968 82.4379 27.1814C82.7418 28.3949 82.8432 29.305 82.3366 30.9229C82.0326 32.0352 81.222 32.8442 79.8035 32.8442C77.9797 32.8442 76.0546 32.8442 74.1295 32.8442C74.1295 33.0465 74.1295 33.3498 74.1295 33.5521C75.4467 33.5521 76.7639 33.5521 78.081 33.5521C78.081 33.5521 78.081 33.5521 78.081 33.6532C78.081 35.5745 78.2837 36.3835 77.3718 36.8891C76.1559 37.5969 74.7374 37.5969 73.4202 37.2935C72.3057 37.0913 71.0898 36.5857 71.0898 35.2711C71.0898 34.9678 71.0898 31.6308 71.0898 31.6308C71.0898 31.1251 71.1912 30.7207 71.5965 30.3162C72.0017 29.8106 72.5083 29.6083 73.1163 29.6083C74.2308 29.6083 75.3454 29.6083 76.4599 29.6083C77.5744 29.6083 78.4863 28.7994 78.7903 27.7881C78.8916 27.4848 78.7903 27.3837 78.7903 25.0579ZM76.5612 34.4621C76.1559 34.4621 75.852 34.7655 75.852 35.17C75.852 35.5745 76.1559 35.8778 76.5612 35.8778C76.9665 35.8778 77.2705 35.5745 77.2705 35.17C77.2705 34.7655 76.9665 34.4621 76.5612 34.4621Z" fill="#354157"/>
<path d="M70.3806 33.552C68.7594 33.552 68.2528 33.6532 67.6449 33.1476C66.8343 32.5408 66.6317 31.3274 66.5303 30.4173C66.3277 28.7993 66.5303 26.4735 68.3541 25.8668C68.8607 25.6646 68.6581 25.7657 74.94 25.7657C74.94 25.5635 74.94 25.2601 74.94 25.0578C73.6229 25.0578 72.3057 25.0578 70.9885 25.0578C70.9885 25.0578 70.9885 23.2377 70.9885 23.0354C70.9885 22.6309 71.1911 22.1253 71.4951 21.822C72.0017 21.4175 72.711 21.3164 73.3189 21.2152C74.8387 21.013 78.081 21.013 78.081 23.2377C78.081 24.4511 78.081 25.6646 78.081 26.9792C78.081 27.9904 77.2704 28.9005 76.0546 28.9005C74.94 28.9005 73.8255 28.9005 72.711 28.9005C71.3938 28.9005 70.2793 30.0128 70.2793 31.3274C70.3806 32.1363 70.3806 32.7431 70.3806 33.552ZM71.9004 23.4399C71.9004 23.8444 72.2044 24.1478 72.6096 24.1478C73.0149 24.1478 73.3189 23.8444 73.3189 23.4399C73.3189 23.0354 73.0149 22.7321 72.6096 22.7321C72.2044 22.7321 71.9004 23.0354 71.9004 23.4399Z" fill="#1E242D"/>
<path d="M54.0677 61.5626L51.9399 82.3936L38.7681 89.5733H38.6668L25.3936 82.3936L23.0632 61.5626L38.7681 56.4055L54.0677 61.5626Z" fill="#69738D"/>
<path d="M54.0676 61.5626L51.9399 82.3936L38.7681 89.5733V56.4055L54.0676 61.5626Z" fill="#566079"/>
<path d="M38.7681 61.866L30.4597 79.9667L33.6007 80.0679L35.3232 76.1241H42.1117L43.8342 80.169L46.8738 80.0679L38.7681 61.866ZM36.3364 73.2927L38.7681 67.7311L41.0985 73.2927H36.3364Z" fill="#1E242D"/>
<path d="M9.08105 100.494H112.632" stroke="#2B323C" stroke-width="2" stroke-miterlimit="10" stroke-linecap="round" stroke-linejoin="round"/>
<defs>
<linearGradient id="paint0_linear_108_2095" x1="84.0841" y1="3.87123" x2="90.6512" y2="3.87123" gradientUnits="userSpaceOnUse">
<stop stop-color="#FF66A9"/>
<stop offset="1" stop-color="#F53689"/>
</linearGradient>
<linearGradient id="paint1_linear_108_2095" x1="115.038" y1="28.6184" x2="120.039" y2="28.6184" gradientUnits="userSpaceOnUse">
<stop stop-color="#FF66A9"/>
<stop offset="1" stop-color="#F53689"/>
</linearGradient>
<linearGradient id="paint2_linear_108_2095" x1="4.84459" y1="52.716" x2="3.12594" y2="57.3841" gradientUnits="userSpaceOnUse">
<stop stop-color="#83A6FF"/>
<stop offset="1" stop-color="#5A78FF"/>
</linearGradient>
<linearGradient id="paint3_linear_108_2095" x1="59.8445" y1="99.3399" x2="59.8445" y2="83.5164" gradientUnits="userSpaceOnUse">
<stop stop-color="#474755"/>
<stop offset="0.9913" stop-color="#2F3338"/>
</linearGradient>
<linearGradient id="paint4_linear_108_2095" x1="17.5275" y1="49.8102" x2="19.561" y2="49.8102" gradientUnits="userSpaceOnUse">
<stop stop-color="#FF66A9"/>
<stop offset="1" stop-color="#F53689"/>
</linearGradient>
<linearGradient id="paint5_linear_108_2095" x1="21.6729" y1="33.8865" x2="23.7064" y2="33.8865" gradientUnits="userSpaceOnUse">
<stop stop-color="#FF66A9"/>
<stop offset="1" stop-color="#F53689"/>
</linearGradient>
<linearGradient id="paint6_linear_108_2095" x1="25.818" y1="49.8102" x2="27.8515" y2="49.8102" gradientUnits="userSpaceOnUse">
<stop stop-color="#83A6FF"/>
<stop offset="1" stop-color="#5A78FF"/>
</linearGradient>
<linearGradient id="paint7_linear_108_2095" x1="34.1084" y1="45.8293" x2="36.142" y2="45.8293" gradientUnits="userSpaceOnUse">
<stop stop-color="#FF66A9"/>
<stop offset="1" stop-color="#F53689"/>
</linearGradient>
<linearGradient id="paint8_linear_108_2095" x1="46.5442" y1="65.7339" x2="48.5778" y2="65.7339" gradientUnits="userSpaceOnUse">
<stop stop-color="#83A6FF"/>
<stop offset="1" stop-color="#5A78FF"/>
</linearGradient>
<linearGradient id="paint9_linear_108_2095" x1="50.6893" y1="57.7721" x2="52.7228" y2="57.7721" gradientUnits="userSpaceOnUse">
<stop stop-color="#FF66A9"/>
<stop offset="1" stop-color="#F53689"/>
</linearGradient>
<linearGradient id="paint10_linear_108_2095" x1="83.8839" y1="45.8293" x2="85.9174" y2="45.8293" gradientUnits="userSpaceOnUse">
<stop stop-color="#FF66A9"/>
<stop offset="1" stop-color="#F53689"/>
</linearGradient>
<linearGradient id="paint11_linear_108_2095" x1="96.3197" y1="65.7339" x2="98.3532" y2="65.7339" gradientUnits="userSpaceOnUse">
<stop stop-color="#83A6FF"/>
<stop offset="1" stop-color="#5A78FF"/>
</linearGradient>
<linearGradient id="paint12_linear_108_2095" x1="96.3197" y1="45.8293" x2="98.3532" y2="45.8293" gradientUnits="userSpaceOnUse">
<stop stop-color="#83A6FF"/>
<stop offset="1" stop-color="#5A78FF"/>
</linearGradient>
<linearGradient id="paint13_linear_108_2095" x1="100.465" y1="57.7721" x2="102.498" y2="57.7721" gradientUnits="userSpaceOnUse">
<stop stop-color="#FF66A9"/>
<stop offset="1" stop-color="#F53689"/>
</linearGradient>
<linearGradient id="paint14_linear_108_2095" x1="58.98" y1="45.8293" x2="61.0136" y2="45.8293" gradientUnits="userSpaceOnUse">
<stop stop-color="#83A6FF"/>
<stop offset="1" stop-color="#5A78FF"/>
</linearGradient>
<linearGradient id="paint15_linear_108_2095" x1="63.1251" y1="53.7912" x2="65.1586" y2="53.7912" gradientUnits="userSpaceOnUse">
<stop stop-color="#FF66A9"/>
<stop offset="1" stop-color="#F53689"/>
</linearGradient>
<linearGradient id="paint16_linear_108_2095" x1="63.1251" y1="41.8484" x2="65.1586" y2="41.8484" gradientUnits="userSpaceOnUse">
<stop stop-color="#83A6FF"/>
<stop offset="1" stop-color="#5A78FF"/>
</linearGradient>
<linearGradient id="paint17_linear_108_2095" x1="71.4158" y1="41.8484" x2="73.4494" y2="41.8484" gradientUnits="userSpaceOnUse">
<stop stop-color="#FF66A9"/>
<stop offset="1" stop-color="#F53689"/>
</linearGradient>
</defs>
</svg>
