<svg width="120" height="109" viewBox="0 0 120 109" fill="none" xmlns="http://www.w3.org/2000/svg">
<path d="M10.3805 36.9542C11.645 36.541 12.337 35.1757 11.926 33.9046C11.5149 32.6336 10.1566 31.9381 8.89202 32.3512C7.62744 32.7643 6.93549 34.1297 7.34651 35.4007C7.75753 36.6718 9.11587 37.3673 10.3805 36.9542Z" fill="#2A2E38"/>
<path d="M17.0389 16.9854C17.6965 16.7706 18.0563 16.0606 17.8425 15.3997C17.6288 14.7387 16.9225 14.377 16.2649 14.5919C15.6073 14.8067 15.2475 15.5166 15.4612 16.1776C15.675 16.8386 16.3813 17.2002 17.0389 16.9854Z" fill="#2A2E38"/>
<path d="M8.28244 72.9894C8.60158 72.9894 8.86029 72.7294 8.86029 72.4086C8.86029 72.0878 8.60158 71.8278 8.28244 71.8278C7.9633 71.8278 7.70459 72.0878 7.70459 72.4086C7.70459 72.7294 7.9633 72.9894 8.28244 72.9894Z" fill="url(#paint0_linear_107_1571)"/>
<path d="M113.74 66.5036C114.166 66.5036 114.511 66.1568 114.511 65.7291C114.511 65.3014 114.166 64.9547 113.74 64.9547C113.315 64.9547 112.97 65.3014 112.97 65.7291C112.97 66.1568 113.315 66.5036 113.74 66.5036Z" fill="url(#paint1_linear_107_1571)"/>
<path d="M117.09 44.2372C118.582 42.8667 118.686 40.5399 117.323 39.0402C115.959 37.5405 113.644 37.4357 112.152 38.8063C110.66 40.1768 110.556 42.5035 111.92 44.0033C113.283 45.503 115.598 45.6077 117.09 44.2372Z" fill="#2A2E38"/>
<path d="M117.366 27.7458C117.995 27.1687 118.039 26.189 117.464 25.5576C116.89 24.9261 115.916 24.882 115.287 25.459C114.659 26.0361 114.615 27.0158 115.189 27.6473C115.764 28.2787 116.738 28.3228 117.366 27.7458Z" fill="#2A2E38"/>
<path d="M59.5185 109C85.9537 109 107.384 87.46 107.384 60.889C107.384 34.318 85.9537 12.778 59.5185 12.778C33.0833 12.778 11.6533 34.318 11.6533 60.889C11.6533 87.46 33.0833 109 59.5185 109Z" fill="#2A2E38"/>
<path d="M109.791 93.7052V96.3189C109.791 98.7389 107.769 100.675 105.265 100.675H13.1942C10.6902 100.675 8.66772 98.7389 8.66772 96.3189V93.7052H109.791Z" fill="#102030"/>
<path d="M104.591 93.7052H13.772V35.9139C13.772 34.0746 15.2166 32.6226 17.0465 32.6226H101.22C103.05 32.6226 104.494 34.0746 104.494 35.9139L104.591 93.7052Z" fill="#464D5F"/>
<path d="M100 38.5143V78.4344C100 79.2636 99.4245 79.9743 98.7531 79.9743H54.2469C53.5755 79.9743 53 79.2636 53 78.4344V38.5143C53 37.6851 53.5755 36.9743 54.2469 36.9743H98.6571C99.4245 36.9743 100 37.6851 100 38.5143Z" fill="#262A31"/>
<path d="M56.6293 39.786V72.6022H54.3179C53.6438 72.6022 53.0659 72.0214 53.0659 71.3437V39.786H56.6293Z" fill="#102030"/>
<path d="M54.5105 39.3019C54.7232 39.3019 54.8957 39.1285 54.8957 38.9147C54.8957 38.7008 54.7232 38.5275 54.5105 38.5275C54.2977 38.5275 54.1252 38.7008 54.1252 38.9147C54.1252 39.1285 54.2977 39.3019 54.5105 39.3019Z" fill="#3D4960"/>
<path d="M55.6662 39.3019C55.879 39.3019 56.0515 39.1285 56.0515 38.9147C56.0515 38.7008 55.879 38.5275 55.6662 38.5275C55.4535 38.5275 55.281 38.7008 55.281 38.9147C55.281 39.1285 55.4535 39.3019 55.6662 39.3019Z" fill="#3D4960"/>
<path d="M56.822 39.3019C57.0348 39.3019 57.2072 39.1285 57.2072 38.9147C57.2072 38.7008 57.0348 38.5275 56.822 38.5275C56.6092 38.5275 56.4368 38.7008 56.4368 38.9147C56.4368 39.1285 56.6092 39.3019 56.822 39.3019Z" fill="#3D4960"/>
<path d="M66.9344 43.1741H58.1704C57.9778 43.1741 57.7852 42.9805 57.7852 42.7869C57.7852 42.5933 57.9778 42.3997 58.1704 42.3997H66.9344C67.1271 42.3997 67.3197 42.5933 67.3197 42.7869C67.3197 42.9805 67.1271 43.1741 66.9344 43.1741Z" fill="#3F4A5C"/>
<path d="M54.8958 43.1741H54.6069C54.4143 43.1741 54.2217 42.9805 54.2217 42.7869C54.2217 42.5933 54.4143 42.3997 54.6069 42.3997H54.8958C55.0885 42.3997 55.2811 42.5933 55.2811 42.7869C55.2811 42.9805 55.0885 43.1741 54.8958 43.1741Z" fill="#3F4A5C"/>
<path d="M54.8958 45.0133H54.6069C54.4143 45.0133 54.2217 44.8197 54.2217 44.6261C54.2217 44.4325 54.4143 44.2389 54.6069 44.2389H54.8958C55.0885 44.2389 55.2811 44.4325 55.2811 44.6261C55.2811 44.8197 55.0885 45.0133 54.8958 45.0133Z" fill="#3F4A5C"/>
<path d="M54.8958 46.8526H54.6069C54.4143 46.8526 54.2217 46.6589 54.2217 46.4653C54.2217 46.2717 54.4143 46.0781 54.6069 46.0781H54.8958C55.0885 46.0781 55.2811 46.2717 55.2811 46.4653C55.2811 46.6589 55.0885 46.8526 54.8958 46.8526Z" fill="#3F4A5C"/>
<path d="M54.8958 48.595H54.6069C54.4143 48.595 54.2217 48.4014 54.2217 48.2078C54.2217 48.0142 54.4143 47.8206 54.6069 47.8206H54.8958C55.0885 47.8206 55.2811 48.0142 55.2811 48.2078C55.2811 48.4014 55.0885 48.595 54.8958 48.595Z" fill="#3F4A5C"/>
<path d="M54.8958 50.4342H54.6069C54.4143 50.4342 54.2217 50.2406 54.2217 50.047C54.2217 49.8534 54.4143 49.6598 54.6069 49.6598H54.8958C55.0885 49.6598 55.2811 49.8534 55.2811 50.047C55.2811 50.2406 55.0885 50.4342 54.8958 50.4342Z" fill="#3F4A5C"/>
<path d="M54.8958 52.2736H54.6069C54.4143 52.2736 54.2217 52.08 54.2217 51.8864C54.2217 51.6927 54.4143 51.4991 54.6069 51.4991H54.8958C55.0885 51.4991 55.2811 51.6927 55.2811 51.8864C55.2811 52.08 55.0885 52.2736 54.8958 52.2736Z" fill="#3F4A5C"/>
<path d="M54.8958 54.1128H54.6069C54.4143 54.1128 54.2217 53.9192 54.2217 53.7256C54.2217 53.532 54.4143 53.3384 54.6069 53.3384H54.8958C55.0885 53.3384 55.2811 53.532 55.2811 53.7256C55.2811 53.9192 55.0885 54.1128 54.8958 54.1128Z" fill="#3F4A5C"/>
<path d="M54.8958 55.952H54.6069C54.4143 55.952 54.2217 55.7584 54.2217 55.5648C54.2217 55.3712 54.4143 55.1776 54.6069 55.1776H54.8958C55.0885 55.1776 55.2811 55.3712 55.2811 55.5648C55.2811 55.7584 55.0885 55.952 54.8958 55.952Z" fill="#3F4A5C"/>
<path d="M54.8958 57.7913H54.6069C54.4143 57.7913 54.2217 57.5977 54.2217 57.4041C54.2217 57.2104 54.4143 57.0168 54.6069 57.0168H54.8958C55.0885 57.0168 55.2811 57.2104 55.2811 57.4041C55.2811 57.5977 55.0885 57.7913 54.8958 57.7913Z" fill="#3F4A5C"/>
<path d="M54.8958 59.5337H54.6069C54.4143 59.5337 54.2217 59.3401 54.2217 59.1465C54.2217 58.9529 54.4143 58.7593 54.6069 58.7593H54.8958C55.0885 58.7593 55.2811 58.9529 55.2811 59.1465C55.2811 59.4369 55.0885 59.5337 54.8958 59.5337Z" fill="#3F4A5C"/>
<path d="M54.8958 61.3729H54.6069C54.4143 61.3729 54.2217 61.1793 54.2217 60.9857C54.2217 60.7921 54.4143 60.5985 54.6069 60.5985H54.8958C55.0885 60.5985 55.2811 60.7921 55.2811 60.9857C55.2811 61.2761 55.0885 61.3729 54.8958 61.3729Z" fill="#3F4A5C"/>
<path d="M54.8958 63.2123H54.6069C54.4143 63.2123 54.2217 63.0187 54.2217 62.8251C54.2217 62.6315 54.4143 62.4379 54.6069 62.4379H54.8958C55.0885 62.4379 55.2811 62.6315 55.2811 62.8251C55.2811 63.0187 55.0885 63.2123 54.8958 63.2123Z" fill="#3F4A5C"/>
<path d="M54.8958 65.0515H54.6069C54.4143 65.0515 54.2217 64.8579 54.2217 64.6643C54.2217 64.4707 54.4143 64.2771 54.6069 64.2771H54.8958C55.0885 64.2771 55.2811 64.4707 55.2811 64.6643C55.2811 64.8579 55.0885 65.0515 54.8958 65.0515Z" fill="#3F4A5C"/>
<path d="M54.8958 66.8908H54.6069C54.4143 66.8908 54.2217 66.6971 54.2217 66.5035C54.2217 66.3099 54.4143 66.1163 54.6069 66.1163H54.8958C55.0885 66.1163 55.2811 66.3099 55.2811 66.5035C55.2811 66.6971 55.0885 66.8908 54.8958 66.8908Z" fill="#3F4A5C"/>
<path d="M54.8958 68.73H54.6069C54.4143 68.73 54.2217 68.5364 54.2217 68.3428C54.2217 68.1492 54.4143 67.9556 54.6069 67.9556H54.8958C55.0885 67.9556 55.2811 68.1492 55.2811 68.3428C55.2811 68.5364 55.0885 68.73 54.8958 68.73Z" fill="#3F4A5C"/>
<path d="M54.8958 70.4724H54.6069C54.4143 70.4724 54.2217 70.2788 54.2217 70.0852C54.2217 69.8916 54.4143 69.698 54.6069 69.698H54.8958C55.0885 69.698 55.2811 69.8916 55.2811 70.0852C55.2811 70.2788 55.0885 70.4724 54.8958 70.4724Z" fill="#3F4A5C"/>
<path d="M65.1046 45.0133H58.1704C57.9778 45.0133 57.7852 44.8197 57.7852 44.6261C57.7852 44.4325 57.9778 44.2389 58.1704 44.2389H65.1046C65.2972 44.2389 65.4898 44.4325 65.4898 44.6261C65.4898 44.8197 65.2972 45.0133 65.1046 45.0133Z" fill="#3F4A5C"/>
<path d="M83.7885 45.0133H66.5493C66.3567 45.0133 66.1641 44.8197 66.1641 44.6261C66.1641 44.4325 66.3567 44.2389 66.5493 44.2389H83.7885C83.9811 44.2389 84.1737 44.4325 84.1737 44.6261C84.1737 44.8197 83.9811 45.0133 83.7885 45.0133Z" fill="#3F4A5C"/>
<path d="M91.204 45.0133H86.196C86.0034 45.0133 85.8108 44.8197 85.8108 44.6261C85.8108 44.4325 86.0034 44.2389 86.196 44.2389H91.204C91.3967 44.2389 91.5893 44.4325 91.5893 44.6261C91.5893 44.8197 91.3967 45.0133 91.204 45.0133Z" fill="#3F4A5C"/>
<path d="M95.3452 45.0133H93.708C93.5154 45.0133 93.3228 44.8197 93.3228 44.6261C93.3228 44.4325 93.5154 44.2389 93.708 44.2389H95.3452C95.5378 44.2389 95.7305 44.4325 95.7305 44.6261C95.7305 44.8197 95.5378 45.0133 95.3452 45.0133Z" fill="#3F4A5C"/>
<path d="M69.5345 46.7557H60.7705C60.5779 46.7557 60.3853 46.5621 60.3853 46.3685C60.3853 46.1749 60.5779 45.9813 60.7705 45.9813H69.5345C69.7271 45.9813 69.9198 46.1749 69.9198 46.3685C69.9198 46.5621 69.7271 46.7557 69.5345 46.7557Z" fill="#3F4A5C"/>
<path d="M69.5345 54.016H60.7705C60.5779 54.016 60.3853 53.8224 60.3853 53.6288C60.3853 53.4352 60.5779 53.2416 60.7705 53.2416H69.5345C69.7271 53.2416 69.9198 53.4352 69.9198 53.6288C69.9198 53.9192 69.7271 54.016 69.5345 54.016Z" fill="#3F4A5C"/>
<path d="M67.2231 55.8552H60.7705C60.5779 55.8552 60.3853 55.6616 60.3853 55.468C60.3853 55.2744 60.5779 55.0808 60.7705 55.0808H67.2231C67.4158 55.0808 67.6084 55.2744 67.6084 55.468C67.6084 55.6616 67.4158 55.8552 67.2231 55.8552Z" fill="#3F4A5C"/>
<path d="M84.2699 55.8552H69.0532C68.8606 55.8552 68.668 55.6616 68.668 55.468C68.668 55.2744 68.8606 55.0808 69.0532 55.0808H84.2699C84.4625 55.0808 84.6551 55.2744 84.6551 55.468C84.6551 55.6616 84.4625 55.8552 84.2699 55.8552Z" fill="#3F4A5C"/>
<path d="M72.0387 48.595H63.8525C63.6599 48.595 63.4673 48.4014 63.4673 48.2078C63.4673 48.0142 63.6599 47.8206 63.8525 47.8206H72.0387C72.2313 47.8206 72.4239 48.0142 72.4239 48.2078C72.4239 48.4014 72.2313 48.595 72.0387 48.595Z" fill="#3F4A5C"/>
<path d="M76.6615 48.595H73.2908C73.0981 48.595 72.9055 48.4014 72.9055 48.2078C72.9055 48.0142 73.0981 47.8206 73.2908 47.8206H76.6615C76.8542 47.8206 77.0468 48.0142 77.0468 48.2078C77.0468 48.4014 76.8542 48.595 76.6615 48.595Z" fill="#3F4A5C"/>
<path d="M86.4849 50.4342H63.8525C63.6599 50.4342 63.4673 50.2406 63.4673 50.047C63.4673 49.8534 63.6599 49.6598 63.8525 49.6598H86.3886C86.5812 49.6598 86.7739 49.8534 86.7739 50.047C86.7739 50.2406 86.6776 50.4342 86.4849 50.4342Z" fill="#3F4A5C"/>
<path d="M90.4337 50.4342H88.3149C88.1223 50.4342 87.9297 50.2406 87.9297 50.047C87.9297 49.8534 88.1223 49.6598 88.3149 49.6598H90.4337C90.6263 49.6598 90.8189 49.8534 90.8189 50.047C90.8189 50.2406 90.6263 50.4342 90.4337 50.4342Z" fill="#3F4A5C"/>
<path d="M98.5235 50.4342H91.9746C91.782 50.4342 91.5894 50.2406 91.5894 50.047C91.5894 49.8534 91.782 49.6598 91.9746 49.6598H98.5235C98.7162 49.6598 98.9088 49.8534 98.9088 50.047C98.9088 50.2406 98.7162 50.4342 98.5235 50.4342Z" fill="#3F4A5C"/>
<path d="M79.3581 52.2736H63.8525C63.6599 52.2736 63.4673 52.08 63.4673 51.8864C63.4673 51.6927 63.6599 51.4991 63.8525 51.4991H79.3581C79.5508 51.4991 79.7434 51.6927 79.7434 51.8864C79.7434 52.08 79.5508 52.2736 79.3581 52.2736Z" fill="#3F4A5C"/>
<path d="M72.6167 59.5337H66.5493C66.3567 59.5337 66.1641 59.3401 66.1641 59.1465C66.1641 58.9529 66.3567 58.7593 66.5493 58.7593H72.6167C72.8093 58.7593 73.0019 58.9529 73.0019 59.1465C73.0019 59.3401 72.8093 59.5337 72.6167 59.5337Z" fill="#3F4A5C"/>
<path d="M80.4175 59.5337H73.9648C73.7722 59.5337 73.5796 59.3401 73.5796 59.1465C73.5796 58.9529 73.7722 58.7593 73.9648 58.7593H80.4175C80.6101 58.7593 80.8027 58.9529 80.8027 59.1465C80.7064 59.3401 80.6101 59.5337 80.4175 59.5337Z" fill="#3F4A5C"/>
<path d="M86.1959 59.5337H81.6694C81.4768 59.5337 81.2842 59.3401 81.2842 59.1465C81.2842 58.9529 81.4768 58.7593 81.6694 58.7593H86.1959C86.3885 58.7593 86.5811 58.9529 86.5811 59.1465C86.5811 59.3401 86.3885 59.5337 86.1959 59.5337Z" fill="#3F4A5C"/>
<path d="M90.2411 59.5337H87.9297C87.7371 59.5337 87.5444 59.3401 87.5444 59.1465C87.5444 58.9529 87.7371 58.7593 87.9297 58.7593H90.2411C90.4337 58.7593 90.6263 58.9529 90.6263 59.1465C90.6263 59.3401 90.4337 59.5337 90.2411 59.5337Z" fill="#3F4A5C"/>
<path d="M72.6167 64.9547H66.5493C66.3567 64.9547 66.1641 64.7611 66.1641 64.5675C66.1641 64.3739 66.3567 64.1803 66.5493 64.1803H72.6167C72.8093 64.1803 73.0019 64.3739 73.0019 64.5675C73.0019 64.7611 72.8093 64.9547 72.6167 64.9547Z" fill="#3F4A5C"/>
<path d="M86.1962 70.3756H66.5493C66.3567 70.3756 66.1641 70.182 66.1641 69.9884C66.1641 69.7948 66.3567 69.6012 66.5493 69.6012H86.1962C86.3888 69.6012 86.5814 69.7948 86.5814 69.9884C86.5814 70.182 86.3888 70.3756 86.1962 70.3756Z" fill="#3F4A5C"/>
<path d="M75.313 61.2761H69.2456C69.053 61.2761 68.8604 61.0825 68.8604 60.8889C68.8604 60.6953 69.053 60.5017 69.2456 60.5017H75.313C75.5056 60.5017 75.6982 60.6953 75.6982 60.8889C75.6982 61.0825 75.5056 61.2761 75.313 61.2761Z" fill="#3F4A5C"/>
<path d="M85.1368 61.2761H76.5654C76.3728 61.2761 76.1802 61.0825 76.1802 60.8889C76.1802 60.6953 76.3728 60.5017 76.5654 60.5017H85.1368C85.3295 60.5017 85.5221 60.6953 85.5221 60.8889C85.5221 61.0825 85.3295 61.2761 85.1368 61.2761Z" fill="#3F4A5C"/>
<path d="M90.8188 61.2761H86.3886C86.196 61.2761 86.0034 61.0825 86.0034 60.8889C86.0034 60.6953 86.196 60.5017 86.3886 60.5017H90.8188C91.0114 60.5017 91.2041 60.6953 91.2041 60.8889C91.2041 61.0825 91.0114 61.2761 90.8188 61.2761Z" fill="#3F4A5C"/>
<path d="M93.5154 61.2761H92.0708C91.8782 61.2761 91.6855 61.0825 91.6855 60.8889C91.6855 60.6953 91.8782 60.5017 92.0708 60.5017H93.5154C93.708 60.5017 93.9006 60.6953 93.9006 60.8889C93.9006 61.0825 93.708 61.2761 93.5154 61.2761Z" fill="#3F4A5C"/>
<path d="M76.6613 63.1155H69.2456C69.053 63.1155 68.8604 62.9219 68.8604 62.7283C68.8604 62.5347 69.053 62.3411 69.2456 62.3411H76.6613C76.8539 62.3411 77.0465 62.5347 77.0465 62.7283C77.0465 62.9219 76.8539 63.1155 76.6613 63.1155Z" fill="#3F4A5C"/>
<path d="M80.1287 63.1155H78.1062C77.9136 63.1155 77.7209 62.9219 77.7209 62.7283C77.7209 62.5347 77.9136 62.3411 78.1062 62.3411H80.1287C80.3213 62.3411 80.5139 62.5347 80.5139 62.7283C80.5139 62.9219 80.3213 63.1155 80.1287 63.1155Z" fill="#3F4A5C"/>
<path d="M96.8862 63.1155H81.5732C81.3806 63.1155 81.188 62.9219 81.188 62.7283C81.188 62.5347 81.3806 62.3411 81.5732 62.3411H96.8862C97.0788 62.3411 97.2715 62.5347 97.2715 62.7283C97.2715 62.9219 97.0788 63.1155 96.8862 63.1155Z" fill="#3F4A5C"/>
<path d="M72.6166 57.6945H63.8525C63.6599 57.6945 63.4673 57.5009 63.4673 57.3073C63.4673 57.1137 63.6599 56.92 63.8525 56.92H72.6166C72.8092 56.92 73.0018 57.1137 73.0018 57.3073C73.0018 57.5009 72.8092 57.6945 72.6166 57.6945Z" fill="#3F4A5C"/>
<path d="M76.2762 57.6945H73.9648C73.7722 57.6945 73.5796 57.5009 73.5796 57.3073C73.5796 57.1137 73.7722 56.92 73.9648 56.92H76.2762C76.4688 56.92 76.6614 57.1137 76.6614 57.3073C76.6614 57.5009 76.4688 57.6945 76.2762 57.6945Z" fill="#3F4A5C"/>
<path d="M72.6166 66.794H63.8525C63.6599 66.794 63.4673 66.6003 63.4673 66.4067C63.4673 66.2131 63.6599 66.0195 63.8525 66.0195H72.6166C72.8092 66.0195 73.0018 66.2131 73.0018 66.4067C73.0018 66.6003 72.8092 66.794 72.6166 66.794Z" fill="#3F4A5C"/>
<path d="M79.4544 68.5364H63.8525C63.6599 68.5364 63.4673 68.3428 63.4673 68.1492C63.4673 67.9556 63.6599 67.762 63.8525 67.762H79.4544C79.6471 67.762 79.8397 67.9556 79.8397 68.1492C79.8397 68.3428 79.6471 68.5364 79.4544 68.5364Z" fill="#3F4A5C"/>
<path d="M86.1961 68.5364H80.7065C80.5139 68.5364 80.3213 68.3428 80.3213 68.1492C80.3213 67.9556 80.5139 67.762 80.7065 67.762H86.1961C86.3887 67.762 86.5813 67.9556 86.5813 68.1492C86.5813 68.3428 86.485 68.5364 86.1961 68.5364Z" fill="#3F4A5C"/>
<path d="M89.8557 68.5364H87.6406C87.448 68.5364 87.2554 68.3428 87.2554 68.1492C87.2554 67.9556 87.448 67.762 87.6406 67.762H89.8557C90.0483 67.762 90.2409 67.9556 90.2409 68.1492C90.2409 68.3428 90.0483 68.5364 89.8557 68.5364Z" fill="#3F4A5C"/>
<path d="M62 38.5143V78.4344C62 79.2636 61.4211 79.9743 60.8421 79.9743H19.1579C18.4825 79.9743 18 79.2636 18 78.4344V38.5143C18 37.6851 18.5789 36.9743 19.1579 36.9743H60.8421C61.5175 36.9743 62 37.6851 62 38.5143Z" fill="#262A31"/>
<path d="M21.862 39.786V72.6022H19.5506C18.8764 72.6022 18.2986 72.0214 18.2986 71.3437V39.786H21.862Z" fill="#1A2027"/>
<path d="M98.9085 37.3658H64.1413H54.3178H19.5506C18.8764 37.3658 18.2986 37.9467 18.2986 38.6243V40.2699H53.0658H65.3933H100.161V38.6243C100.257 37.9467 99.679 37.3658 98.9085 37.3658Z" fill="url(#paint2_linear_107_1571)"/>
<path d="M19.7431 39.3019C19.9559 39.3019 20.1284 39.1285 20.1284 38.9147C20.1284 38.7008 19.9559 38.5275 19.7431 38.5275C19.5304 38.5275 19.3579 38.7008 19.3579 38.9147C19.3579 39.1285 19.5304 39.3019 19.7431 39.3019Z" fill="#3A4458"/>
<path d="M20.8025 39.3019C21.0152 39.3019 21.1877 39.1285 21.1877 38.9147C21.1877 38.7008 21.0152 38.5275 20.8025 38.5275C20.5897 38.5275 20.4172 38.7008 20.4172 38.9147C20.4172 39.1285 20.5897 39.3019 20.8025 39.3019Z" fill="#3A4458"/>
<path d="M21.9582 39.3019C22.171 39.3019 22.3435 39.1285 22.3435 38.9147C22.3435 38.7008 22.171 38.5275 21.9582 38.5275C21.7455 38.5275 21.573 38.7008 21.573 38.9147C21.573 39.1285 21.7455 39.3019 21.9582 39.3019Z" fill="#3A4458"/>
<path d="M32.1669 43.1741H23.4028C23.2102 43.1741 23.0176 42.9805 23.0176 42.7869C23.0176 42.5933 23.2102 42.3997 23.4028 42.3997H32.1669C32.3595 42.3997 32.5521 42.5933 32.5521 42.7869C32.5521 42.9805 32.3595 43.1741 32.1669 43.1741Z" fill="#3F4A5C"/>
<path d="M20.1283 43.1741H19.8393C19.6467 43.1741 19.4541 42.9805 19.4541 42.7869C19.4541 42.5933 19.6467 42.3997 19.8393 42.3997H20.1283C20.3209 42.3997 20.5135 42.5933 20.5135 42.7869C20.5135 42.9805 20.3209 43.1741 20.1283 43.1741Z" fill="#3F4A5C"/>
<path d="M20.1283 45.0133H19.8393C19.6467 45.0133 19.4541 44.8197 19.4541 44.6261C19.4541 44.4325 19.6467 44.2389 19.8393 44.2389H20.1283C20.3209 44.2389 20.5135 44.4325 20.5135 44.6261C20.5135 44.8197 20.3209 45.0133 20.1283 45.0133Z" fill="#3F4A5C"/>
<path d="M20.1283 46.8526H19.8393C19.6467 46.8526 19.4541 46.6589 19.4541 46.4653C19.4541 46.2717 19.6467 46.0781 19.8393 46.0781H20.1283C20.3209 46.0781 20.5135 46.2717 20.5135 46.4653C20.5135 46.6589 20.3209 46.8526 20.1283 46.8526Z" fill="#3F4A5C"/>
<path d="M20.1283 48.595H19.8393C19.6467 48.595 19.4541 48.4014 19.4541 48.2078C19.4541 48.0142 19.6467 47.8206 19.8393 47.8206H20.1283C20.3209 47.8206 20.5135 48.0142 20.5135 48.2078C20.5135 48.4014 20.3209 48.595 20.1283 48.595Z" fill="#3F4A5C"/>
<path d="M20.1283 50.4342H19.8393C19.6467 50.4342 19.4541 50.2406 19.4541 50.047C19.4541 49.8534 19.6467 49.6598 19.8393 49.6598H20.1283C20.3209 49.6598 20.5135 49.8534 20.5135 50.047C20.5135 50.2406 20.3209 50.4342 20.1283 50.4342Z" fill="#3F4A5C"/>
<path d="M20.1283 52.2736H19.8393C19.6467 52.2736 19.4541 52.08 19.4541 51.8864C19.4541 51.6927 19.6467 51.4991 19.8393 51.4991H20.1283C20.3209 51.4991 20.5135 51.6927 20.5135 51.8864C20.5135 52.08 20.3209 52.2736 20.1283 52.2736Z" fill="#3F4A5C"/>
<path d="M20.1283 54.1128H19.8393C19.6467 54.1128 19.4541 53.9192 19.4541 53.7256C19.4541 53.532 19.6467 53.3384 19.8393 53.3384H20.1283C20.3209 53.3384 20.5135 53.532 20.5135 53.7256C20.5135 53.9192 20.3209 54.1128 20.1283 54.1128Z" fill="#3F4A5C"/>
<path d="M20.1283 55.952H19.8393C19.6467 55.952 19.4541 55.7584 19.4541 55.5648C19.4541 55.3712 19.6467 55.1776 19.8393 55.1776H20.1283C20.3209 55.1776 20.5135 55.3712 20.5135 55.5648C20.5135 55.7584 20.3209 55.952 20.1283 55.952Z" fill="#3F4A5C"/>
<path d="M20.1283 57.7913H19.8393C19.6467 57.7913 19.4541 57.5977 19.4541 57.4041C19.4541 57.2104 19.6467 57.0168 19.8393 57.0168H20.1283C20.3209 57.0168 20.5135 57.2104 20.5135 57.4041C20.5135 57.5977 20.3209 57.7913 20.1283 57.7913Z" fill="#3F4A5C"/>
<path d="M20.1283 59.5337H19.8393C19.6467 59.5337 19.4541 59.3401 19.4541 59.1465C19.4541 58.9529 19.6467 58.7593 19.8393 58.7593H20.1283C20.3209 58.7593 20.5135 58.9529 20.5135 59.1465C20.5135 59.4369 20.3209 59.5337 20.1283 59.5337Z" fill="#3F4A5C"/>
<path d="M20.1283 61.3729H19.8393C19.6467 61.3729 19.4541 61.1793 19.4541 60.9857C19.4541 60.7921 19.6467 60.5985 19.8393 60.5985H20.1283C20.3209 60.5985 20.5135 60.7921 20.5135 60.9857C20.5135 61.2761 20.3209 61.3729 20.1283 61.3729Z" fill="#3F4A5C"/>
<path d="M20.1283 63.2123H19.8393C19.6467 63.2123 19.4541 63.0187 19.4541 62.8251C19.4541 62.6315 19.6467 62.4379 19.8393 62.4379H20.1283C20.3209 62.4379 20.5135 62.6315 20.5135 62.8251C20.5135 63.0187 20.3209 63.2123 20.1283 63.2123Z" fill="#3F4A5C"/>
<path d="M20.1283 65.0515H19.8393C19.6467 65.0515 19.4541 64.8579 19.4541 64.6643C19.4541 64.4707 19.6467 64.2771 19.8393 64.2771H20.1283C20.3209 64.2771 20.5135 64.4707 20.5135 64.6643C20.5135 64.8579 20.3209 65.0515 20.1283 65.0515Z" fill="#3F4A5C"/>
<path d="M20.1283 66.8908H19.8393C19.6467 66.8908 19.4541 66.6971 19.4541 66.5035C19.4541 66.3099 19.6467 66.1163 19.8393 66.1163H20.1283C20.3209 66.1163 20.5135 66.3099 20.5135 66.5035C20.5135 66.6971 20.3209 66.8908 20.1283 66.8908Z" fill="#3F4A5C"/>
<path d="M20.1283 68.73H19.8393C19.6467 68.73 19.4541 68.5364 19.4541 68.3428C19.4541 68.1492 19.6467 67.9556 19.8393 67.9556H20.1283C20.3209 67.9556 20.5135 68.1492 20.5135 68.3428C20.5135 68.5364 20.3209 68.73 20.1283 68.73Z" fill="#3F4A5C"/>
<path d="M20.1283 70.4724H19.8393C19.6467 70.4724 19.4541 70.2788 19.4541 70.0852C19.4541 69.8916 19.6467 69.698 19.8393 69.698H20.1283C20.3209 69.698 20.5135 69.8916 20.5135 70.0852C20.5135 70.2788 20.3209 70.4724 20.1283 70.4724Z" fill="#3F4A5C"/>
<path d="M30.337 45.0133H23.4028C23.2102 45.0133 23.0176 44.8197 23.0176 44.6261C23.0176 44.4325 23.2102 44.2389 23.4028 44.2389H30.337C30.5296 44.2389 30.7222 44.4325 30.7222 44.6261C30.7222 44.8197 30.5296 45.0133 30.337 45.0133Z" fill="#3F4A5C"/>
<path d="M48.9244 45.0133H31.6853C31.4927 45.0133 31.3 44.8197 31.3 44.6261C31.3 44.4325 31.4927 44.2389 31.6853 44.2389H48.9244C49.1171 44.2389 49.3097 44.4325 49.3097 44.6261C49.3097 44.8197 49.2134 45.0133 48.9244 45.0133Z" fill="#3F4A5C"/>
<path d="M56.4365 45.0133H51.4284C51.2358 45.0133 51.0432 44.8197 51.0432 44.6261C51.0432 44.4325 51.2358 44.2389 51.4284 44.2389H56.4365C56.6291 44.2389 56.8217 44.4325 56.8217 44.6261C56.8217 44.8197 56.6291 45.0133 56.4365 45.0133Z" fill="#3F4A5C"/>
<path d="M60.5776 45.0133H58.9404C58.7478 45.0133 58.5552 44.8197 58.5552 44.6261C58.5552 44.4325 58.7478 44.2389 58.9404 44.2389H60.5776C60.7703 44.2389 60.9629 44.4325 60.9629 44.6261C60.9629 44.8197 60.7703 45.0133 60.5776 45.0133Z" fill="#3F4A5C"/>
<path d="M34.767 46.7557H26.0029C25.8103 46.7557 25.6177 46.5621 25.6177 46.3685C25.6177 46.1749 25.8103 45.9813 26.0029 45.9813H34.767C34.9596 45.9813 35.1522 46.1749 35.1522 46.3685C35.1522 46.5621 34.9596 46.7557 34.767 46.7557Z" fill="#3F4A5C"/>
<path d="M34.767 54.016H26.0029C25.8103 54.016 25.6177 53.8224 25.6177 53.6288C25.6177 53.4352 25.8103 53.2416 26.0029 53.2416H34.767C34.9596 53.2416 35.1522 53.4352 35.1522 53.6288C35.1522 53.9192 34.9596 54.016 34.767 54.016Z" fill="#3F4A5C"/>
<path d="M32.4556 55.8552H26.0029C25.8103 55.8552 25.6177 55.6616 25.6177 55.468C25.6177 55.2744 25.8103 55.0808 26.0029 55.0808H32.4556C32.6482 55.0808 32.8408 55.2744 32.8408 55.468C32.8408 55.6616 32.6482 55.8552 32.4556 55.8552Z" fill="#3F4A5C"/>
<path d="M49.4061 55.8552H34.1894C33.9968 55.8552 33.8042 55.6616 33.8042 55.468C33.8042 55.2744 33.9968 55.0808 34.1894 55.0808H49.4061C49.5987 55.0808 49.7914 55.2744 49.7914 55.468C49.7914 55.6616 49.5987 55.8552 49.4061 55.8552Z" fill="#3F4A5C"/>
<path d="M37.2711 48.595H29.0849C28.8923 48.595 28.6997 48.4014 28.6997 48.2078C28.6997 48.0142 28.8923 47.8206 29.0849 47.8206H37.2711C37.4638 47.8206 37.6564 48.0142 37.6564 48.2078C37.6564 48.4014 37.4638 48.595 37.2711 48.595Z" fill="#3F4A5C"/>
<path d="M41.7977 48.595H38.5232C38.3306 48.595 38.1379 48.4014 38.1379 48.2078C38.1379 48.0142 38.3306 47.8206 38.5232 47.8206H41.894C42.0866 47.8206 42.2792 48.0142 42.2792 48.2078C42.2792 48.4014 42.0866 48.595 41.7977 48.595Z" fill="#3F4A5C"/>
<path d="M51.6211 50.4342H29.0849C28.8923 50.4342 28.6997 50.2406 28.6997 50.047C28.6997 49.8534 28.8923 49.6598 29.0849 49.6598H51.6211C51.8137 49.6598 52.0063 49.8534 52.0063 50.047C52.0063 50.2406 51.8137 50.4342 51.6211 50.4342Z" fill="#3F4A5C"/>
<path d="M55.6661 50.4342H53.5473C53.3547 50.4342 53.1621 50.2406 53.1621 50.047C53.1621 49.8534 53.3547 49.6598 53.5473 49.6598H55.6661C55.8587 49.6598 56.0514 49.8534 56.0514 50.047C56.0514 50.2406 55.8587 50.4342 55.6661 50.4342Z" fill="#3F4A5C"/>
<path d="M63.756 50.4342H57.207C57.0144 50.4342 56.8218 50.2406 56.8218 50.047C56.8218 49.8534 57.0144 49.6598 57.207 49.6598H63.756C63.9486 49.6598 64.1412 49.8534 64.1412 50.047C64.1412 50.2406 63.9486 50.4342 63.756 50.4342Z" fill="#3F4A5C"/>
<path d="M44.5906 52.2736H29.0849C28.8923 52.2736 28.6997 52.08 28.6997 51.8864C28.6997 51.6927 28.8923 51.4991 29.0849 51.4991H44.5906C44.7832 51.4991 44.9758 51.6927 44.9758 51.8864C44.9758 52.08 44.7832 52.2736 44.5906 52.2736Z" fill="#3F4A5C"/>
<path d="M37.7528 59.5337H31.7817C31.5891 59.5337 31.3965 59.3401 31.3965 59.1465C31.3965 58.9529 31.5891 58.7593 31.7817 58.7593H37.8491C38.0418 58.7593 38.2344 58.9529 38.2344 59.1465C38.1381 59.3401 38.0418 59.5337 37.7528 59.5337Z" fill="#3F4A5C"/>
<path d="M45.5537 59.5337H39.1011C38.9084 59.5337 38.7158 59.3401 38.7158 59.1465C38.7158 58.9529 38.9084 58.7593 39.1011 58.7593H45.5537C45.7463 58.7593 45.9389 58.9529 45.9389 59.1465C45.9389 59.3401 45.7463 59.5337 45.5537 59.5337Z" fill="#3F4A5C"/>
<path d="M51.4283 59.5337H46.9018C46.7092 59.5337 46.5166 59.3401 46.5166 59.1465C46.5166 58.9529 46.7092 58.7593 46.9018 58.7593H51.4283C51.6209 58.7593 51.8136 58.9529 51.8136 59.1465C51.8136 59.3401 51.6209 59.5337 51.4283 59.5337Z" fill="#3F4A5C"/>
<path d="M55.4735 59.5337H53.1621C52.9695 59.5337 52.7769 59.3401 52.7769 59.1465C52.7769 58.9529 52.9695 58.7593 53.1621 58.7593H55.4735C55.6661 58.7593 55.8587 58.9529 55.8587 59.1465C55.8587 59.3401 55.6661 59.5337 55.4735 59.5337Z" fill="#3F4A5C"/>
<path d="M37.7528 64.9547H31.7817C31.5891 64.9547 31.3965 64.7611 31.3965 64.5675C31.3965 64.3739 31.5891 64.1803 31.7817 64.1803H37.8491C38.0418 64.1803 38.2344 64.3739 38.2344 64.5675C38.2344 64.7611 38.0418 64.9547 37.7528 64.9547Z" fill="#3F4A5C"/>
<path d="M51.3323 70.3756H31.7817C31.5891 70.3756 31.3965 70.182 31.3965 69.9884C31.3965 69.7948 31.5891 69.698 31.7817 69.698H51.4286C51.6212 69.698 51.8138 69.8916 51.8138 70.0852C51.8138 70.2788 51.6212 70.3756 51.3323 70.3756Z" fill="#3F4A5C"/>
<path d="M40.4492 61.2761H34.3818C34.1892 61.2761 33.9966 61.0825 33.9966 60.8889C33.9966 60.6953 34.1892 60.5017 34.3818 60.5017H40.4492C40.6418 60.5017 40.8345 60.6953 40.8345 60.8889C40.8345 61.0825 40.6418 61.2761 40.4492 61.2761Z" fill="#3F4A5C"/>
<path d="M50.369 61.2761H41.7976C41.605 61.2761 41.4124 61.0825 41.4124 60.8889C41.4124 60.6953 41.605 60.5017 41.7976 60.5017H50.369C50.5616 60.5017 50.7542 60.6953 50.7542 60.8889C50.7542 61.0825 50.5616 61.2761 50.369 61.2761Z" fill="#3F4A5C"/>
<path d="M55.9551 61.2761H51.5249C51.3323 61.2761 51.1396 61.0825 51.1396 60.8889C51.1396 60.6953 51.3323 60.5017 51.5249 60.5017H55.9551C56.1477 60.5017 56.3403 60.6953 56.3403 60.8889C56.3403 61.0825 56.1477 61.2761 55.9551 61.2761Z" fill="#3F4A5C"/>
<path d="M58.7478 61.2761H57.3032C57.1106 61.2761 56.918 61.0825 56.918 60.8889C56.918 60.6953 57.1106 60.5017 57.3032 60.5017H58.7478C58.9404 60.5017 59.1331 60.6953 59.1331 60.8889C59.1331 61.0825 58.9404 61.2761 58.7478 61.2761Z" fill="#3F4A5C"/>
<path d="M41.8937 63.1155H34.478C34.2854 63.1155 34.0928 62.9219 34.0928 62.7283C34.0928 62.5347 34.2854 62.3411 34.478 62.3411H41.8937C42.0864 62.3411 42.279 62.5347 42.279 62.7283C42.279 62.9219 42.0864 63.1155 41.8937 63.1155Z" fill="#3F4A5C"/>
<path d="M45.3608 63.1155H43.3384C43.1457 63.1155 42.9531 62.9219 42.9531 62.7283C42.9531 62.5347 43.1457 62.3411 43.3384 62.3411H45.3608C45.5534 62.3411 45.7461 62.5347 45.7461 62.7283C45.6498 62.9219 45.5534 63.1155 45.3608 63.1155Z" fill="#3F4A5C"/>
<path d="M62.0225 63.1155H46.7095C46.5168 63.1155 46.3242 62.9219 46.3242 62.7283C46.3242 62.5347 46.5168 62.3411 46.7095 62.3411H62.0225C62.2151 62.3411 62.4077 62.5347 62.4077 62.7283C62.4077 62.9219 62.3114 63.1155 62.0225 63.1155Z" fill="#3F4A5C"/>
<path d="M37.7528 57.6945H28.9887C28.7961 57.6945 28.6035 57.5009 28.6035 57.3073C28.6035 57.1137 28.7961 56.92 28.9887 56.92H37.7528C37.9454 56.92 38.138 57.1137 38.138 57.3073C38.138 57.5009 38.0417 57.6945 37.7528 57.6945Z" fill="#3F4A5C"/>
<path d="M41.5086 57.6945H39.1972C39.0046 57.6945 38.812 57.5009 38.812 57.3073C38.812 57.1137 39.0046 56.92 39.1972 56.92H41.5086C41.7013 56.92 41.8939 57.1137 41.8939 57.3073C41.8939 57.5009 41.7013 57.6945 41.5086 57.6945Z" fill="#3F4A5C"/>
<path d="M37.7528 66.794H28.9887C28.7961 66.794 28.6035 66.6003 28.6035 66.4067C28.6035 66.2131 28.7961 66.0195 28.9887 66.0195H37.7528C37.9454 66.0195 38.138 66.2131 38.138 66.4067C38.138 66.6003 38.0417 66.794 37.7528 66.794Z" fill="#3F4A5C"/>
<path d="M44.6869 68.5364H29.0849C28.8923 68.5364 28.6997 68.3428 28.6997 68.1492C28.6997 67.9556 28.8923 67.762 29.0849 67.762H44.6869C44.8795 67.762 45.0721 67.9556 45.0721 68.1492C45.0721 68.3428 44.8795 68.5364 44.6869 68.5364Z" fill="#3F4A5C"/>
<path d="M51.4285 68.5364H45.9389C45.7463 68.5364 45.5537 68.3428 45.5537 68.1492C45.5537 67.9556 45.7463 67.762 45.9389 67.762H51.4285C51.6211 67.762 51.8137 67.9556 51.8137 68.1492C51.8137 68.3428 51.6211 68.5364 51.4285 68.5364Z" fill="#3F4A5C"/>
<path d="M54.9919 68.5364H52.7768C52.5842 68.5364 52.3916 68.3428 52.3916 68.1492C52.3916 67.9556 52.5842 67.762 52.7768 67.762H54.9919C55.1845 67.762 55.3772 67.9556 55.3772 68.1492C55.3772 68.3428 55.2808 68.5364 54.9919 68.5364Z" fill="#3F4A5C"/>
<path opacity="0.3" d="M66.2601 36.3978C66.6453 45.1101 67.7047 55.2744 70.1124 65.2451C72.6164 66.0195 74.7352 67.6651 76.0835 69.8916C80.4174 70.0852 84.0771 73.0861 85.3291 77.055C86.0995 72.8925 89.374 69.5044 93.6116 68.8268C95.1525 66.6971 97.4639 65.2451 100.064 64.7611V84.896H18.106V66.7939C19.6469 65.8259 21.4767 65.2451 23.4992 65.2451C27.4479 65.2451 30.9149 67.5683 32.6485 70.8596C34.5747 68.4396 37.4639 66.9875 40.6421 66.9875C42.6645 66.9875 44.5907 67.5683 46.2279 68.6332C46.9021 64.5675 49.8877 61.2762 53.74 60.3081C55.3772 51.9831 56.244 43.7548 56.5329 36.4946H66.2601V36.3978Z" fill="black"/>
<path d="M109.791 93.7052C109.791 96.1253 107.769 98.0613 105.265 98.0613H13.1942C10.6902 98.0613 8.66772 96.1253 8.66772 93.7052H50.2729C50.6581 94.6732 51.6212 95.3508 52.6806 95.3508H65.6822C66.8379 95.3508 67.8009 94.6732 68.0899 93.7052H109.791Z" fill="#464D5F"/>
<path d="M61.1557 80.6368C60.6742 80.3464 60.0964 80.3464 59.6148 80.6368C52.9695 85.0898 42.183 91.0915 48.1541 78.5072C54.0289 66.2132 55.9551 51.112 56.4366 39.4956C56.4366 38.7212 57.1108 38.1404 57.785 38.1404H62.8893C63.6598 38.1404 64.2376 38.7212 64.2376 39.4956C64.7191 51.112 66.6453 66.31 72.5201 78.5072C78.5875 91.0915 67.8973 85.0898 61.1557 80.6368Z" fill="#A7AEC0"/>
<path d="M69.4382 80.9272C67.801 80.1528 65.4896 78.7975 62.504 76.7647L60.3852 75.3126L58.2665 76.7647C55.2809 78.7975 52.9695 80.1528 51.3323 80.9272C51.4286 80.7336 51.5249 80.4432 51.6212 80.2496C57.496 67.9556 59.5185 53.3384 60.1926 42.0125H60.5779C61.1557 53.2416 63.2745 67.9556 69.1493 80.2496C69.2456 80.54 69.3419 80.7336 69.4382 80.9272Z" fill="#74849B"/>
<path d="M66.0674 69.8917C66.0674 74.635 62.2151 78.5072 57.496 78.5072C55.0883 78.5072 52.9695 77.5391 51.4286 75.9903C49.8876 74.4414 48.9246 72.3118 48.9246 69.8917C48.9246 65.1484 52.7769 61.2762 57.496 61.2762C58.8443 61.2762 60 61.5667 61.1557 62.1475C64.0449 63.5027 66.0674 66.5036 66.0674 69.8917Z" fill="#74849B"/>
<path d="M63.6597 68.2456C63.6597 72.9889 59.8074 76.861 55.0883 76.861C53.74 76.861 52.5843 76.5706 51.4286 76.0866C49.8876 74.5377 48.9246 72.4081 48.9246 69.988C48.9246 65.2447 52.7769 61.3726 57.496 61.3726C58.8443 61.3726 60 61.663 61.1557 62.2438C62.6966 63.6958 63.6597 65.8255 63.6597 68.2456Z" fill="#A7AEC0"/>
<path d="M55.1846 78.7007C55.1846 83.444 51.3323 87.3161 46.6132 87.3161C44.2055 87.3161 42.0867 86.3481 40.5458 84.7992C39.0048 83.2504 38.0417 81.1207 38.0417 78.7007C38.0417 73.9573 41.8941 70.0852 46.6132 70.0852C47.9615 70.0852 49.1172 70.3756 50.2729 70.9564C53.2584 72.3117 55.1846 75.2158 55.1846 78.7007Z" fill="#74849B"/>
<path d="M52.7769 76.9582C52.7769 81.7015 48.9246 85.5737 44.2055 85.5737C42.8572 85.5737 41.7015 85.2832 40.5458 84.7992C39.0048 83.2504 38.0417 81.1207 38.0417 78.7007C38.0417 73.9573 41.8941 70.0852 46.6132 70.0852C47.9615 70.0852 49.1172 70.3756 50.2729 70.9564C51.8138 72.5053 52.7769 74.6349 52.7769 76.9582Z" fill="#A7AEC0"/>
<path d="M76.9502 78.023C76.9502 82.7664 73.0979 86.6385 68.3788 86.6385C65.9711 86.6385 63.8523 85.6705 62.3114 84.1216C60.7705 82.5728 59.8074 80.4431 59.8074 78.023C59.8074 73.2797 63.6597 69.4076 68.3788 69.4076C69.7271 69.4076 70.8828 69.698 72.0385 70.2788C74.9278 71.5373 76.9502 74.5381 76.9502 78.023Z" fill="#74849B"/>
<path d="M74.5425 76.2806C74.5425 81.0239 70.6902 84.896 65.9711 84.896C64.6228 84.896 63.4671 84.6056 62.3114 84.1216C60.7705 82.5728 59.8074 80.4431 59.8074 78.023C59.8074 73.2797 63.6597 69.4076 68.3788 69.4076C69.7271 69.4076 70.8828 69.698 72.0385 70.2788C73.5794 71.7309 74.5425 73.8605 74.5425 76.2806Z" fill="#A7AEC0"/>
<path d="M36.4046 84.0249C36.4046 88.7682 32.5522 92.6403 27.8331 92.6403C25.4254 92.6403 23.3067 91.6723 21.7657 90.1235C20.2248 88.5746 19.2617 86.4449 19.2617 84.0249C19.2617 79.2815 23.114 75.4094 27.8331 75.4094C29.1815 75.4094 30.3372 75.6998 31.4929 76.2807C34.3821 77.6359 36.4046 80.6368 36.4046 84.0249Z" fill="#74849B"/>
<path d="M33.9007 82.2824C33.9007 87.0258 30.0484 90.8979 25.3293 90.8979C23.9809 90.8979 22.8252 90.6075 21.6695 90.1235C20.1286 88.5746 19.1655 86.445 19.1655 84.0249C19.1655 79.2815 23.0179 75.4094 27.737 75.4094C29.0853 75.4094 30.241 75.6998 31.3967 76.2807C33.0339 77.8295 33.9007 79.9592 33.9007 82.2824Z" fill="#74849B"/>
<path d="M83.8846 84.1217C83.8846 88.865 80.0322 92.7371 75.3131 92.7371C72.9054 92.7371 70.7866 91.7691 69.2457 90.2203C67.7048 88.6714 66.7417 86.5418 66.7417 84.1217C66.7417 79.3783 70.594 75.5062 75.3131 75.5062C76.6614 75.5062 77.8171 75.7966 78.9728 76.3775C81.8621 77.7327 83.8846 80.7336 83.8846 84.1217Z" fill="#74849B"/>
<path d="M81.4768 82.4755C81.4768 87.2189 77.6245 91.091 72.9054 91.091C71.5571 91.091 70.4014 90.8006 69.2457 90.3166C67.7048 88.7677 66.7417 86.6381 66.7417 84.218C66.7417 79.4747 70.594 75.6025 75.3131 75.6025C76.6614 75.6025 77.8171 75.8929 78.9728 76.4738C80.5138 77.9258 81.4768 80.0555 81.4768 82.4755Z" fill="#74849B"/>
<path d="M65.6822 80.3464C65.6822 85.0898 61.8298 88.9619 57.1107 88.9619C54.703 88.9619 52.5842 87.9938 51.0433 86.445C49.5024 84.8961 48.5393 82.7665 48.5393 80.3464C48.5393 75.6031 52.3916 71.731 57.1107 71.731C58.459 71.731 59.6147 72.0214 60.7704 72.6022C63.756 73.9574 65.6822 76.9583 65.6822 80.3464Z" fill="#74849B"/>
<path d="M63.2745 78.604C63.2745 83.3473 59.4221 87.2194 54.703 87.2194C53.3547 87.2194 52.199 86.929 51.0433 86.445C49.5024 84.8961 48.5393 82.7665 48.5393 80.3464C48.5393 75.6031 52.3916 71.731 57.1107 71.731C58.459 71.731 59.6147 72.0214 60.7704 72.6022C62.3114 74.151 63.2745 76.2807 63.2745 78.604Z" fill="#A7AEC0"/>
<path d="M84.3661 80.1528C84.3661 83.3473 81.7657 85.8641 78.6839 85.8641C77.143 85.8641 75.6983 85.1865 74.6389 84.1217C73.5796 83.0569 73.0017 81.6048 73.0017 80.056C73.0017 76.8615 75.602 74.3446 78.6839 74.3446C79.5507 74.3446 80.4174 74.5382 81.0916 74.9254C83.0178 75.8934 84.3661 77.8295 84.3661 80.1528Z" fill="#74849B"/>
<path d="M82.7288 78.9911C82.7288 82.1856 80.1285 84.7025 77.0466 84.7025C76.1799 84.7025 75.3131 84.5089 74.6389 84.1217C73.5796 83.0569 73.0017 81.6048 73.0017 80.056C73.0017 76.8615 75.602 74.3446 78.6839 74.3446C79.5507 74.3446 80.4174 74.5382 81.0916 74.9254C82.0547 75.9903 82.7288 77.4423 82.7288 78.9911Z" fill="#A7AEC0"/>
<path d="M96.7897 89.1555C96.7897 92.35 94.1893 94.8668 91.1075 94.8668C89.5665 94.8668 88.1219 94.1892 87.0625 93.1244C86.0031 92.0595 85.4253 90.6075 85.4253 89.0587C85.4253 85.8642 88.0256 83.3473 91.1075 83.3473C91.9743 83.3473 92.841 83.5409 93.5152 83.9281C95.4413 84.8961 96.7897 86.8322 96.7897 89.1555Z" fill="#74849B"/>
<path d="M95.1524 87.9938C95.1524 91.1883 92.5521 93.7052 89.4702 93.7052C88.6035 93.7052 87.7367 93.5116 87.0625 93.1244C86.0031 92.0595 85.4253 90.6075 85.4253 89.0587C85.4253 85.8642 88.0256 83.3473 91.1075 83.3473C91.9743 83.3473 92.841 83.5409 93.5152 83.9281C94.5746 84.9929 95.1524 86.445 95.1524 87.9938Z" fill="#74849B"/>
<path d="M24.1734 87.6065C24.1734 90.801 21.5731 93.3179 18.4913 93.3179C16.9503 93.3179 15.5057 92.6403 14.4463 91.5754C13.3869 90.5106 12.8091 89.0586 12.8091 87.5097C12.8091 84.3152 15.4094 81.7983 18.4913 81.7983C19.358 81.7983 20.2248 81.9919 20.899 82.3792C22.8251 83.3472 24.1734 85.38 24.1734 87.6065Z" fill="#74849B"/>
<path d="M22.5362 86.5412C22.5362 89.7357 19.9359 92.2526 16.854 92.2526C15.9873 92.2526 15.1205 92.0589 14.4463 91.6717C13.3869 90.6069 12.8091 89.1549 12.8091 87.606C12.8091 84.4115 15.4094 81.8947 18.4913 81.8947C19.358 81.8947 20.2248 82.0883 20.899 82.4755C21.8621 83.4435 22.5362 84.8955 22.5362 86.5412Z" fill="#A7AEC0"/>
<path d="M24.6549 79.2816C24.6549 82.4761 22.0546 84.9929 18.9727 84.9929C17.4318 84.9929 15.9872 84.3153 14.9278 83.2505C13.8684 82.1856 13.2905 80.7336 13.2905 79.1848C13.2905 75.9903 15.8908 73.4734 18.9727 73.4734C19.8395 73.4734 20.7063 73.667 21.3804 74.0542C23.3066 75.0222 24.6549 76.9583 24.6549 79.2816Z" fill="#74849B"/>
<path d="M23.0177 78.1199C23.0177 81.3144 20.4173 83.8313 17.3355 83.8313C16.4687 83.8313 15.6019 83.6377 14.9278 83.2505C13.8684 82.1856 13.2905 80.7336 13.2905 79.1848C13.2905 75.9903 15.8908 73.4734 18.9727 73.4734C19.8395 73.4734 20.7063 73.667 21.3804 74.0542C22.3435 75.119 23.0177 76.5711 23.0177 78.1199Z" fill="#A7AEC0"/>
<path d="M101.509 77.3455C101.509 80.54 98.9086 83.0569 95.8267 83.0569C94.2858 83.0569 92.8412 82.3793 91.7818 81.3144C90.7224 80.2496 90.1445 78.7976 90.1445 77.2487C90.1445 74.0542 92.7449 71.5374 95.8267 71.5374C96.6935 71.5374 97.5603 71.731 98.2344 72.1182C100.257 73.0862 101.509 75.0223 101.509 77.3455Z" fill="#74849B"/>
<path d="M99.9679 76.1839C99.9679 79.3784 97.3675 81.8953 94.2857 81.8953C93.4189 81.8953 92.5521 81.7016 91.878 81.3144C90.8186 80.2496 90.2407 78.7976 90.2407 77.2487C90.2407 74.0542 92.841 71.5374 95.9229 71.5374C96.7897 71.5374 97.6565 71.731 98.3306 72.1182C99.2937 73.183 99.9679 74.635 99.9679 76.1839Z" fill="#74849B"/>
<path d="M91.4927 85.6705C91.4927 89.0586 88.6998 91.8659 85.329 91.8659C83.5955 91.8659 82.0545 91.1882 80.9951 90.0266C79.9358 88.865 79.1653 87.4129 79.1653 85.6705C79.1653 82.2824 81.9582 79.4751 85.329 79.4751C86.2921 79.4751 87.1589 79.6687 87.9293 80.0559C90.1444 81.0239 91.4927 83.1536 91.4927 85.6705Z" fill="#74849B"/>
<path d="M89.7592 84.412C89.7592 87.8001 86.9663 90.6074 83.5955 90.6074C82.6324 90.6074 81.7656 90.4138 80.9951 90.0266C79.9358 88.865 79.1653 87.4129 79.1653 85.6705C79.1653 82.2824 81.9582 79.4751 85.329 79.4751C86.2921 79.4751 87.1589 79.6687 87.9293 80.0559C89.085 81.2175 89.7592 82.7664 89.7592 84.412Z" fill="#74849B"/>
<path d="M109.888 83.8312C109.888 87.2193 107.095 90.0266 103.724 90.0266C101.99 90.0266 100.45 89.349 99.3902 88.1874C98.3308 87.0257 97.5603 85.5737 97.5603 83.8312C97.5603 80.4431 100.353 77.6359 103.724 77.6359C104.687 77.6359 105.554 77.8295 106.324 78.2167C108.443 79.1847 109.888 81.3144 109.888 83.8312Z" fill="#74849B"/>
<path d="M108.154 82.5728C108.154 85.9609 105.361 88.7682 101.99 88.7682C101.027 88.7682 100.161 88.5746 99.3902 88.1874C98.3308 87.0257 97.5603 85.5737 97.5603 83.8312C97.5603 80.4431 100.353 77.6359 103.724 77.6359C104.687 77.6359 105.554 77.8295 106.324 78.2167C107.48 79.3783 108.154 80.8304 108.154 82.5728Z" fill="#A7AEC0"/>
<path d="M46.228 84.1217C46.228 87.9938 43.0498 91.1883 39.1975 91.1883C37.2713 91.1883 35.4415 90.4138 34.1895 89.0586C32.9375 87.8002 32.167 86.0577 32.167 84.1217C32.167 80.2496 35.3452 77.0551 39.1975 77.0551C40.2569 77.0551 41.3163 77.3455 42.183 77.7327C44.5907 78.8943 46.228 81.3144 46.228 84.1217Z" fill="#74849B"/>
<path d="M44.2055 82.7659C44.2055 86.638 41.0273 89.8325 37.175 89.8325C36.1156 89.8325 35.0562 89.5421 34.1895 89.1549C32.9375 87.8965 32.167 86.154 32.167 84.218C32.167 80.3459 35.3452 77.1514 39.1975 77.1514C40.2569 77.1514 41.3163 77.4418 42.183 77.829C43.435 79.0874 44.2055 80.8299 44.2055 82.7659Z" fill="#A7AEC0"/>
<path d="M37.1748 87.897C37.1748 91.2851 34.4781 93.9956 31.1073 93.9956C29.4701 93.9956 27.9292 93.318 26.8698 92.2532C25.8104 91.1883 25.1362 89.6395 25.1362 87.9938C25.1362 84.6057 27.8329 81.8953 31.2036 81.8953C32.1667 81.8953 33.0335 82.0889 33.804 82.4761C35.7301 83.3473 37.1748 85.477 37.1748 87.897Z" fill="#74849B"/>
<path d="M35.4413 86.7354C35.4413 90.1235 32.7447 92.834 29.3739 92.834C28.4108 92.834 27.5441 92.6404 26.7736 92.2532C25.7142 91.1883 25.04 89.6395 25.04 87.9938C25.04 84.6057 27.7367 81.8953 31.1075 81.8953C32.0705 81.8953 32.9373 82.0889 33.7078 82.4761C34.7672 83.5409 35.4413 84.993 35.4413 86.7354Z" fill="#74849B"/>
<path d="M28.2182 88.8651C28.2182 92.2532 25.5216 94.9636 22.1508 94.9636C20.5136 94.9636 18.9726 94.286 17.9132 93.2212C16.8538 92.1564 16.1797 90.6075 16.1797 88.9619C16.1797 85.5738 18.8763 82.8633 22.2471 82.8633C23.2102 82.8633 24.077 83.0569 24.8474 83.4441C26.8699 84.3153 28.2182 86.445 28.2182 88.8651Z" fill="#74849B"/>
<path d="M26.581 87.7034C26.581 91.0915 23.8843 93.802 20.5136 93.802C19.5505 93.802 18.6837 93.6084 17.9132 93.2212C16.8538 92.1564 16.1797 90.6075 16.1797 88.9619C16.1797 85.5738 18.8763 82.8633 22.2471 82.8633C23.2102 82.8633 24.077 83.0569 24.8474 83.4441C25.9068 84.5089 26.581 85.961 26.581 87.7034Z" fill="#A7AEC0"/>
<path d="M54.1253 17.0373C53.2585 21.0062 52.3917 25.6527 46.8059 30.7833C46.1317 31.3641 45.8428 32.2353 45.8428 33.0097V35.5266H57.0145L56.6293 14.6172L54.1253 17.0373Z" fill="#7C8AA0"/>
<path d="M67.0306 17.0373C67.8974 21.0062 68.7641 25.6527 74.35 30.7833C75.0242 31.3641 75.3131 32.2353 75.3131 33.0097V35.5266H64.1414L64.5266 14.6172L67.0306 17.0373Z" fill="#7C8AA0"/>
<path d="M67.1267 14.9076C67.1267 21.587 67.1267 35.6234 67.1267 35.6234H54.0288C54.0288 35.6234 54.0288 21.587 54.0288 14.9076C54.0288 8.22822 56.9181 5.03373 60.5778 1.45203C62.1187 3.00087 63.467 4.45291 64.6227 6.09856C66.1636 8.32503 67.1267 10.9387 67.1267 14.9076Z" fill="#A7AEC0"/>
<path d="M60.578 1.35524C62.1189 2.90409 63.4672 4.35613 64.6229 6.00178C66.1638 8.32504 67.1269 11.0355 67.1269 14.9076C67.1269 21.587 67.1269 35.6234 67.1269 35.6234H54.029C54.029 35.6234 54.029 21.587 54.029 14.9076C54.029 8.13144 56.9182 5.03375 60.578 1.35524ZM60.578 0L59.9038 0.67762C56.533 4.06572 53.0659 7.55062 53.0659 14.9076V35.6234V36.5915H54.029H67.1269H68.09V35.6234V14.9076C68.09 11.2291 67.2232 8.22824 65.3934 5.51776C64.2377 3.77531 62.793 2.22647 61.2521 0.774423L60.578 0Z" fill="#4B5A72"/>
<path d="M67.1269 14.9077C67.1269 21.5871 67.1269 35.6235 67.1269 35.6235H62.6005C62.5041 35.1395 62.5042 34.5587 62.5042 33.9779C62.5042 32.6226 62.5042 31.1706 62.5042 29.7185C62.5042 28.8473 62.5041 27.8793 63.082 27.2017C63.3709 26.8144 63.8525 26.6208 64.2377 26.2336C64.9119 25.4592 64.9119 24.2976 64.9119 23.3295C64.8155 20.0382 64.7192 16.7469 64.6229 13.4557C64.6229 12.294 64.5266 11.0356 64.5266 9.87395C64.5266 9.29313 64.5266 8.61551 64.4303 8.03469C64.4303 7.55068 64.2377 6.77626 64.4303 6.19544C64.5266 6.00183 64.6229 5.90503 64.7192 5.90503C66.1639 8.3251 67.1269 10.9388 67.1269 14.9077Z" fill="#3D4960"/>
<path d="M60.5778 15.0044C61.7479 15.0044 62.6965 14.051 62.6965 12.8748C62.6965 11.6986 61.7479 10.7451 60.5778 10.7451C59.4076 10.7451 58.459 11.6986 58.459 12.8748C58.459 14.051 59.4076 15.0044 60.5778 15.0044Z" fill="#3D4960" stroke="#7D9AFF" stroke-width="2" stroke-miterlimit="10"/>
<path d="M55.8588 38.0436H52.1991C51.9101 38.0436 51.7175 37.85 51.7175 37.5596V30.0089C51.7175 28.7505 52.7769 27.6857 54.0289 27.6857C55.2809 27.6857 56.3403 28.7505 56.3403 30.0089V37.5596C56.4366 37.7532 56.1477 38.0436 55.8588 38.0436Z" fill="#A7AEC0"/>
<path d="M68.8605 38.0436H65.2008C64.9119 38.0436 64.7192 37.85 64.7192 37.5596V30.0089C64.7192 28.7505 65.7786 27.6857 67.0306 27.6857C68.2826 27.6857 69.342 28.7505 69.342 30.0089V37.5596C69.342 37.7532 69.1494 38.0436 68.8605 38.0436Z" fill="#A7AEC0"/>
<path d="M69.3421 29.9121V37.4628C69.3421 37.7532 69.1495 37.9468 68.8606 37.9468H68.1864V31.3642C68.2827 30.493 68.0901 29.6217 67.5123 28.8473C67.2233 28.3633 66.5492 28.0729 66.2603 27.5889C66.4529 27.4921 66.7418 27.4921 66.9344 27.4921C67.6086 27.4921 68.1864 27.7825 68.5716 28.1697C68.9569 28.5569 69.3421 29.2345 69.3421 29.9121Z" fill="#3D4960"/>
<path d="M56.4368 29.9121V37.4628C56.4368 37.7532 56.2442 37.9468 55.9553 37.9468H55.2811V31.3642C55.3775 30.493 55.1848 29.6217 54.607 28.8473C54.3181 28.3633 53.6439 28.0729 53.355 27.5889C53.5476 27.4921 53.8365 27.4921 54.0291 27.4921C54.7033 27.4921 55.2811 27.7825 55.6664 28.1697C56.0516 28.5569 56.4368 29.2345 56.4368 29.9121Z" fill="#3D4960"/>
<path d="M63.082 41.4317C63.082 42.8837 60.4817 46.3686 60.4817 46.3686C60.4817 46.3686 57.8813 42.8837 57.8813 41.4317C57.8813 39.9796 59.037 38.818 60.4817 38.818C61.9263 38.818 63.082 39.9796 63.082 41.4317Z" fill="url(#paint3_linear_107_1571)"/>
<path d="M68.6678 40.27C68.6678 41.1413 67.1269 43.0773 67.1269 43.0773C67.1269 43.0773 65.5859 41.0445 65.5859 40.27C65.5859 39.4956 66.2601 38.7212 67.1269 38.7212C67.9936 38.818 68.6678 39.4956 68.6678 40.27Z" fill="url(#paint4_linear_107_1571)"/>
<path d="M55.4737 40.27C55.4737 41.1413 53.9328 43.0773 53.9328 43.0773C53.9328 43.0773 52.3918 41.0445 52.3918 40.27C52.3918 39.4956 53.066 38.7212 53.9328 38.7212C54.7995 38.818 55.4737 39.4956 55.4737 40.27Z" fill="url(#paint5_linear_107_1571)"/>
<path d="M61.0595 16.6502C61.0595 16.4565 60.8669 16.2629 60.6743 16.2629C60.4817 16.2629 60.2891 16.4565 60.2891 16.6502V35.7203H61.0595V16.6502Z" fill="#4B5A72"/>
<path d="M53.9324 86.5417C53.9324 91.2851 50.0801 95.1572 45.361 95.1572C42.9533 95.1572 40.8345 94.1891 39.2936 92.6403C37.7526 91.0915 36.7896 88.9618 36.7896 86.5417C36.7896 81.7984 40.6419 77.9263 45.361 77.9263C46.7093 77.9263 47.865 78.2167 49.0207 78.7975C51.9099 80.1527 53.9324 83.0568 53.9324 86.5417Z" fill="#74849B"/>
<path d="M51.5247 84.7993C51.5247 89.5426 47.6724 93.4147 42.9533 93.4147C41.605 93.4147 40.4493 93.1243 39.2936 92.6403C37.7526 91.0915 36.7896 88.9618 36.7896 86.5417C36.7896 81.7984 40.6419 77.9263 45.361 77.9263C46.7093 77.9263 47.865 78.2167 49.0207 78.7975C50.5616 80.2495 51.5247 82.476 51.5247 84.7993Z" fill="#A7AEC0"/>
<path d="M31.3001 79.9592C31.3001 84.7025 27.4478 88.5747 22.7287 88.5747C20.321 88.5747 18.2022 87.6066 16.6612 86.0578C15.1203 84.5089 14.1572 82.3793 14.1572 79.9592C14.1572 75.2159 18.0096 71.3438 22.7287 71.3438C24.077 71.3438 25.2327 71.6342 26.3884 72.215C29.2776 73.5702 31.3001 76.5711 31.3001 79.9592Z" fill="#74849B"/>
<path d="M28.8924 78.3131C28.8924 83.0564 25.0401 86.9285 20.321 86.9285C18.9726 86.9285 17.8169 86.6381 16.6612 86.1541C15.1203 84.6052 14.1572 82.4756 14.1572 80.0555C14.1572 75.3122 18.0096 71.4401 22.7287 71.4401C24.077 71.4401 25.2327 71.7305 26.3884 72.3113C27.9293 73.7633 28.8924 75.893 28.8924 78.3131Z" fill="#A7AEC0"/>
<path d="M64.9117 86.2513C64.9117 90.9947 61.0593 94.8668 56.3402 94.8668C53.9325 94.8668 51.8137 93.8987 50.2728 92.3499C48.7319 90.8011 47.7688 88.6714 47.7688 86.2513C47.7688 81.508 51.6211 77.6359 56.3402 77.6359C57.6885 77.6359 58.8442 77.9263 59.9999 78.5071C62.8892 79.8623 64.9117 82.8632 64.9117 86.2513Z" fill="#74849B"/>
<path d="M62.504 84.6052C62.504 89.3485 58.6516 93.2206 53.9325 93.2206C52.5842 93.2206 51.4285 92.9302 50.2728 92.4462C48.7319 90.8974 47.7688 88.7677 47.7688 86.3476C47.7688 81.6043 51.6211 77.7322 56.3402 77.7322C57.6885 77.7322 58.8442 78.0226 59.9999 78.6034C61.5409 80.0554 62.504 82.1851 62.504 84.6052Z" fill="#A7AEC0"/>
<path d="M72.5201 88.5746C72.5201 91.8659 69.8235 94.5764 66.549 94.5764C64.9117 94.5764 63.3708 93.8988 62.3114 92.834C61.252 91.7691 60.5779 90.2203 60.5779 88.5746C60.5779 85.2834 63.2745 82.5729 66.549 82.5729C67.4158 82.5729 68.2825 82.7665 69.053 83.1537C71.1718 84.1217 72.5201 86.1546 72.5201 88.5746Z" fill="#74849B"/>
<path d="M70.8827 87.413C70.8827 90.7043 68.1861 93.4148 64.9116 93.4148C64.0449 93.4148 63.1781 93.2212 62.4076 92.834C61.3482 91.7691 60.6741 90.2203 60.6741 88.5746C60.6741 85.2834 63.3707 82.5729 66.6452 82.5729C67.512 82.5729 68.3787 82.7665 69.1492 83.1537C70.2086 84.2185 70.8827 85.7674 70.8827 87.413Z" fill="#A7AEC0"/>
<path d="M20.1283 88.9614C20.1283 92.2527 17.4316 94.9631 14.1571 94.9631C12.5199 94.9631 10.979 94.2855 9.91958 93.2207C8.86019 92.1559 8.18604 90.607 8.18604 88.9614C8.18604 85.6701 10.8827 82.9596 14.1571 82.9596C15.0239 82.9596 15.8907 83.1532 16.6612 83.5404C18.7799 84.5084 20.1283 86.5413 20.1283 88.9614Z" fill="#74849B"/>
<path d="M18.4909 87.7034C18.4909 90.9947 15.7943 93.7052 12.5198 93.7052C11.653 93.7052 10.7862 93.5116 10.0158 93.1244C8.95638 92.0595 8.28223 90.5107 8.28223 88.8651C8.28223 85.5738 10.9789 82.8633 14.2533 82.8633C15.1201 82.8633 15.9869 83.0569 16.7573 83.4441C17.8167 84.6057 18.4909 86.0578 18.4909 87.7034Z" fill="#A7AEC0"/>
<path d="M85.2327 88.3804C85.2327 91.6717 82.5361 94.3822 79.2616 94.3822C77.6244 94.3822 76.0835 93.7046 75.0241 92.6398C73.9647 91.5749 73.2905 90.0261 73.2905 88.3804C73.2905 85.0891 75.9872 82.3787 79.2616 82.3787C80.1284 82.3787 80.9952 82.5723 81.7657 82.9595C83.7881 83.9275 85.2327 85.9604 85.2327 88.3804Z" fill="#74849B"/>
<path d="M83.4992 87.1226C83.4992 90.4139 80.8026 93.1244 77.5281 93.1244C76.6613 93.1244 75.7945 92.9308 75.0241 92.5436C73.9647 91.4787 73.2905 89.9299 73.2905 88.2842C73.2905 84.9929 75.9872 82.2825 79.2616 82.2825C80.1284 82.2825 80.9952 82.4761 81.7657 82.8633C82.9213 84.0249 83.4992 85.477 83.4992 87.1226Z" fill="#A7AEC0"/>
<path d="M109.503 87.7029C109.503 90.9942 106.806 93.7047 103.531 93.7047C101.894 93.7047 100.353 93.0271 99.2938 91.9623C98.2345 90.8974 97.5603 89.3486 97.5603 87.7029C97.5603 84.4116 100.257 81.7012 103.531 81.7012C104.398 81.7012 105.265 81.8948 106.035 82.282C108.058 83.1532 109.503 85.2829 109.503 87.7029Z" fill="#74849B"/>
<path d="M107.769 86.445C107.769 89.7363 105.072 92.4468 101.798 92.4468C100.931 92.4468 100.064 92.2532 99.2938 91.866C98.2345 90.8011 97.5603 89.2523 97.5603 87.6066C97.5603 84.3153 100.257 81.6049 103.531 81.6049C104.398 81.6049 105.265 81.7985 106.035 82.1857C107.095 83.3473 107.769 84.7994 107.769 86.445Z" fill="#74849B"/>
<path d="M98.7159 80.7336C98.7159 84.0249 96.0193 86.7354 92.7448 86.7354C91.1076 86.7354 89.5666 86.0578 88.5072 84.9929C87.4478 83.9281 86.7737 82.3792 86.7737 80.7336C86.7737 77.4423 89.4703 74.7318 92.7448 74.7318C93.6116 74.7318 94.4783 74.9254 95.2488 75.3126C97.3676 76.2807 98.7159 78.3135 98.7159 80.7336Z" fill="#74849B"/>
<path d="M97.0785 79.572C97.0785 82.8633 94.3819 85.5737 91.1074 85.5737C90.2407 85.5737 89.3739 85.3801 88.6034 84.9929C87.544 83.9281 86.8699 82.3792 86.8699 80.7336C86.8699 77.4423 89.5665 74.7318 92.841 74.7318C93.7078 74.7318 94.5745 74.9254 95.345 75.3126C96.4044 76.3775 97.0785 77.9263 97.0785 79.572Z" fill="#A7AEC0"/>
<path d="M106.517 74.4409C106.517 77.7322 103.82 80.4426 100.546 80.4426C98.9086 80.4426 97.3676 79.765 96.3083 78.7002C95.2489 77.6354 94.5747 76.0865 94.5747 74.4409C94.5747 71.1496 97.2713 68.4391 100.546 68.4391C101.413 68.4391 102.279 68.6327 103.05 69.0199C105.169 69.9879 106.517 72.0208 106.517 74.4409Z" fill="#74849B"/>
<path d="M104.88 73.1829C104.88 76.4742 102.183 79.1847 98.9085 79.1847C98.0417 79.1847 97.1749 78.9911 96.4044 78.6039C95.3451 77.539 94.6709 75.9902 94.6709 74.3446C94.6709 71.0533 97.3675 68.3428 100.642 68.3428C101.509 68.3428 102.376 68.5364 103.146 68.9236C104.205 70.0852 104.88 71.5373 104.88 73.1829Z" fill="#A7AEC0"/>
<path d="M68.7641 86.2514C68.7641 88.5747 66.9342 90.4139 64.6228 90.4139C63.4671 90.4139 62.4077 89.9299 61.7336 89.1555C60.9631 88.381 60.5779 87.413 60.5779 86.2514C60.5779 83.9281 62.4077 82.0889 64.7191 82.0889C65.3933 82.0889 65.9711 82.1857 66.4527 82.4761C67.801 83.1537 68.7641 84.6057 68.7641 86.2514Z" fill="#74849B"/>
<path d="M67.6084 85.3802C67.6084 87.7034 65.7785 89.5427 63.4671 89.5427C62.793 89.5427 62.2151 89.4459 61.7336 89.1555C60.9631 88.381 60.5779 87.413 60.5779 86.2514C60.5779 83.9281 62.4077 82.0889 64.7191 82.0889C65.3933 82.0889 65.9711 82.1857 66.4527 82.4761C67.1268 83.2505 67.6084 84.3153 67.6084 85.3802Z" fill="#A7AEC0"/>
<path d="M112.488 80.54C112.488 82.8632 110.658 84.7025 108.347 84.7025C107.191 84.7025 106.132 84.2185 105.457 83.444C104.687 82.6696 104.302 81.7016 104.302 80.54C104.302 78.2167 106.132 76.3774 108.443 76.3774C109.117 76.3774 109.695 76.4742 110.177 76.7647C111.525 77.4423 112.488 78.8943 112.488 80.54Z" fill="#74849B"/>
<path d="M111.332 79.7651C111.332 82.0883 109.502 83.9276 107.191 83.9276C106.517 83.9276 105.939 83.8308 105.457 83.5404C104.687 82.7659 104.302 81.7979 104.302 80.6363C104.302 78.313 106.132 76.4738 108.443 76.4738C109.117 76.4738 109.695 76.5706 110.177 76.861C110.851 77.5386 111.332 78.6034 111.332 79.7651Z" fill="#A7AEC0"/>
<path d="M40.642 83.928C40.642 86.2513 38.8122 88.0905 36.5008 88.0905C35.3451 88.0905 34.2857 87.6065 33.6115 86.8321C32.841 86.0577 32.4558 85.0897 32.4558 83.928C32.4558 81.6048 34.2857 79.7655 36.5971 79.7655C37.2712 79.7655 37.8491 79.8623 38.3306 80.1527C39.6789 80.8303 40.642 82.1856 40.642 83.928Z" fill="#74849B"/>
<path d="M39.4863 83.0568C39.4863 85.3801 37.6565 87.2193 35.3451 87.2193C34.6709 87.2193 34.0931 87.1225 33.6115 86.8321C32.841 86.0577 32.4558 85.0897 32.4558 83.928C32.4558 81.6048 34.2857 79.7655 36.5971 79.7655C37.2712 79.7655 37.8491 79.8623 38.3306 80.1527C39.0048 80.9271 39.4863 81.8952 39.4863 83.0568Z" fill="#A7AEC0"/>
<path d="M12.4237 89.349C12.4237 91.6723 10.5939 93.5116 8.28246 93.5116C7.12677 93.5116 6.06738 93.0276 5.39322 92.2531C4.62275 91.4787 4.23752 90.5107 4.23752 89.349C4.14121 87.1226 5.97107 85.1865 8.28246 85.1865C8.95662 85.1865 9.53447 85.2833 10.016 85.5737C11.4606 86.2514 12.4237 87.7034 12.4237 89.349Z" fill="#74849B"/>
<path d="M11.268 88.5746C11.268 90.8979 9.43816 92.7371 7.12677 92.7371C6.45261 92.7371 5.87476 92.6403 5.39322 92.3499C4.62275 91.5755 4.23752 90.6075 4.23752 89.4458C4.14121 87.1226 5.97107 85.1865 8.28247 85.1865C8.95662 85.1865 9.53447 85.2833 10.016 85.5737C10.7865 86.3482 11.268 87.413 11.268 88.5746Z" fill="#A7AEC0"/>
<path d="M14.9279 83.0568C14.9279 85.3801 13.098 87.2193 10.7866 87.2193C9.63094 87.2193 8.57155 86.7353 7.8974 85.9609C7.12693 85.1865 6.7417 84.2184 6.7417 83.0568C6.7417 80.7335 8.57155 78.8943 10.883 78.8943C11.5571 78.8943 12.135 78.9911 12.6165 79.2815C13.9648 79.9591 14.9279 81.4112 14.9279 83.0568Z" fill="#74849B"/>
<path d="M13.7722 82.2819C13.7722 84.6052 11.9423 86.4444 9.63094 86.4444C8.95679 86.4444 8.37894 86.3476 7.8974 86.0572C7.12693 85.2828 6.7417 84.3148 6.7417 83.1531C6.7417 80.8299 8.57155 78.9906 10.883 78.9906C11.5571 78.9906 12.135 79.0874 12.6165 79.3778C13.2907 80.0554 13.7722 81.1203 13.7722 82.2819Z" fill="#A7AEC0"/>
<path d="M29.8556 81.508C29.8556 83.8312 28.0258 85.6705 25.7144 85.6705C24.5587 85.6705 23.4993 85.1865 22.8251 84.4121C22.0547 83.6376 21.6694 82.6696 21.6694 81.508C21.6694 79.1847 23.4993 77.3455 25.8107 77.3455C26.4848 77.3455 27.0627 77.4423 27.5442 77.7327C28.8925 78.4103 29.8556 79.8623 29.8556 81.508Z" fill="#74849B"/>
<path d="M28.6999 80.7331C28.6999 83.0563 26.8701 84.8956 24.5587 84.8956C23.8845 84.8956 23.3067 84.7988 22.8251 84.5084C22.0547 83.734 21.6694 82.7659 21.6694 81.6043C21.6694 79.281 23.4993 77.4418 25.8107 77.4418C26.4848 77.4418 27.0627 77.5386 27.5442 77.829C28.2184 78.5066 28.6999 79.5714 28.6999 80.7331Z" fill="#A7AEC0"/>
<path d="M89.2776 74.0542C89.2776 75.0223 88.5072 75.7967 87.5441 75.7967C87.0626 75.7967 86.581 75.6031 86.2921 75.3127C86.0032 75.0223 85.8105 74.5382 85.8105 74.0542C85.8105 73.0862 86.581 72.3118 87.5441 72.3118C87.833 72.3118 88.0256 72.4086 88.3146 72.5054C88.8924 72.7958 89.2776 73.3766 89.2776 74.0542Z" fill="#74849B"/>
<path d="M88.7961 73.7638C88.7961 74.7318 88.0256 75.5063 87.0626 75.5063C86.7736 75.5063 86.581 75.4095 86.2921 75.3127C86.0032 75.0223 85.8105 74.5382 85.8105 74.0542C85.8105 73.0862 86.581 72.3118 87.5441 72.3118C87.833 72.3118 88.0256 72.4086 88.3146 72.5054C88.6035 72.7958 88.7961 73.2798 88.7961 73.7638Z" fill="#A7AEC0"/>
<path d="M114.318 90.6074C114.318 91.5755 113.547 92.3499 112.584 92.3499C112.103 92.3499 111.621 92.1563 111.332 91.8659C111.043 91.5755 110.851 91.0915 110.851 90.6074C110.851 89.6394 111.621 88.865 112.584 88.865C112.873 88.865 113.066 88.9618 113.355 89.0586C113.932 89.349 114.318 89.9298 114.318 90.6074Z" fill="#74849B"/>
<path d="M113.836 90.317C113.836 91.2851 113.066 92.0595 112.103 92.0595C111.814 92.0595 111.621 91.9627 111.332 91.8659C111.043 91.5755 110.851 91.0915 110.851 90.6074C110.851 89.6394 111.621 88.865 112.584 88.865C112.873 88.865 113.066 88.9618 113.355 89.0586C113.644 89.349 113.836 89.833 113.836 90.317Z" fill="#A7AEC0"/>
<path d="M72.0384 75.2158C72.0384 76.1839 71.2679 76.9583 70.3048 76.9583C69.8233 76.9583 69.3418 76.7647 69.0528 76.4743C68.7639 76.1839 68.5713 75.6998 68.5713 75.2158C68.5713 74.2478 69.3418 73.4734 70.3048 73.4734C70.5938 73.4734 70.7864 73.5702 71.0753 73.667C71.6532 73.9574 72.0384 74.5382 72.0384 75.2158Z" fill="#74849B"/>
<path d="M71.5568 74.9254C71.5568 75.8935 70.7864 76.6679 69.8233 76.6679C69.5344 76.6679 69.3418 76.5711 69.0528 76.4743C68.7639 76.1839 68.5713 75.6998 68.5713 75.2158C68.5713 74.2478 69.3418 73.4734 70.3048 73.4734C70.5938 73.4734 70.7864 73.5702 71.0753 73.667C71.3642 73.9574 71.5568 74.4414 71.5568 74.9254Z" fill="#A7AEC0"/>
<path d="M32.9373 86.5418C32.9373 87.5098 32.1668 88.2842 31.2038 88.2842C30.7222 88.2842 30.2407 88.0906 29.9518 87.8002C29.6628 87.5098 29.4702 87.0258 29.4702 86.5418C29.4702 85.5737 30.2407 84.7993 31.2038 84.7993C31.4927 84.7993 31.6853 84.8961 31.9742 84.9929C32.4558 85.2833 32.9373 85.8642 32.9373 86.5418Z" fill="#74849B"/>
<path d="M32.4558 86.2514C32.4558 87.2194 31.6853 87.9938 30.7222 87.9938C30.4333 87.9938 30.2407 87.897 29.9518 87.8002C29.6628 87.5098 29.4702 87.0258 29.4702 86.5418C29.4702 85.5737 30.2407 84.7993 31.2038 84.7993C31.4927 84.7993 31.6853 84.8961 31.9742 84.9929C32.2632 85.2833 32.4558 85.7673 32.4558 86.2514Z" fill="#A7AEC0"/>
<path d="M38.4271 71.7304C38.4271 72.6984 37.6566 73.4728 36.6935 73.4728C36.212 73.4728 35.7304 73.2792 35.4415 72.9888C35.1526 72.6984 34.96 72.2144 34.96 71.7304C34.96 70.7623 35.7304 69.9879 36.6935 69.9879C36.9824 69.9879 37.1751 70.0847 37.464 70.1815C38.0418 70.3751 38.4271 71.0527 38.4271 71.7304Z" fill="#74849B"/>
<path d="M37.9455 71.3436C37.9455 72.3117 37.175 73.0861 36.212 73.0861C35.923 73.0861 35.7304 72.9893 35.4415 72.8925C35.1526 72.6021 34.96 72.1181 34.96 71.6341C34.96 70.666 35.7304 69.8916 36.6935 69.8916C36.9824 69.8916 37.1751 69.9884 37.464 70.0852C37.7529 70.4724 37.9455 70.8596 37.9455 71.3436Z" fill="#A7AEC0"/>
<path d="M3.5634 85.2833C3.5634 86.2514 2.79294 87.0258 1.82986 87.0258C1.34831 87.0258 0.866774 86.8322 0.577849 86.5418C0.192616 86.2514 0 85.7674 0 85.2833C0 84.3153 0.770465 83.5409 1.73355 83.5409C2.02247 83.5409 2.21509 83.6377 2.50401 83.7345C3.08186 83.9281 3.5634 84.6057 3.5634 85.2833Z" fill="#74849B"/>
<path d="M3.08186 84.8961C3.08186 85.8642 2.3114 86.6386 1.34831 86.6386C1.05939 86.6386 0.866774 86.5418 0.577849 86.445C0.192616 86.2514 0 85.7674 0 85.2833C0 84.3153 0.770465 83.5409 1.73355 83.5409C2.02247 83.5409 2.21509 83.6377 2.50401 83.7345C2.79294 84.0249 3.08186 84.4121 3.08186 84.8961Z" fill="#A7AEC0"/>
<path d="M92.7448 68.4391C92.7448 68.9231 92.3596 69.2135 91.9743 69.2135C91.7817 69.2135 91.5891 69.1167 91.3965 69.0199C91.3002 68.9231 91.2039 68.6327 91.2039 68.4391C91.2039 67.9551 91.5891 67.6647 91.9743 67.6647C92.0706 67.6647 92.1669 67.6647 92.3596 67.7615C92.5522 67.8583 92.7448 68.1487 92.7448 68.4391Z" fill="#74849B"/>
<path d="M92.5522 68.246C92.5522 68.73 92.1669 69.0204 91.7817 69.0204C91.6854 69.0204 91.5891 69.0204 91.3965 68.9236C91.3002 68.8268 91.2039 68.5364 91.2039 68.3428C91.2039 67.8588 91.5891 67.5684 91.9743 67.5684C92.0706 67.5684 92.1669 67.5684 92.3596 67.6652C92.4559 67.8588 92.5522 68.0524 92.5522 68.246Z" fill="#A7AEC0"/>
<path d="M114.125 72.5054C114.125 72.9894 113.74 73.2798 113.355 73.2798C113.162 73.2798 112.97 73.183 112.777 73.0862C112.681 72.9894 112.584 72.699 112.584 72.5054C112.584 72.0214 112.97 71.731 113.355 71.731C113.451 71.731 113.548 71.731 113.74 71.8278C113.933 71.9246 114.125 72.215 114.125 72.5054Z" fill="#74849B"/>
<path d="M113.933 72.4086C113.933 72.8926 113.548 73.183 113.162 73.183C113.066 73.183 112.97 73.183 112.777 73.0862C112.681 72.9894 112.584 72.699 112.584 72.5054C112.584 72.0214 112.97 71.731 113.355 71.731C113.451 71.731 113.548 71.731 113.74 71.8278C113.836 71.9246 113.933 72.1182 113.933 72.4086Z" fill="#A7AEC0"/>
<path d="M23.5956 80.249C23.5956 80.733 23.2104 81.0235 22.8252 81.0235C22.6325 81.0235 22.4399 80.9267 22.2473 80.8299C22.151 80.733 22.0547 80.4426 22.0547 80.249C22.0547 79.765 22.4399 79.4746 22.8252 79.4746C22.9215 79.4746 23.0178 79.4746 23.2104 79.5714C23.403 79.5714 23.5956 79.8618 23.5956 80.249Z" fill="#74849B"/>
<path d="M23.403 80.0559C23.403 80.5399 23.0178 80.8303 22.6325 80.8303C22.5362 80.8303 22.4399 80.8303 22.2473 80.7335C22.151 80.6367 22.0547 80.3463 22.0547 80.1527C22.0547 79.6687 22.4399 79.3783 22.8252 79.3783C22.9215 79.3783 23.0178 79.3783 23.2104 79.4751C23.3067 79.6687 23.403 79.8623 23.403 80.0559Z" fill="#A7AEC0"/>
<path d="M97.4638 79.2815C97.4638 79.7655 97.0786 80.0559 96.6933 80.0559C96.5007 80.0559 96.3081 79.9591 96.1155 79.8623C96.0192 79.7655 95.9229 79.4751 95.9229 79.2815C95.9229 78.7975 96.3081 78.5071 96.6933 78.5071C96.7896 78.5071 96.8859 78.5071 97.0786 78.6039C97.2712 78.7007 97.4638 78.9911 97.4638 79.2815Z" fill="#74849B"/>
<path d="M97.2712 79.1847C97.2712 79.6687 96.8859 79.9591 96.5007 79.9591C96.4044 79.9591 96.3081 79.9591 96.1155 79.8623C96.0192 79.7655 95.9229 79.4751 95.9229 79.2815C95.9229 78.7975 96.3081 78.5071 96.6933 78.5071C96.7896 78.5071 96.8859 78.5071 97.0786 78.6039C97.1749 78.7975 97.2712 78.9911 97.2712 79.1847Z" fill="#A7AEC0"/>
<path d="M24.8476 67.8588C24.8476 68.246 24.5587 68.5364 24.1734 68.5364C23.9808 68.5364 23.7882 68.4396 23.6919 68.3428C23.5956 68.246 23.4993 68.0524 23.4993 67.8588C23.4993 67.4716 23.7882 67.1812 24.1734 67.1812C24.2697 67.1812 24.366 67.1812 24.4623 67.278C24.655 67.3748 24.8476 67.5684 24.8476 67.8588Z" fill="#74849B"/>
<path d="M24.655 67.762C24.655 68.1492 24.366 68.4396 23.9808 68.4396C23.8845 68.4396 23.7882 68.4396 23.6919 68.3428C23.5956 68.246 23.4993 68.0524 23.4993 67.8588C23.4993 67.4716 23.7882 67.1812 24.1734 67.1812C24.2697 67.1812 24.366 67.1812 24.4623 67.278C24.5587 67.3748 24.655 67.5684 24.655 67.762Z" fill="#A7AEC0"/>
<path d="M2.21501 76.6674C2.21501 77.0546 1.92609 77.4418 1.54086 77.4418C1.34824 77.4418 1.15562 77.345 1.05932 77.2482C0.963007 77.1514 0.866699 76.9578 0.866699 76.7642C0.866699 76.377 1.15562 76.0865 1.54086 76.0865C1.63716 76.0865 1.73347 76.0865 1.82978 76.1833C2.0224 76.1833 2.21501 76.4738 2.21501 76.6674Z" fill="#74849B"/>
<path d="M2.0224 76.571C2.0224 76.9583 1.73347 77.2487 1.34824 77.2487C1.25193 77.2487 1.15562 77.2487 1.05932 77.1519C0.963007 77.0551 0.866699 76.8615 0.866699 76.6679C0.866699 76.2806 1.15562 75.9902 1.54086 75.9902C1.63716 75.9902 1.73347 75.9902 1.82978 76.087C1.92609 76.1838 2.0224 76.3774 2.0224 76.571Z" fill="#A7AEC0"/>
<path d="M105.072 86.5417C105.072 91.2851 101.22 95.1572 96.5009 95.1572C94.0932 95.1572 91.9744 94.1891 90.4335 92.6403C88.8925 91.0915 87.9294 88.9618 87.9294 86.5417C87.9294 81.7984 91.7818 77.9263 96.5009 77.9263C97.8492 77.9263 99.0049 78.2167 100.161 78.7975C103.05 80.0559 105.072 83.0568 105.072 86.5417Z" fill="#74849B"/>
<path d="M102.665 84.7993C102.665 89.5426 98.8123 93.4147 94.0932 93.4147C92.7448 93.4147 91.5892 93.1243 90.4335 92.6403C88.8925 91.0915 87.9294 88.9618 87.9294 86.5417C87.9294 81.7984 91.7818 77.9263 96.5009 77.9263C97.8492 77.9263 99.0049 78.2167 100.161 78.7975C101.702 80.2495 102.665 82.3792 102.665 84.7993Z" fill="#A7AEC0"/>
<path d="M56.4367 82.6696C57.8729 82.6696 59.0371 81.4994 59.0371 80.0559C59.0371 78.6124 57.8729 77.4423 56.4367 77.4423C55.0006 77.4423 53.8364 78.6124 53.8364 80.0559C53.8364 81.4994 55.0006 82.6696 56.4367 82.6696Z" fill="#C5D0E2"/>
<path d="M26.4848 80.056C27.921 80.056 29.0852 78.8858 29.0852 77.4423C29.0852 75.9988 27.921 74.8286 26.4848 74.8286C25.0487 74.8286 23.8845 75.9988 23.8845 77.4423C23.8845 78.8858 25.0487 80.056 26.4848 80.056Z" fill="#C5D0E2"/>
<path d="M17.1428 87.9938C18.1534 87.9938 18.9727 87.1704 18.9727 86.1546C18.9727 85.1388 18.1534 84.3153 17.1428 84.3153C16.1322 84.3153 15.313 85.1388 15.313 86.1546C15.313 87.1704 16.1322 87.9938 17.1428 87.9938Z" fill="#C5D0E2"/>
<path d="M21.2841 81.7016C21.816 81.7016 22.2472 81.2682 22.2472 80.7335C22.2472 80.1989 21.816 79.7655 21.2841 79.7655C20.7522 79.7655 20.321 80.1989 20.321 80.7335C20.321 81.2682 20.7522 81.7016 21.2841 81.7016Z" fill="url(#paint6_linear_107_1571)"/>
<path d="M61.3482 73.8606C61.8269 73.8606 62.215 73.4706 62.215 72.9894C62.215 72.5082 61.8269 72.1182 61.3482 72.1182C60.8695 72.1182 60.4814 72.5082 60.4814 72.9894C60.4814 73.4706 60.8695 73.8606 61.3482 73.8606Z" fill="url(#paint7_linear_107_1571)"/>
<path d="M119.133 76.6679C119.612 76.6679 120 76.2778 120 75.7966C120 75.3155 119.612 74.9254 119.133 74.9254C118.655 74.9254 118.267 75.3155 118.267 75.7966C118.267 76.2778 118.655 76.6679 119.133 76.6679Z" fill="url(#paint8_linear_107_1571)"/>
<path d="M95.6341 86.6386C96.0064 86.6386 96.3083 86.3352 96.3083 85.9609C96.3083 85.5867 96.0064 85.2833 95.6341 85.2833C95.2618 85.2833 94.96 85.5867 94.96 85.9609C94.96 86.3352 95.2618 86.6386 95.6341 86.6386Z" fill="url(#paint9_linear_107_1571)"/>
<defs>
<linearGradient id="paint0_linear_107_1571" x1="7.63323" y1="72.4044" x2="8.84806" y2="72.4044" gradientUnits="userSpaceOnUse">
<stop stop-color="#FF66A9"/>
<stop offset="1" stop-color="#F53689"/>
</linearGradient>
<linearGradient id="paint1_linear_107_1571" x1="114.413" y1="66.1437" x2="113.145" y2="65.3209" gradientUnits="userSpaceOnUse">
<stop stop-color="#83A6FF"/>
<stop offset="1" stop-color="#5A78FF"/>
</linearGradient>
<linearGradient id="paint2_linear_107_1571" x1="18.2569" y1="38.8276" x2="100.216" y2="38.8276" gradientUnits="userSpaceOnUse">
<stop stop-color="#6F88FF"/>
<stop offset="1" stop-color="#6E88FF" stop-opacity="0"/>
</linearGradient>
<linearGradient id="paint3_linear_107_1571" x1="57.9312" y1="42.5355" x2="63.1132" y2="42.5355" gradientUnits="userSpaceOnUse">
<stop stop-color="#FF66A9"/>
<stop offset="1" stop-color="#F53689"/>
</linearGradient>
<linearGradient id="paint4_linear_107_1571" x1="65.6824" y1="40.953" x2="68.6798" y2="40.953" gradientUnits="userSpaceOnUse">
<stop stop-color="#FF66A9"/>
<stop offset="1" stop-color="#F53689"/>
</linearGradient>
<linearGradient id="paint5_linear_107_1571" x1="52.48" y1="40.953" x2="55.4773" y2="40.953" gradientUnits="userSpaceOnUse">
<stop stop-color="#FF66A9"/>
<stop offset="1" stop-color="#F53689"/>
</linearGradient>
<linearGradient id="paint6_linear_107_1571" x1="20.267" y1="80.7065" x2="22.2678" y2="80.7065" gradientUnits="userSpaceOnUse">
<stop stop-color="#83A6FF"/>
<stop offset="1" stop-color="#5A78FF"/>
</linearGradient>
<linearGradient id="paint7_linear_107_1571" x1="60.5176" y1="72.9596" x2="62.2604" y2="72.9596" gradientUnits="userSpaceOnUse">
<stop stop-color="#FF66A9"/>
<stop offset="1" stop-color="#F53689"/>
</linearGradient>
<linearGradient id="paint8_linear_107_1571" x1="118.222" y1="75.8238" x2="119.965" y2="75.8238" gradientUnits="userSpaceOnUse">
<stop stop-color="#FF66A9"/>
<stop offset="1" stop-color="#F53689"/>
</linearGradient>
<linearGradient id="paint9_linear_107_1571" x1="94.9876" y1="85.9253" x2="96.2602" y2="85.9253" gradientUnits="userSpaceOnUse">
<stop stop-color="#83A6FF"/>
<stop offset="1" stop-color="#5A78FF"/>
</linearGradient>
</defs>
</svg>
